<svg xmlns="http://www.w3.org/2000/svg" xmlns:xlink="http://www.w3.org/1999/xlink" width="350" height="350" viewBox="0 0 350 350">
  <defs>
    <clipPath id="clip-Tavola_da_disegno_3">
      <rect width="350" height="350"/>
    </clipPath>
  </defs>
  <g id="Tavola_da_disegno_3" data-name="Tavola da disegno – 3" clip-path="url(#clip-Tavola_da_disegno_3)">
    <g id="Raggruppa_25" data-name="Raggruppa 25" transform="translate(46.063 45.739)">
      <path id="Sottrazione_17" data-name="Sottrazione 17" d="M197.5,287.689c-2.765,0-5.805-1.388-9.294-4.242a87.7,87.7,0,0,1-8.764-8.761l-.01-.011c-2.812-3.085-5.469-6-7.723-7.526a111.059,111.059,0,0,1-23.617,8.264,109.835,109.835,0,0,1-24.217,2.7,115.805,115.805,0,0,1-25.922-2.983,127.521,127.521,0,0,1-25.239-8.736c-3.041,2.131-5.719,5.313-8.554,8.681l-.006.007C59.2,280.965,54.078,287.053,46.9,287.054a14.447,14.447,0,0,1-4.244-.671,9.589,9.589,0,0,1-4.685-4.2,9.883,9.883,0,0,1-1.761-6.107c.508-3.654,6.251-11.622,10.444-17.441l.007-.01c2.361-3.277,4.227-5.865,4.186-6.376a133.359,133.359,0,0,1-24.728-30.482A105.353,105.353,0,0,1,17.9,204.041a95.753,95.753,0,0,1-4.634-19.292,120.129,120.129,0,0,1,2.719-46.917A110.568,110.568,0,0,1,37.414,96.27a24.952,24.952,0,0,1,2.971-2.963c1.453-1.285,2.6-2.3,2.658-3.682.054-1.316-.871-2.89-3-5.1h-.006c-.556,0-2.873,1.947-6.079,4.641l0,0-.007.006c-6.013,5.051-15.1,12.684-19.856,13.364a6.193,6.193,0,0,1-.875.063c-3.291,0-5.948-2.669-7.6-4.908a28.722,28.722,0,0,1-4.2-8.636A37.543,37.543,0,0,1,0,79.053,36.784,36.784,0,0,1,1.258,69.4a39.529,39.529,0,0,1,3.688-9.037,44.577,44.577,0,0,1,5.878-8.151,17.722,17.722,0,0,1-3.439-5.055A12.53,12.53,0,0,1,6.27,41.734a11.214,11.214,0,0,1,1.095-4.511,14.079,14.079,0,0,1,3.147-4.208c2.3-2.153,4.629-3.245,6.93-3.245,4.969,0,8.9,5.028,11.315,9.245A52.37,52.37,0,0,1,52.2,33.205a39.384,39.384,0,0,1,12.189,1.845,31.7,31.7,0,0,1,10.8,5.975c4.085,3.472,5.959,6.656,5.728,9.734a7.908,7.908,0,0,1-1.375,3.782,17,17,0,0,1-3.134,3.447,73.542,73.542,0,0,1-9.168,6.317l-.007,0c-4.851,3.006-9.866,6.115-12.129,9.633l3.012,3.664A111.574,111.574,0,0,1,84.512,63.22a109.625,109.625,0,0,1,29.331-6.772l0-15.831a37.3,37.3,0,0,1-12.426-3.1A21.043,21.043,0,0,1,92.5,30.32,15.853,15.853,0,0,1,89.9,23.212a21.668,21.668,0,0,1,1.038-8.985,16.308,16.308,0,0,1,4.595-7.209,22.406,22.406,0,0,1,7.388-4.336,41.407,41.407,0,0,1,9-2.12A73.189,73.189,0,0,1,121.332,0c2.925,0,6.071.136,9.62.415A28.867,28.867,0,0,1,140.469,2.7a20.021,20.021,0,0,1,6.565,4.615,18.045,18.045,0,0,1,4.77,13.11,19.984,19.984,0,0,1-1.746,7.407,20.619,20.619,0,0,1-4.544,6.464,21.69,21.69,0,0,1-7.19,4.572,26.475,26.475,0,0,1-9.683,1.734c-.38,0-.759-.007-1.127-.02l0,15.9a79.726,79.726,0,0,1,11.9.923,95.1,95.1,0,0,1,11.644,2.551,130.279,130.279,0,0,1,22.175,8.749c.849.422,3.026,1.759,5.131,3.052l.02.012a56.777,56.777,0,0,0,6.331,3.653,4.9,4.9,0,0,0,3.045-2.369,1.327,1.327,0,0,0,0-1.446c-1.73-1.746-6.469-4.514-11.488-7.444-6.57-3.837-13.364-7.8-14.276-9.971a8.471,8.471,0,0,1,.547-7.811,19.691,19.691,0,0,1,5.512-5.792,37.658,37.658,0,0,1,12.08-5.922,48.164,48.164,0,0,1,13.495-1.863,53.414,53.414,0,0,1,12.506,1.483,19.065,19.065,0,0,1,2.751,1.147,12.139,12.139,0,0,0,3.032,1.18.594.594,0,0,0,.079-.005,6.982,6.982,0,0,0,1.35-1.525l.005-.007.007-.009.006-.008a18.1,18.1,0,0,1,2.065-2.38,14.365,14.365,0,0,1,9.009-3.63,9.942,9.942,0,0,1,9.365,6.336,10.257,10.257,0,0,1,.3,6.415,14.124,14.124,0,0,1-4.334,6.725,44.5,44.5,0,0,1,7.407,9.444,45.931,45.931,0,0,1,4.695,11.088,40.875,40.875,0,0,1-.371,23.777c-1.846,5.562-4.5,8.267-8.108,8.267-4.224,0-9.065-3.642-13.747-7.164l-.01-.007c-1.238-.931-2.517-1.894-3.75-2.754-.74-.515-2.628-2.021-4.626-3.615l-.074-.059-.054-.043-.006-.005a84.913,84.913,0,0,0-6.806-5.191.506.506,0,0,0-.114-.013,1.955,1.955,0,0,0-1.174.732c-1.321,1.354-2.82,4.144-2.8,4.942.014.575,3.823,4.969,7.184,8.846l.007.007.048.055c2.091,2.414,4.067,4.694,4.73,5.6a110.122,110.122,0,0,1-18.737,149.908,50.91,50.91,0,0,0,5.365,8.6c2.807,3.956,5.709,8.046,7.187,12.091a12.968,12.968,0,0,1,.895,5.918,9.291,9.291,0,0,1-2.6,5.411,11.351,11.351,0,0,1-3.369,2.537A8.02,8.02,0,0,1,197.5,287.689ZM121.418,65.358c-3.287,0-6.638.149-9.958.444C80.6,68.537,53.237,86.241,36.394,114.375c-17.175,28.689-19.965,63.3-7.464,92.577a102.333,102.333,0,0,0,94.453,61.9h.007a99.574,99.574,0,0,0,79.073-38.584c24.658-31.656,29.06-71.675,11.774-107.051a102.558,102.558,0,0,0-92.812-57.857ZM51.272,42.837c-8.254,0-17.541,3.095-25.479,8.489-12.526,8.511-21.472,25.952-13.38,41.51l58.3-41.664C65.913,45.718,59.19,42.836,51.272,42.837Zm142.512-.685a31.143,31.143,0,0,0-21.564,8.681l60.56,39.735c2.791-10.642.178-22.208-7.169-31.732C217.672,48.545,205.476,42.152,193.784,42.152ZM121.611,9.209a58.82,58.82,0,0,0-12.641,1.182c-4.467,1.021-7.366,2.676-8.616,4.918-1.8,3.237-1.9,6.4-.285,9.156,2.712,4.616,9.381,7.031,14.566,7.031h0a15.5,15.5,0,0,0-.083-3.788c-.159-1.443-.285-2.583.36-3.378.519-.64,1.512-1.011,3.123-1.167s2.85-.228,3.915-.228c3,0,4.826.6,5.738,1.89.974,1.376.916,3.555-.178,6.661.164,0,.342.006.528.006a16.036,16.036,0,0,0,10.465-3.425,10.622,10.622,0,0,0,3.952-7.548c.2-4.506-3.1-10.084-13.064-10.976C128.006,9.418,125.146,9.209,121.611,9.209Z" transform="translate(7.621 -14.584)" fill="#020202" stroke="rgba(0,0,0,0)" stroke-miterlimit="10" stroke-width="1"/>
      <path id="Tracciato_498" data-name="Tracciato 498" d="M1429.572,106.142c5.011-.86,7.681,5.114,9.674,8.944,4.274,8.216,7.244,18.114,6.213,27.449-.648,5.862-7.486,24.959-12.861,27.279-4.331,1.869-7.322-.29-6.583-5.056.352-2.274,4.107-6.152,5.548-8.853,5.432-10.183,5.683-21.7,1.6-32.462-1.46-3.85-11.307-15.976-3.59-17.3" transform="translate(-1170.42 -70.928)" fill="#030303"/>
      <path id="Tracciato_499" data-name="Tracciato 499" d="M1076.31,111.144c2.723-.571,5.458,1.071,5.45,4.027-.005,1.874-4.309,8.5-5.207,11.4a36.033,36.033,0,0,0,1.833,26.109c1.652,3.528,13.426,15.1,5.291,16.631-5.04.945-7.954-3.459-10.364-7.012-6.384-9.412-8.524-19.885-7.395-31.216.469-4.706,5.45-18.9,10.392-19.941" transform="translate(-1083 -72.135)" fill="#030303"/>
      <path id="Sottrazione_13" data-name="Sottrazione 13" d="M89.429,177.488a95.377,95.377,0,0,1-18.049-1.73,94.009,94.009,0,0,1-17.389-5.134,89.18,89.18,0,0,1-16.028-8.453A83.373,83.373,0,0,1,24,150.484a85.549,85.549,0,0,1-22.485-43.72,92.035,92.035,0,0,1,3.645-46.9A90.983,90.983,0,0,1,30.881,21.222a84.283,84.283,0,0,1,20-13.083A85.781,85.781,0,0,1,75.06,1,98.5,98.5,0,0,1,88.908,0a87.8,87.8,0,0,1,28.225,4.57,84.987,84.987,0,0,1,23.729,12.517,89.193,89.193,0,0,1,18.431,18.674,92.971,92.971,0,0,1,12.33,23.04,91.863,91.863,0,0,1,5.409,25.343,87.369,87.369,0,0,1-2.129,26.13,85.662,85.662,0,0,1-10.445,25.181,94.294,94.294,0,0,1-19.54,22.5,80.929,80.929,0,0,1-26.106,14.715A90.291,90.291,0,0,1,89.429,177.488ZM88.191,9.278c-1.08,0-2.177.022-3.259.067-28.986,1.184-55,18.78-67.9,45.921-12.875,27.095-10.2,57.1,7.147,80.271,15.559,20.777,38.847,32.692,63.892,32.692,27.631,0,53.244-14.487,68.514-38.749,14.9-23.676,15.5-52.835,1.6-78C143.813,25.448,116.992,9.277,88.191,9.278Z" transform="translate(41.728 63.829)" fill="#030303" stroke="rgba(0,0,0,0)" stroke-miterlimit="10" stroke-width="1"/>
      <path id="Sottrazione_14" data-name="Sottrazione 14" d="M43.292,85.722a7.573,7.573,0,0,1-1.666-.2c-2.1-.474-7.5-6.209-10.1-8.965l-.007-.007c-.257-.272-.483-.512-.671-.71-.724-.761-1.9-2.267-3.154-3.862-2.088-2.664-4.454-5.684-5.558-6.359a2.67,2.67,0,0,0-1.318-.232,28.29,28.29,0,0,0-3.247.3l-.076.01a29.812,29.812,0,0,1-3.433.312c-.229,0-.439-.009-.625-.026a16.081,16.081,0,0,1-5.559-1.5A13.513,13.513,0,0,1,3.8,61.461a14,14,0,0,1-2.6-4.1A15.646,15.646,0,0,1,.056,52.626a16.389,16.389,0,0,1,2.462-10.12,15.105,15.105,0,0,1,9.074-6.52l-.471-32.9A3.737,3.737,0,0,1,13.11.783,7.114,7.114,0,0,1,16.4,0a4.841,4.841,0,0,1,3.279,1.053c.778.729,1.6,3.527,1.728,4.707a107.247,107.247,0,0,1,.107,15.629,117.9,117.9,0,0,0,0,14.559c4.39,2.939,7.3,6.222,8.64,9.757,1.527,4.019.983,8.3-1.617,12.709L47.586,79.592A5.39,5.39,0,0,1,46.82,84.2,4.334,4.334,0,0,1,43.292,85.722ZM15.759,44.768a6.966,6.966,0,0,0-1.384.145,5.455,5.455,0,0,0-4.3,6.123,5.4,5.4,0,0,0,5.464,5.131,7.545,7.545,0,0,0,1.51-.16,5.26,5.26,0,0,0,4.173-5.983A5.535,5.535,0,0,0,15.759,44.768Z" transform="translate(113.747 101.636)" fill="#020202" stroke="rgba(0,0,0,0)" stroke-miterlimit="10" stroke-width="1"/>
      <path id="Tracciato_600" data-name="Tracciato 600" d="M1342.06,254.179a68.131,68.131,0,0,1,7.352-.21c9.472.7,8.96,9.525,2.257,10.575-2.057.322-10.816.363-12.434-.351-4.3-1.9-2.7-9.114,2.825-10.014" transform="translate(-1148.794 -106.812)" fill="#040404"/>
      <path id="Tracciato_601" data-name="Tracciato 601" d="M1171.728,254.249c7.752-.279,9.128,7.845,3.905,10.017-1.73.719-10.309.681-12.432.348-5.167-.81-5.385-7.778-1.942-9.421.887-.423,8.659-.879,10.469-.944" transform="translate(-1105.644 -106.885)" fill="#030303"/>
      <path id="Tracciato_602" data-name="Tracciato 602" d="M1257.445,337.116c8.98-2.695,7.5,16.548,3.678,18.828-9.578,5.713-9.354-17.125-3.678-18.828" transform="translate(-1128.584 -126.932)" fill="#030303"/>
      <path id="Tracciato_603" data-name="Tracciato 603" d="M1255.657,160.964c3.142-2.539,7.171-.156,7.953,3.337,1.147,5.123,1.051,18.278-7.418,14.228-3.316-1.585-3.18-15.427-.535-17.565" transform="translate(-1128.632 -83.994)" fill="#040404"/>
      <path id="Tracciato_604" data-name="Tracciato 604" d="M1213.336,329.057c10.96-3.2,2.661,16.893-4.522,15.652-7.252-1.252.841-14.576,4.522-15.652" transform="translate(-1117.036 -124.955)" fill="#030303"/>
      <path id="Tracciato_605" data-name="Tracciato 605" d="M1300.064,329.139c6.59-1.993,13.95,13.856,7.245,15.643-5.783,1.542-12.736-13.982-7.245-15.643" transform="translate(-1139.401 -125.017)" fill="#030303"/>
      <path id="Tracciato_606" data-name="Tracciato 606" d="M1185.128,300.076a6.73,6.73,0,0,1,1.75,3.875c-.349,4.728-17.672,11.99-15.929,1.609.5-2.966,10.961-8.1,14.178-5.484" transform="translate(-1108.526 -117.832)" fill="#040404"/>
      <path id="Tracciato_607" data-name="Tracciato 607" d="M1211.862,188.051c-3.539-3.441-8.7-16.806.713-13.978,2.018.607,6.293,7.973,6.578,10.143.638,4.869-3.573,7.449-7.291,3.834" transform="translate(-1117.359 -87.337)" fill="#040404"/>
      <path id="Tracciato_608" data-name="Tracciato 608" d="M1305.372,173.148c2.618-.4,5.554,2.4,5.01,5.011-.293,1.4-4.89,9.341-5.884,10.063a4.21,4.21,0,0,1-6.342-2.108c-.986-3.34,3.633-12.42,7.217-12.966" transform="translate(-1139.39 -87.198)" fill="#040404"/>
      <path id="Tracciato_609" data-name="Tracciato 609" d="M1343.189,208.994c4.9,4.935-8.111,12.742-11.4,11.831-1.81-.5-3.091-3.741-2.832-5.538.516-3.6,11.406-9.137,14.229-6.294" transform="translate(-1146.889 -95.715)" fill="#050505"/>
      <path id="Tracciato_610" data-name="Tracciato 610" d="M1331.927,299.121c4.046-1.207,18.152,6.97,10.492,12.052-3.112,2.064-13.086-4.043-12.931-7.706.064-1.518.838-3.869,2.439-4.346" transform="translate(-1147.025 -117.746)" fill="#030303"/>
      <path id="Tracciato_611" data-name="Tracciato 611" d="M1175.381,208.129c1.128-.154,9.377,4.33,10.095,5.529,1.662,2.778,1.11,7.3-2.686,7.306-1.794,0-10.021-4.137-11.049-5.691-1.766-2.67.748-6.748,3.64-7.144" transform="translate(-1108.605 -95.695)" fill="#030303"/>
    </g>
  </g>
</svg>
