<svg xmlns="http://www.w3.org/2000/svg" xmlns:xlink="http://www.w3.org/1999/xlink" width="350" height="350" viewBox="0 0 350 350">
  <defs>
    <clipPath id="clip-Tavola_da_disegno_5">
      <rect width="350" height="350"/>
    </clipPath>
  </defs>
  <g id="Tavola_da_disegno_5" data-name="Tavola da disegno – 5" clip-path="url(#clip-Tavola_da_disegno_5)">
    <g id="Raggruppa_27" data-name="Raggruppa 27" transform="translate(67.314 81.434)">
      <path id="Sottrazione_20" data-name="Sottrazione 20" d="M50.411,305.665a3.424,3.424,0,0,1-2.515-1.406c-1.123-1.317-1.622-10.342-1.643-10.725-.393-7.286-.607-14.737-.814-21.942v0c-.149-5.188-.3-10.549-.522-15.791-.175-4.17-.269-8.428-.36-12.546v-.006c-.072-3.264-.147-6.639-.261-9.945-.772.061-1.542.092-2.29.092a29.476,29.476,0,0,1-8.787-1.385.8.8,0,0,1,.3.846c-.418,1.4-4.734,2.694-5.987,2.9a16.437,16.437,0,0,1-2.611.213,15.965,15.965,0,0,1-7.384-1.839,22.713,22.713,0,0,1-6.222-4.892,36.95,36.95,0,0,1-5.181-7.4,51.432,51.432,0,0,1-3.673-8.637A44.637,44.637,0,0,1,.1,196.595a25.873,25.873,0,0,1,2.538-8.761,36.372,36.372,0,0,0,1.9-5.036,82.568,82.568,0,0,0,1.708-8.316,56.463,56.463,0,0,1,3.427-13.247,47.156,47.156,0,0,1,8.293-13.009,55.231,55.231,0,0,1,11.987-10.07,58.634,58.634,0,0,1,14.381-6.5A54.229,54.229,0,0,1,59.8,129.344a47.526,47.526,0,0,1,10.747,1.208,43.079,43.079,0,0,1,10.205,3.768c.775-.856-.164-4.412-1.158-8.176-.941-3.563-1.914-7.246-1.436-8.759-.525.036-1.049.054-1.559.054a20.866,20.866,0,0,1-15.663-7.073,27.628,27.628,0,0,1-4.791-7.336A30.99,30.99,0,0,1,53.686,94.5a28.7,28.7,0,0,1-.006-8.024,23.208,23.208,0,0,1,2.33-7.411,19.209,19.209,0,0,1,4.844-6.022,20.491,20.491,0,0,1,7.535-3.858,54.45,54.45,0,0,1-1.166-24.823,48.481,48.481,0,0,1,9.214-20.29A55.459,55.459,0,0,1,86.573,13.949,63.725,63.725,0,0,1,99.21,6.381a70.89,70.89,0,0,1,14.457-4.741A74.752,74.752,0,0,1,129.263,0c1.732,0,3.487.061,5.215.181a74.988,74.988,0,0,1,22.015,5.555,60.723,60.723,0,0,1,10.633,5.592,29.656,29.656,0,0,1,7.691,7.121,18.816,18.816,0,0,1,1.361,2.779,9.733,9.733,0,0,0,1.124,2.225,8.1,8.1,0,0,0,2,.692,16.3,16.3,0,0,1,2.621.87,26.36,26.36,0,0,1,9.961,8.6,30.9,30.9,0,0,1,4.746,11.664,47.812,47.812,0,0,1,.61,13.133,66.018,66.018,0,0,1-2.446,13,21.812,21.812,0,0,1,7.147,5.475,19.085,19.085,0,0,1,3.761,7.132,24.137,24.137,0,0,1,.275,11.382,34.305,34.305,0,0,1-4.623,11.369,23.1,23.1,0,0,1-6.014,6.531,14.126,14.126,0,0,1-8.265,2.819c-.271,0-.546-.009-.817-.026-.315,6.254-2.523,12.189-4.64,17.17a10.14,10.14,0,0,1-.987,1.54,4.282,4.282,0,0,0-.708,1.144,15.072,15.072,0,0,0,.9,1.749,17.088,17.088,0,0,0,1.017,1.688,39.711,39.711,0,0,0,4.971,1.28h0c2.122.485,4.316.986,5.16,1.283a56.159,56.159,0,0,1,17.507,9.573,47.6,47.6,0,0,1,10.983,13.127,78.244,78.244,0,0,1,6.759,16.007c1.8,5.741,3.275,11.8,4.832,18.213.662,2.725,1.345,5.542,2.068,8.38.677,2.661,1.4,5.479,2.1,8.2,3.312,12.906,7.065,27.533,10.253,42.007,3.69,16.755,5.9,30.075,6.764,40.72.012.144.025.293.038.447a15.83,15.83,0,0,1,.014,3.791,3.429,3.429,0,0,1-1.939,2.853,3.88,3.88,0,0,1-1.551.361,2.841,2.841,0,0,1-2.254-1.149,6.8,6.8,0,0,1-1.221-2.637,169.571,169.571,0,0,1-2.924-16.9c-.6-4.29-1.22-8.727-2-12.689-3.5-17.775-8.936-44.338-15.61-69.7-.4-1.5-.787-3.039-1.2-4.662-3.641-14.281-8.172-32.053-19.507-41.052a57.048,57.048,0,0,0-10.8-6.057c-4.945-2.2-9.17-3.465-11.589-3.465h-.24c-.455,0-.644,0-.714.074-.046.049-.042.131-.034.268a2.986,2.986,0,0,1-.021.638c-.311,2.223-.569,4.394-.818,6.493-.82,6.9-1.594,13.42-4.086,20.526-.109.311-.222.652-.342,1.014l0,.007a23.977,23.977,0,0,1-1.943,4.689c-1.01,1.677-2.167,2.492-3.535,2.492h-.013c-1.961-.008-5.865-3.54-10-7.28-4.056-3.67-8.249-7.464-10.817-8.075l-8.716,13.518c.826,12.987,1.289,27.116,1.418,43.193.118,14.742-.053,29.444-.239,43.239-.049,3.6.062,7.51.169,11.288a166.033,166.033,0,0,1-.153,18.684c-.136,1.532-.716,5.057-1.635,6.175a2.839,2.839,0,0,1-2.244,1.121,3.264,3.264,0,0,1-2.24-.954,3.508,3.508,0,0,1-1.066-2.392c.083-13.686.054-27.609.025-41.074v-.012c-.055-26.048-.112-52.982.643-79.4L124.716,168.2c-4.884,4.388-8.647,9.816-12.287,15.066l0,0c-.94,1.356-1.913,2.759-2.89,4.122a30.176,30.176,0,0,1,4.792,13.952,38.765,38.765,0,0,1,.009,7.876,36.7,36.7,0,0,1-1.6,7.683,28.131,28.131,0,0,1-5.267,9.663,20.412,20.412,0,0,1-8.781,6.115,39.836,39.836,0,0,1-7.888,1.63,46.255,46.255,0,0,0-6.787,1.277,32.873,32.873,0,0,0-4.828,1.952c-2.3,1.082-4.474,2.1-7.142,2.1a12.76,12.76,0,0,1-4.3-.806c-3.965-1.407-5.948-5.307-7.133-7.637-.477-.939-.822-1.617-1.1-1.712a13.36,13.36,0,0,0-3.024-.229c-2.409,0-5.011.24-5.395.776.972,10.479,1.164,21.184,1.35,31.537.077,4.3.157,8.744.292,13.114.086,2.8.378,6.074.686,9.544.525,5.9,1.067,12.007.67,16.511C53.844,303.5,52.229,305.665,50.411,305.665ZM88.3,202.762c1.888,0,2.942.727,3.415,2.359a3.21,3.21,0,0,1-.232,2.847c-1.1,1.576-4.023,1.79-6.6,1.978a17.94,17.94,0,0,0-3.284.42c-6.079,1.765-16.765,10.677-14.847,17.747.717,2.645,2.318,3.931,4.894,3.931,2.307,0,5.039-1.027,7.449-1.933a34.276,34.276,0,0,1,3.485-1.181c1.867-.463,3.746-.8,5.564-1.121,6.766-1.2,13.157-2.342,16.636-9.891,6.122-13.286,2.163-28.1-10.331-38.664-.35,7.379-2.411,11.483-8.163,16.263a14.422,14.422,0,0,1-2.558,1.59c-1.277.671-2.379,1.25-2.62,2.252-.182.756.152,1.721,1.021,2.952a2.308,2.308,0,0,0,2.063.811,15.917,15.917,0,0,0,1.955-.173l.053-.007A16.978,16.978,0,0,1,88.3,202.762Zm-22.553-48.97h0a19.535,19.535,0,0,0-9.529,2.544c-6.577,3.638-6.577,3.638-11.343,4.726-1.013.231-2.274.519-3.866.9-6.8,1.645-10.013,5.376-13.413,9.325a53.249,53.249,0,0,1-5.434,5.691c-1.718,1.5-3.307,2.757-4.844,3.973-7.065,5.593-11.328,8.968-10.063,21.989.355,3.658,2.361,9.718,4.877,14.736,1.832,3.653,5.545,9.931,9.83,10.928a14.8,14.8,0,0,0,2.6.2c.986,0,2.72-.083,3.266-.64a.54.54,0,0,0,.169-.4,22.005,22.005,0,0,0-2.5-3.044,47.234,47.234,0,0,1-3.106-3.71,47.8,47.8,0,0,1-4.419-8.972,35.584,35.584,0,0,1-2.323-9.682c0-.046-.007-.1-.011-.152V202.2c-.074-1.056-.247-3.529.583-4.419a.976.976,0,0,1,.74-.323,1.4,1.4,0,0,1,.293.033c2.627,2.891,4.061,6.353,5.58,10.018a51.078,51.078,0,0,0,3.606,7.5C31.376,222.968,36.848,227,42.7,227a14.608,14.608,0,0,0,4.842-.868c-3.914-2.938-8.782-8.676-12.7-14.974a61.033,61.033,0,0,1-4.875-9.452,24.562,24.562,0,0,1-2-8.454,5.667,5.667,0,0,1,1.235-3.864,1.745,1.745,0,0,1,1.262-.573,2.766,2.766,0,0,1,1.79.854c.709.643,2.621,5.334,4.47,9.872v0c1.348,3.307,2.621,6.431,3.323,7.725,2.144,3.947,9.756,15.215,16.387,15.215a5.477,5.477,0,0,0,3.294-1.1,12.882,12.882,0,0,0,2.343-3.451c1.608-2.861,3.608-6.422,6.306-7.094a22.6,22.6,0,0,1-3.676-5.318,21.9,21.9,0,0,0-3.2-4.732,27.576,27.576,0,0,0-5.06-3.757c-3.256-2.022-6.068-3.767-8.269-10.265a24.641,24.641,0,0,1-1.051-5.426c-.145-1.795-.125-4.26.8-5.814a2.831,2.831,0,0,1,2-1.433.66.66,0,0,1,.114-.01c1.373,0,2.908,4.163,4.392,8.188a33.092,33.092,0,0,0,2.606,6.056,15.658,15.658,0,0,0,12.985,6.322A19.006,19.006,0,0,0,83.789,188.8c4.906-5.3,5.9-12.884,2.668-20.288a26.176,26.176,0,0,0-8.283-10.4,20.9,20.9,0,0,0-12.428-4.32Zm5.911,46.829a.336.336,0,0,0-.31.16c-.219.364.051,1.38.689,2.588.7,1.324,1.78,2.748,2.5,2.748a.464.464,0,0,0,.359-.166,5.4,5.4,0,0,0-.293-2.363,4.466,4.466,0,0,0-1.217-1.98A3.574,3.574,0,0,0,71.655,200.621Zm14.972-60.439h0a93.957,93.957,0,0,0,20.51,39.72,46.779,46.779,0,0,1,5.466-8.16c2.062-2.527,4.344-4.953,6.551-7.3l0,0c.649-.69,1.321-1.4,1.977-2.11a46.646,46.646,0,0,1-19.528-7.5,59.717,59.717,0,0,1-14.979-14.645Zm89.2,3.256c-1.15,1.1-2.228,2.3-3.269,3.459a48.2,48.2,0,0,1-4.233,4.336,52.6,52.6,0,0,1-6.911,4.591,36.919,36.919,0,0,0-6.607,4.509,2.807,2.807,0,0,0-1.076,2.365c.236,1.24,1.988,2.034,3.533,2.735a14.87,14.87,0,0,1,1.834.927,76.681,76.681,0,0,1,10.268,8.436l.6.552Zm-115.75-6.85a50.434,50.434,0,0,0-24.688,6.737,44.652,44.652,0,0,0-22.348,32.021,76.844,76.844,0,0,0,8.14-7.682c4.8-5.009,9.331-9.74,17.394-12.036a32.44,32.44,0,0,1,4.065-.776,21.739,21.739,0,0,0,5.566-1.314,17.47,17.47,0,0,0,3.652-2.475,17.878,17.878,0,0,1,5.478-3.374,24.557,24.557,0,0,1,7.763-1.154,30.467,30.467,0,0,1,10.443,1.793c.482.181,1.69.842,2.968,1.541a25.127,25.127,0,0,0,4.141,2.043.1.1,0,0,0,.062-.016,16.842,16.842,0,0,1-1.931-5.094c-.678-2.694-1.263-5.02-4.784-6.743A35.9,35.9,0,0,0,60.078,136.589Zm85.8,26.392L130.254,164.6a22.787,22.787,0,0,1,3.368,3.855c2.077,2.654,4.43,5.661,5.484,5.661a.427.427,0,0,0,.25-.074ZM82.122,109h0a2.641,2.641,0,0,1,1.613.52c1.233.9,1.689,4.759,2.091,8.162a40.754,40.754,0,0,0,.611,4.12c4.809,19.9,21.213,33.185,42.811,34.682,1.656.115,3.3.173,4.873.173,13.95,0,25-4.517,32.832-13.425C183.3,124.647,182.888,90.813,179.66,65.7c-1.966-15.287-5.666-28.132-11-38.178a.061.061,0,0,0-.035-.009,16.545,16.545,0,0,0-2.958,2.643c-.718.716-1.338,1.334-1.61,1.544a51.448,51.448,0,0,1-16.527,7.972,66.976,66.976,0,0,1-18.568,2.872c-.777,0-1.547-.019-2.288-.056-3.357-.168-7.588-1.294-11.679-2.383-4.28-1.139-8.322-2.215-11.272-2.215-.169,0-.334,0-.491.011-1.5.067-3.563,1.208-5.071,2.042l-.033.018-.45.248C92.541,43.017,90.238,46,88.879,51.6c-1.417,5.843-1.87,12.778-2.307,19.485-.31,4.75-.63,9.662-1.294,14.033a4.4,4.4,0,0,1-.806,2.184,2.519,2.519,0,0,1-2.079.852h0c-2.062,0-2.975-2.21-4.032-4.769-1.256-3.039-2.679-6.484-6.443-6.99a7.831,7.831,0,0,0-1.041-.07,10.264,10.264,0,0,0-8.934,6.292c-2.34,5.36-1.814,12.764,1.34,18.863,2.56,4.95,6.445,8.191,10.94,9.125a5.612,5.612,0,0,0,1.139.116,10.158,10.158,0,0,0,3.632-.857l.248-.095A8.615,8.615,0,0,1,82.122,109ZM193.85,85.388h0a2.564,2.564,0,0,1,2.5,1.391,3.23,3.23,0,0,1,.322,2.755c-.622,1.484-2.767,2.176-4.491,2.731a5.682,5.682,0,0,0-2.524,1.185c-.7,1-.819,3.746-.94,6.657-.133,3.2-.271,6.505-1.162,8.163,3.188-.206,6.167-2.406,8.388-6.195a25.149,25.149,0,0,0,3.275-12c.1-6.83-2.738-11.182-7.595-11.641-.188-.018-.371-.027-.545-.027a3,3,0,0,0-2.254.822c-1.239,1.255-1.208,3.783-1.181,6.013a20.768,20.768,0,0,1-.085,2.84C188.793,87,191.642,85.388,193.85,85.388ZM128.588,7.835A73.862,73.862,0,0,0,113.2,9.5C94.733,13.438,75.318,27.28,73.573,49.317a115.421,115.421,0,0,0,.384,11.7c.26,3.553.828,9.662,1.714,10.663a3.862,3.862,0,0,0,.942.344c1.114.34,2.979.908,3.489,1.733.151-2.176.238-4.453.323-6.656.243-6.3.494-12.814,2.2-18.589a25.863,25.863,0,0,1,3.84-8.026,22.448,22.448,0,0,1,7.12-6.322,19.113,19.113,0,0,1,9.859-2.789,38.071,38.071,0,0,1,9.394,1.579,53.363,53.363,0,0,0,9.247,1.754c1.688.13,3.444.2,5.217.2,12.557,0,24.548-3.191,32.074-8.536,1.2-.854,5.8-4.774,6.162-7a1.174,1.174,0,0,0-.172-.911A69.564,69.564,0,0,0,128.588,7.835Zm49.2,22.949,4.888,16.269,4.217,25.4c1.9-5.988,3.981-14.9,3.094-23.343C189.046,40.113,184.941,33.947,177.792,30.784Z" transform="translate(-19.017 -59.267)" fill="#020202" stroke="rgba(0,0,0,0)" stroke-miterlimit="10" stroke-width="1"/>
      <path id="Tracciato_501" data-name="Tracciato 501" d="M877.946,919.726l-1.9,12.586c-1.347,1.4-4.661,1.683-5.589-.215-.175-8.471.025-17.2.3-25.751.65-20.11,1.614-40.419,2.625-60.542.19-3.78.907-34.488,2.959-34.847,3.484-.61,4.676,6.341,4.885,8.782l-2.615,75.555,8.813,35.849c-5.7,9.474-9.259-6.7-9.484-11.418" transform="translate(-690.527 -687.729)" fill="#030303"/>
      <path id="Tracciato_583" data-name="Tracciato 583" d="M790.469,643.422c6.745,4.713,3.47,21.223-5.388,16.768-5.2-2.618-3.937-10.521-5.017-11.283-.27-.191-5.117.906-6.522-.284.21,3.106-.794,6.113.316,9.121,1.562,4.231,6.8,6.4,7.442,11.451,1.5,11.81-15.909,18.65-24.067,10.381-2.385-2.417-5.463-9.367-.817-10.661,3.166-.882,2.621,2.51,4.388,4.485,2.956,3.3,9.858,3.739,12.641.2,3.712-4.715-2.409-7.336-4.584-11.515-3.472-6.668-.764-9.325-.534-15.747.076-2.127-2.486-9.69,2.138-9.338,3.5.266.619,5.989,6.6,5.716,4.543-.208,13.037-8.914,19.647-9.675,3.707-.427,8.157,1.237,8.131,5.5-.032,5.4-5.708,1.418-8.015,1.725-2.435.324-4.03,2.641-6.36,3.156" transform="translate(-649.93 -625.664)" fill="#020202"/>
      <path id="Tracciato_584" data-name="Tracciato 584" d="M740.771,641.027c.8-.506.866-5.462,5.293-3.466,3.873,1.745,1.355,7.794-1.7,9.347-3.093,1.573-7.338.594-10.657.084-.621,21.391-22.062,10.841-10.424-4.55-2.746-.324-6.343-3.668-8.9-3.75-1.919-.061-5.565,3.559-7.068.478-1.441-2.954,2.707-6.466,5.38-7.01,7.267-1.478,24.313,11.252,28.077,8.867" transform="translate(-633.541 -625.336)" fill="#020202"/>
      <path id="Tracciato_585" data-name="Tracciato 585" d="M735.664,730.54c-2.043-1.278-.038-6.72,1.545-8.378,7.822-8.183,24.621-8.844,34.532-4.579,3.188,1.372,10.56,6.214,6.832,10.149-2.683,2.83-7.475-3.56-10.438-4.589-8.517-2.956-18.671-1.079-25.986,3.959-1.635,1.126-3.983,5-6.485,3.438" transform="translate(-643.231 -654.27)" fill="#030303"/>
      <path id="Tracciato_586" data-name="Tracciato 586" d="M666.007,658.991c3.3-1.105,8.164,1.266,9.717,4.428,1.383,2.816,2.982,11.124-.36,12.749-4.453,2.164-2.979-3.992-3.32-6.463-.849-6.146-5.664-4.013-6.785-6.234-.6-1.2-.754-3.976.749-4.48" transform="translate(-618.825 -634.64)" fill="#040404"/>
      <path id="Tracciato_587" data-name="Tracciato 587" d="M666.273,791.1c1.635-.26,5.292-.512,6.683.167a3.113,3.113,0,0,1,.667,4.582,64.012,64.012,0,0,1-8.862,2.85c-11.005,1.446-7.381-6.185,1.511-7.6" transform="translate(-616.421 -680.721)" fill="#040404"/>
    </g>
  </g>
</svg>
