<svg xmlns="http://www.w3.org/2000/svg" xmlns:xlink="http://www.w3.org/1999/xlink" width="350" height="350" viewBox="0 0 350 350">
  <defs>
    <clipPath id="clip-Tavola_da_disegno_17">
      <rect width="350" height="350"/>
    </clipPath>
  </defs>
  <g id="Tavola_da_disegno_17" data-name="Tavola da disegno – 17" clip-path="url(#clip-Tavola_da_disegno_17)">
    <path id="Unione_16" data-name="Unione 16" d="M96.081,298.036c-3.014,0-3.04-2.323-3.054-3.571a1.485,1.485,0,0,0-.085-.708c-.033-.035-.126-.053-.275-.053a48.475,48.475,0,0,0-5.8,1.073,52.68,52.68,0,0,1-6.231,1.146l-.364,0c-7.487,0-15.452-2.635-23.673-7.834a98.352,98.352,0,0,1-19.205-16.416,6.184,6.184,0,0,1-.985-1.652,5.554,5.554,0,0,0-1.155-1.824c-.823-.764-3.81-2.042-6.7-3.278a64.125,64.125,0,0,1-6.14-2.851,40.5,40.5,0,0,1-10.274-8.185,24.579,24.579,0,0,1-5.609-11.736,12.012,12.012,0,0,1-.03-2.49,6.059,6.059,0,0,0-.155-2.589,2.529,2.529,0,0,0-.837-.434c-1.275-.532-3.65-1.523-4.364-3.842a10.305,10.305,0,0,1-.332-5.29,15.167,15.167,0,0,1,1.494-3.775,8.915,8.915,0,0,0,1.209-3.363c.043-.7-.7-1.665-1.481-2.689a8.995,8.995,0,0,1-1.757-2.947,10.2,10.2,0,0,1,1.348-7.883,24.806,24.806,0,0,1,5.594-5.933,14.965,14.965,0,0,1,2.018-1.229c1.634-.894,3.485-1.908,3.518-2.983L5.746,160.152c-.082-2.038.153-4.809,1.082-5.911.477-.564,3.148-1.133,7.942-1.694,3.943-.461,8.312-.8,10.923-1,.643-.05,1.151-.09,1.512-.12,9.834-.831,19.873-1.335,29.581-1.823,9.216-.463,18.746-.941,28.087-1.7,2.36.281,4.017,1.795,5.064,4.625A36.343,36.343,0,0,1,91.47,160.9a36.8,36.8,0,0,0,.779,5.239,50.258,50.258,0,0,1,4.909-3.67c2.747-1.922,5.587-3.908,6.042-4.738.543-.991-.855-2.647-1.979-3.978a14.018,14.018,0,0,1-1.111-1.42c-16.861-27.425-12.376-58.818-8.038-89.177.531-3.715,1.08-7.557,1.575-11.3a.778.778,0,0,0-.459-.11,7.88,7.88,0,0,0-1.595.293l-.395.1a11.569,11.569,0,0,1-2.659.389,4.206,4.206,0,0,1-4.2-2.959,11.294,11.294,0,0,1-.247-6.467,29.253,29.253,0,0,1,2.9-7.622A41.732,41.732,0,0,1,94.3,25.613c2.979-2.933,5.916-4.777,8.491-5.333a15.865,15.865,0,0,1-2.312-4.389,5.821,5.821,0,0,1-.134-3.353,6.892,6.892,0,0,1,3-3.655,34.727,34.727,0,0,1,5.784-2.954,70.125,70.125,0,0,1,15.988-4.411A119.015,119.015,0,0,1,144.511,0a132.953,132.953,0,0,1,18.331,1.261,109.3,109.3,0,0,1,17.587,3.882,71.088,71.088,0,0,1,15.209,6.65,40.45,40.45,0,0,1,11.2,9.566,53.13,53.13,0,0,1,3.169,5.463,28.034,28.034,0,0,0,2.661,4.5,7.547,7.547,0,0,0,2.074.581,13.713,13.713,0,0,1,3.138.885,26.981,26.981,0,0,1,9.7,7.844,30.018,30.018,0,0,1,5.09,10.643c2.366,8.917,1.238,18.209-.125,24.434-.261,1.192-1.119,3.605-2.029,6.161-1.183,3.323-2.405,6.758-2.3,7.514.048.333.566.882,1.284,1.643,1.58,1.675,4.225,4.478,4.715,8.207a29.939,29.939,0,0,1-1.32,12.887,33.866,33.866,0,0,1-6.487,11.7,26.538,26.538,0,0,1-7.643,6.215,21.035,21.035,0,0,1-9.467,2.51h-.055a6.353,6.353,0,0,1-1.852-.393c-.2-.067-.384-.133-.547-.192a3.265,3.265,0,0,0-.65-.2.053.053,0,0,0-.038.01,14.653,14.653,0,0,0-.852,3.248c-.541,2.551-1.215,5.725-1.967,6.567a116.083,116.083,0,0,1,19.316,5.061,85.542,85.542,0,0,1,16.918,8.265,75.041,75.041,0,0,1,14.362,11.943,82.3,82.3,0,0,1,11.647,16.093,203.235,203.235,0,0,1,11.271,25.334c4.162,11.14,6.74,20.481,7.258,26.3.223,2.5.309,4.51-.759,5.767-.753.885-2.048,1.369-4.077,1.522,1.681,5.53,4.482,16.411,4.375,27.137a40.752,40.752,0,0,1-2.213,13.659,21.3,21.3,0,0,1-7.555,10.261,19.272,19.272,0,0,1-6.376,2.9,29.088,29.088,0,0,1-7.248.846c-8.449,0-17.528-2.8-24.823-5.048l-.6-.186c-.99-.3-2.4-.924-3.884-1.578-2.512-1.105-5.358-2.357-6.832-2.357h-.05a8.952,8.952,0,0,0-3.059,1.106,14.8,14.8,0,0,1-4.656,1.628c-.332.033-.69.05-1.063.05a29.684,29.684,0,0,1-5.477-.711l-.379-.074a25.846,25.846,0,0,0-4.469-.637,4.66,4.66,0,0,0-1.085.109c-1.234.295-2.924,1.846-4.712,3.487A22.284,22.284,0,0,1,194.69,296a13.46,13.46,0,0,1-5.682,1.39,8.482,8.482,0,0,1-5-1.528,7.783,7.783,0,0,1-2.246-3.074,1.925,1.925,0,0,0-.232-.434.143.143,0,0,0-.087-.022,4.784,4.784,0,0,0-1.24.487c-.415.194-.93.435-1.507.674a13.444,13.444,0,0,1-5.139,1.161,7.394,7.394,0,0,1-6.8-3.653,4.831,4.831,0,0,0-1.545-1.686,6.632,6.632,0,0,0-2.624-.544,12.133,12.133,0,0,0-2.064.225l-.045.008a11.364,11.364,0,0,1-1.934.218c-1.39,0-3.17-.42-5.825-3.532a9.491,9.491,0,0,1-1.063-1.81,5.217,5.217,0,0,0-1.744-2.4,11.339,11.339,0,0,0-3.872-.844,11.335,11.335,0,0,1-3.926-.864,8.253,8.253,0,0,1-3.6-3.754,11.666,11.666,0,0,1-.564-9.474c1.912-5.862,7.15-11.373,11.206-14.965a67.457,67.457,0,0,1,14.338-9.833,42.045,42.045,0,0,1,10-3.256,55.618,55.618,0,0,1,10.746-1.006,70.613,70.613,0,0,1,20.117,3.027,67.047,67.047,0,0,1,6.735,2.582c4.228,1.8,8.6,3.655,13.345,3.682a97.373,97.373,0,0,0-2.581-16.245c-.87-4-1.77-8.137-2.248-12.239-.228-1.968-.544-4.917-.641-7.792-.119-3.552.13-6.027.74-7.355a3.115,3.115,0,0,1,1.56-1.806c2.113.747,2.9,1.9,3.694,3.9,1.049,2.645,2.444,11.445,3.793,19.956,1.369,8.639,2.663,16.8,3.429,17.383l43.3-7.673c.74-1.026-1.593-9.448-2.472-12.619-.105-.379-.188-.678-.249-.9-7.124-26.327-18.893-54.9-52.173-67.177-2.138-.788-13.075-4.721-18.473-4.721a5.154,5.154,0,0,0-2.117.346c-1.927.9-3.03,6.047-4,10.583a45.249,45.249,0,0,1-1.449,5.713,41.349,41.349,0,0,1-5.772,10.263,42.893,42.893,0,0,1-8.241,8.2,38.4,38.4,0,0,1-9.862,5.433,30.821,30.821,0,0,1-10.635,1.967c-8.6,0-16.234-3.974-22.065-11.491a34.257,34.257,0,0,1-2.9-5.553,13.3,13.3,0,0,0-.791-1.634,48.27,48.27,0,0,0-6.569-1.823c-2.686-.66-5.464-1.341-6.414-1.709a28.464,28.464,0,0,1-6.321-3.621c-2.03-1.431-3.784-2.668-5.849-2.668-2.086,0-4.439,1.282-7.4,4.033-1.588,1.475-6.071,7.009-6.51,8.929-1.1,4.821,1.093,11.65,3.215,18.253,1.354,4.211,2.632,8.186,2.971,11.4l3.835-13.337a4.965,4.965,0,0,1,2.347-.783,1.869,1.869,0,0,1,1.426.608c1.435,1.544,1.111,5.751.9,8.534v0c-.031.4-.06.778-.082,1.116-.168,2.641-.6,5.322-1.054,8.16-1.077,6.708-2.191,13.645.447,19.807a44.925,44.925,0,0,0,3.6,6.361c2.2,3.446,4.109,6.421,3.007,8.5-1.012,1.913-4.482,2.9-10.92,3.1a270.706,270.706,0,0,1-2.909,36.715c-.066.418-.132.9-.209,1.455a40.02,40.02,0,0,1-1.528,7.422,9.151,9.151,0,0,1-1.621,3.024,3.314,3.314,0,0,1-2.516,1.239Zm103.984-30.768a3.511,3.511,0,0,1,2.592,1.806,2.929,2.929,0,0,1,.186,2.75c-.748,1.542-3.343,3.194-6.348,5.107a47.973,47.973,0,0,0-7.218,5.239c-2.284,2.192-3.212,4.257-2.837,6.313.244,1.333.95,2.009,2.1,2.009,2.622,0,6.954-3.439,9.542-5.493.81-.643,1.448-1.149,1.792-1.357a10.318,10.318,0,0,1,5.392-1.73,14.2,14.2,0,0,1,3.762.656l.2.055a16.277,16.277,0,0,0,4.448.711c.419,0,.847-.021,1.274-.064a13.552,13.552,0,0,0,4.192-1.412,12.162,12.162,0,0,1,4.927-1.48h.1c4.606,0,10.707,2.326,16.606,4.574,5.006,1.908,10.183,3.881,14.422,4.424a33.132,33.132,0,0,0,4.182.283c5.741,0,10.09-1.817,12.925-5.4,6.844-8.648,3.909-25.67.587-39.533l-35.1,4.867c.241,1.143,1.074,1.237,1.956,1.337.164.018.333.037.5.064.581.092,1.314.188,2.164.3a70.816,70.816,0,0,1,9.589,1.74,17.924,17.924,0,0,1,4.255,1.7,4.915,4.915,0,0,1,2.336,2.529,3.841,3.841,0,0,1,.255,2.223A2.551,2.551,0,0,1,257.3,261a3.817,3.817,0,0,1-1.594.269c-2.864,0-7.8-1.547-11.765-2.791-1.759-.552-3.277-1.027-4.3-1.268-2.784-.654-5.627-1.242-8.378-1.811-3.683-.762-7.492-1.55-11.2-2.5-3.643-.938-7.226-1.992-10.691-3.013h0c-9.385-2.764-18.249-5.373-27.085-5.373-9.9,0-18.409,3.283-26.766,10.331a57.678,57.678,0,0,0-6.935,7.308c-2.226,2.816-4.8,6.763-4.408,9.565a3.5,3.5,0,0,0,2.227,2.771,2.737,2.737,0,0,0,1.135.25c2.95,0,5.917-4.835,8.083-8.365a33.528,33.528,0,0,1,2.031-3.091,63.949,63.949,0,0,1,8.033-7.631c2.959-2.4,6.985-5.257,9.358-5.257a2.5,2.5,0,0,1,.373.027,4.539,4.539,0,0,1,2.865,2.2,2.012,2.012,0,0,1,.135,1.86c-.5,1.034-3.719,3.224-6.828,5.342a55.631,55.631,0,0,0-5.182,3.771,51.389,51.389,0,0,0-5.92,7.042c-1.741,2.486-3.75,5.877-3.432,7.906.172,1.089,2.137,3.661,3.186,3.929a1.675,1.675,0,0,0,.416.052c2.216,0,4.705-4.26,6.523-7.37a29.169,29.169,0,0,1,1.724-2.756,77.889,77.889,0,0,1,9.166-8.781c2.8-2.329,7.835-6.239,10.151-6.255h.034a3.082,3.082,0,0,1,2.716,1.331,3.667,3.667,0,0,1,.054,3.508c-.523,1.144-3.85,3.424-7.068,5.63a55.048,55.048,0,0,0-5.234,3.841,42.077,42.077,0,0,0-5.03,6.1c-1.569,2.319-3.334,5.526-2.829,7.629a2.662,2.662,0,0,0,2.042,1.941,3.657,3.657,0,0,0,1.025.146c3.271,0,6.593-4.3,9.262-7.75a34.12,34.12,0,0,1,2.926-3.5c1.849-1.751,11.881-8.969,13.885-8.969C200.023,267.265,200.045,267.266,200.065,267.267Zm-181.6-32.7c-3.222,1.927-4.94,4.233-5.107,6.855-.309,4.875,4.78,9.634,7.842,12.037a39.415,39.415,0,0,0,9.442,4.969c3.709,1.54,7.544,3.133,10.542,5.955,2.732,2.571,4.844,4.883,6.886,7.118,5.186,5.675,9.282,10.159,19.569,14.182a40.526,40.526,0,0,0,13.751,2.709c4.334,0,10-1.05,12.4-6.053,2.283-4.76,2.584-12.032,2.875-19.064a79.334,79.334,0,0,1,1.192-12.986L82.4,252.4c-.122.174.422,1.186,1.174,2.586,1.593,2.966,4,7.447,2.955,9.188a1.7,1.7,0,0,1-1.586.714,4.89,4.89,0,0,1-.682-.052,5.67,5.67,0,0,1-3.117-2.145,41.44,41.44,0,0,1-2.987-4.039c-1.657-2.433-3.223-4.732-4.555-4.861L37.885,259.27c-1.43-.439-2.4-2.705-3.336-4.9A13.213,13.213,0,0,0,32.5,250.6a7.588,7.588,0,0,0-3.1-1.5,6.009,6.009,0,0,1-2.373-1.1,2.78,2.78,0,0,1-.847-2.038c.033-1.562,1.316-3.1,2.386-4.121a17.289,17.289,0,0,1,5.256-2.817,18.19,18.19,0,0,0,4.932-2.564,3.8,3.8,0,0,0,1.138-4.445c-.567-1.711-2.243-2.579-4.979-2.579C29.313,229.436,20.993,233.057,18.468,234.567Zm-4.984-74.736,5.549,34.654a40.621,40.621,0,0,1,11.1,1.677,12.848,12.848,0,0,1,4.742,2.721,8.179,8.179,0,0,1,2.471,4.816,13.663,13.663,0,0,1-.213,3.834,8.085,8.085,0,0,0-.146,2.814A7.019,7.019,0,0,0,39,213.085c1.269,1.279,2.707,2.728,3.04,4.933a6.949,6.949,0,0,1-.2,2.571,5.185,5.185,0,0,0-.116,2.545,6.539,6.539,0,0,0,1.723,2.081,12.372,12.372,0,0,1,1.569,1.7,13.755,13.755,0,0,1,2.373,6.911,9.215,9.215,0,0,1-2.246,6.812,8.71,8.71,0,0,1-4.253,2.4,4.207,4.207,0,0,0-2.526,1.415c-.517.836-.451,2.208.207,4.319.652,2.09,2.176,3.064,4.8,3.064a26.128,26.128,0,0,0,4.551-.571c.84-.155,1.632-.3,2.37-.392,9.831-1.216,19.755-3.153,29.352-5.028,8.726-1.7,17.745-3.465,26.667-4.679a153.037,153.037,0,0,1-6.793-15.927c-1.852-5.085-3.548-10.451-5.183-16.406-3.038-11.062-5.4-22.536-7.687-33.633v0c-1.366-6.631-2.778-13.487-4.321-20.194ZM10.133,223.25a8.81,8.81,0,0,0-2.27,7.4c.108,0,.225.005.368.005,3.553,0,6.841-1.506,10.02-2.962,1.371-.628,2.788-1.277,4.193-1.787.7-.254,1.886-.568,3.261-.931,3.77-1,8.933-2.363,9.472-3.906a4.328,4.328,0,0,0-.229-3.581,4.416,4.416,0,0,0-2.975-2.112,12.568,12.568,0,0,0-2.705-.264C23.356,215.114,14.359,218.225,10.133,223.25Zm8.257-21.016a20.178,20.178,0,0,0-7.585,4.681c-1.668,1.583-4.359,4.677-3.642,7.606,3.46-.834,21.821-6.019,22.87-7.7a2.53,2.53,0,0,0,.348-2.645c-1.195-2.147-6.395-2.314-7.961-2.314A18.582,18.582,0,0,0,18.39,202.233Zm126.117-25.1a39.055,39.055,0,0,0,5.88,4.3,22.55,22.55,0,0,0,10.928,2.851c12.345,0,24.624-10.433,27.954-23.75A83.638,83.638,0,0,1,170.9,170.888a55.6,55.6,0,0,1-20.5,4.174,46.341,46.341,0,0,1-6.818-.5A3.307,3.307,0,0,0,144.507,177.136ZM115.555,46.519c-5.83.9-12.437,1.917-13.8,3.95a12.082,12.082,0,0,0-1.124,3.461v.008c-.068.3-.131.579-.192.826-6.028,24.348-8.03,69.362,3.892,90.554,8.04,14.291,24.255,22.823,43.374,22.823,16.662,0,32.194-6.653,41.548-17.8,6.163-7.342,9-15.532,12.073-25.475a24.431,24.431,0,0,1,2.891-.149c.892,0,1.8.031,2.675.061h.007c.878.03,1.783.061,2.67.061a20.989,20.989,0,0,0,4.354-.382c2.764-.58,5.6-2.737,7.988-6.074a29.518,29.518,0,0,0,4.756-11.037c1.352-6.622.014-11.89-3.67-14.453a9.114,9.114,0,0,0-5.239-1.871c-2.947,0-5.406,1.835-7.874,3.879l-.411.342-.006,0c-2.184,1.816-4.247,3.532-6.488,3.532-1.633,0-3.221-.921-4.858-2.817a29.6,29.6,0,0,1-5-8.929,64.762,64.762,0,0,1-2.99-11.3,114.185,114.185,0,0,1-1.591-22.162,15.734,15.734,0,0,1,.342-2.148c.406-2.038.91-4.573-.03-5.26a2.936,2.936,0,0,0-1.736-.434c-2.455,0-6.313,1.49-9.413,2.688-1.473.569-2.744,1.06-3.593,1.284a148.531,148.531,0,0,1-35.323,4.585c-2.7,0-5.239-.1-7.556-.307-3.3-.29-5.179-.98-6.276-2.307-1.117-1.35-1.441-3.394-1.083-6.835A48.981,48.981,0,0,1,115.555,46.519ZM53.521,224.733c-2.493-2.143-2.976-11.159-3.943-14.994-1.972-7.814-9.195-27.8-7.124-34.7a2.445,2.445,0,0,1,1.3-1.5c2.707-1.547,20.794-3.118,23.907-2.172,2.894.88,3.576,4.058,2.407,6.682-1.9,4.278-15.163,2.061-19.316,3.526l3.615,11.813c1.411.3,3.779.011,6.346-.277,5.141-.576,11.077-1.152,11.708,2.982,1.308,8.569-13.627,4.443-15.034,6.466-2.538,3.649,4.969,17.789,1.855,22.183a2.972,2.972,0,0,1-2.506,1.352A5.176,5.176,0,0,1,53.521,224.733Zm98.067-81.661a24.285,24.285,0,0,0-15.762-.432c-2.706.879-12.627,7.94-11.924.058.709-7.952,18.254-9.531,24.181-8.752,4.319.567,15.522,5.558,16.468,10.273.195.976-.037,3.885-.688,4.292a2.708,2.708,0,0,1-1.466.4C159.034,148.906,154.114,144.113,151.588,143.071Zm-29.407-20.46c-5.77-9.494,5.7-17.792,9.107-25.867a2.9,2.9,0,0,1,1.528-1.311c4.045-1.218,4.972,2.346,4.267,5.687-.9,4.257-15.362,17.274-5.652,19.309a15.711,15.711,0,0,0,3.981-.227c4.139-.509,9.133-1.019,6.4,4.573-1.006,2.063-3.857,2.962-7.112,2.962C129.844,127.738,124.079,125.736,122.18,122.611Zm86.969-8.536c-6.435-6.3,10.432-20.776,13.527-14.551,2.864,5.761-3.988,5.39-5.787,7.2-.991,1-3.354,8.084-6.194,8.085A2.211,2.211,0,0,1,209.15,114.075Zm-50.434-6.138c-6.572-1.227-6.644-17.857,2.207-18,4.4-.069,6.483,4.5,6.309,9.065-.172,4.533-2.566,9.065-7.12,9.066A7.6,7.6,0,0,1,158.715,107.937ZM118.6,105.5c-9.538-.255-6.624-16.545.18-17.786,4.629-.844,6.949,4,6.806,8.846-.132,4.472-2.361,8.943-6.807,8.943Zm32.155-35.92c-.59-2.543-.106-5.171,2.283-6.553,3.658-2.117,5.568,4.168,7.655,6.106,4.864,4.519,12.414,3.4,17.278,6.26,3.514,2.07,4.544,6.541-.348,7.265a7.024,7.024,0,0,1-1.019.067C169.767,82.724,152.106,75.413,150.752,69.579Zm-46.2,8.178c-4.229-5.112,9.286-6.633,11.871-7.759,3.014-1.312,7.574-6.325,9.379-6.829,2.3-.643,5.065,2.329,5.067,4.454,0,3.2-6.4,7.2-9.1,8.405-2.613,1.161-8.459,3.219-12.776,3.219C107.064,79.247,105.444,78.838,104.55,77.757Z" transform="translate(32.873 25.982)" fill="#080808" stroke="rgba(0,0,0,0)" stroke-miterlimit="10" stroke-width="1"/>
  </g>
</svg>
