<svg xmlns="http://www.w3.org/2000/svg" xmlns:xlink="http://www.w3.org/1999/xlink" width="350" height="350" viewBox="0 0 350 350">
  <defs>
    <clipPath id="clip-Tavola_da_disegno_18">
      <rect width="350" height="350"/>
    </clipPath>
  </defs>
  <g id="Tavola_da_disegno_18" data-name="Tavola da disegno – 18" clip-path="url(#clip-Tavola_da_disegno_18)">
    <path id="Unione_17" data-name="Unione 17" d="M97.333,306.289c-4.041-.918-6.282-2.409-6.66-4.43-.973-5.2.274-11.243,1.48-17.087.52-2.521,1.012-4.9,1.308-7.138a20.825,20.825,0,0,1-6.292,1.193A6.828,6.828,0,0,1,82,276.938c-1.251-1.282-2.025-3.242-2.366-5.991a54.159,54.159,0,0,1-.173-7.715c.109-4.505.212-8.761-1.746-10.257-1.726-1.319-4.475-1.338-7.385-1.359-3.391-.024-6.9-.049-8.927-2.208-1.32-1.4-1.881-3.556-1.715-6.58.2-3.706,3.026-6.448,5.293-8.652,1.569-1.524,2.923-2.84,3.038-4.087.1-1.11-.8-2.388-1.681-3.624a8.833,8.833,0,0,1-1.536-2.74,20.245,20.245,0,0,1-.124-8.689,16.921,16.921,0,0,1,3.279-7.03,15.072,15.072,0,0,1,5.227-4.188,15.526,15.526,0,0,1,6.831-1.534,19.4,19.4,0,0,1,6.969,1.362,10.12,10.12,0,0,1,3.688,2.331,8.873,8.873,0,0,1,1.976,3.159,25.11,25.11,0,0,1,1.1,7.655c.118,2.818.24,5.732,1.324,8.077,1.213,2.624,3.539,4.267,7.11,5.024a134.273,134.273,0,0,0,4.356-13.612c.534-1.9,1.086-3.863,1.664-5.776a12.157,12.157,0,0,1,1.028-2.176,7.575,7.575,0,0,0,.955-2.174,51.384,51.384,0,0,0-.769-5.917c-.425-2.554-.966-5.347-1.208-5.528a14.572,14.572,0,0,0-3.893,3c-1.872,1.777-3.808,3.613-5.86,3.613a3.9,3.9,0,0,1-2.527-1.006c-1.975-1.628-4.01-7.022-5.046-10.092a71.5,71.5,0,0,1-2.954-11.419,33.884,33.884,0,0,1-.035-3.455,15.665,15.665,0,0,0-.131-3.761,3.185,3.185,0,0,0-.7-.19,9.894,9.894,0,0,1-2.264-.7,28.237,28.237,0,0,1-4.2-3.05c-2.323-1.921-4.517-3.736-7.765-3.736a10.137,10.137,0,0,0-1.888.187c-25.409,4.847-36.908,27.3-43.347,43.775-10.631,27.192-15.748,55.991-20.161,90.867-1.693,2.316-3.169,3.49-4.387,3.49a1.873,1.873,0,0,1-1.385-.638c-1.192-1.252-1.818-4.377-1.633-8.156.6-12.17,3.532-27.555,5.889-38.318,2.912-13.3,6.584-27.063,10.074-37.77a185.98,185.98,0,0,1,7.458-19.615,95.678,95.678,0,0,1,10.094-17.533,67.812,67.812,0,0,1,6.436-7.512,58.765,58.765,0,0,1,7.575-6.423,56.4,56.4,0,0,1,8.875-5.145,60.959,60.959,0,0,1,10.335-3.678c-1.23-2.513-2.681-4.965-4.085-7.337a77.689,77.689,0,0,1-5.387-10.235,83.061,83.061,0,0,1-4.047-13.309,120.907,120.907,0,0,1-2.182-14.191A199.812,199.812,0,0,1,50.579,84a34.655,34.655,0,0,1,.738-4.946,24.67,24.67,0,0,0,.721-6.982,12.4,12.4,0,0,0-1.645-4.387,18.35,18.35,0,0,1-1.4-3.122c-2.3-7.555-1.734-17.133,1.511-25.622a36.771,36.771,0,0,1,6.7-11.312,25.344,25.344,0,0,1,10.27-7.207A15.506,15.506,0,0,1,64.7,15.15a6.443,6.443,0,0,1,.168-4.066c.981-2.453,3.65-4.377,8.156-5.883A79.181,79.181,0,0,1,84.863,2.6c.5-.082.969-.16,1.43-.238A181.572,181.572,0,0,1,115.74,0a128.328,128.328,0,0,1,30.336,3.212c10.38,2.556,18.207,6.576,23.263,11.951a26.946,26.946,0,0,1,3.3,5.265,17.115,17.115,0,0,0,2.526,4.013,11.124,11.124,0,0,0,3.467,1.381,18.682,18.682,0,0,1,2.923,1.017,23.764,23.764,0,0,1,8.412,7.011,29,29,0,0,1,4.536,9.47c1.651,5.791,2.151,12.706,1.571,21.762a81.222,81.222,0,0,1-1.614,8.949c-.88,4.131-1.788,8.4-1.565,9.76a9.28,9.28,0,0,0,2.142,2.329c1.63,1.526,3.657,3.425,4.431,5.022a25.081,25.081,0,0,1,1.943,13.938A35.062,35.062,0,0,1,196.4,119.27a27.053,27.053,0,0,1-7.735,8.19,18.341,18.341,0,0,1-10.293,3.229,18.976,18.976,0,0,1-4.805-.634c.435,2.585-1.474,6.712-3.32,10.7-1.875,4.055-3.646,7.886-2.943,9.934.266.774.868,1.02,1.692,1.149,5.591,1.13,10.535,2.295,15.114,3.562a132.923,132.923,0,0,1,13.209,4.349,78.175,78.175,0,0,1,21.333,12.133,67.889,67.889,0,0,1,15.609,18.49c4.359,7.409,8.007,16.237,11.151,26.987,1.518,5.189,3.118,11.579,4.629,18.481,1.6,7.294,3.053,15,4.214,22.287,1.3,8.133,2.218,15.648,2.741,22.337A114.593,114.593,0,0,1,257.2,299.1c-.274,3.011-1.294,4.669-2.871,4.67-1.189,0-2.592-.943-4.056-2.727-.183-2.1-.366-4.242-.544-6.316v-.015c-2.472-28.855-5.028-58.691-15.031-85.608-11.915-32.062-33.716-42.672-65.028-49.4-.964,2.24-1.741,4.669-2.493,7.018-.729,2.278-1.483,4.632-2.421,6.884a81.179,81.179,0,0,1-7.712,14.048,58.725,58.725,0,0,1-10.516,11.993c-2.175,1.8-3.907,2.636-5.45,2.636-2.211,0-3.754-1.725-5.707-3.909a35.251,35.251,0,0,0-3.614-3.646c-.469,0-2.278,2.237-3.814,4.331a31.945,31.945,0,0,0-3.392,5.31c-1.286,5.093-.589,12.146.083,18.966.606,6.144,1.232,12.5.419,17.434-.059,7.466.641,15.564,1.381,24.137,1.077,12.484,2.192,25.393.791,36.3-.25,1.951-1.825,3.458-4.68,4.478a30.324,30.324,0,0,1-7.038,1.369c-1.373.131-3.838.271-6.641.271A55.808,55.808,0,0,1,97.333,306.289ZM144.181,169.7a64.267,64.267,0,0,1-21.908,7.452c-.035.046-.032.125.008.235.431,1.177,5.017,5.7,8.814,9.207,4.046,3.742,8.567,7.624,9.38,7.8a1.719,1.719,0,0,0,.364.039c.985,0,2.283-.784,3.858-2.329a43.051,43.051,0,0,0,4.465-5.38,104.726,104.726,0,0,0,6.5-10.27c3.657-6.818,6.995-14.093,6.653-21.1A75.067,75.067,0,0,1,144.181,169.7Zm-46.106,19.6c.34.856.69,1.738,1.021,2.6a.278.278,0,0,0,.169.047c.921,0,4.118-2.663,4.749-3.2,1.416-1.2,8.978-8.521,9.487-9.487.451-.856.531-1.207-.354-1.777-1.415-.912-5.85-1.551-10.14-2.169a53.68,53.68,0,0,1-8.835-1.682C94.051,179.153,96.1,184.307,98.075,189.291ZM76.288,33.062c-1.279.175-5.6,4.628-6.693,6.008-6.882,8.72-11.272,26.174-12.044,47.888-.694,19.532,1.773,39.117,6.285,49.9,8.469,20.233,28.572,33.307,51.216,33.308h0c21.571,0,39.549-11.4,48.09-30.494.53-1.183,1.274-3.606,2.062-6.172,1.251-4.072,2.669-8.689,3.611-9.583a3.645,3.645,0,0,1,2.67-.808c.77,0,1.645.092,2.57.19l.262.028a31.786,31.786,0,0,0,3.335.217,12.755,12.755,0,0,0,8.555-2.964c7.554-6.221,9.774-18.357,7.109-25.789-1.6-4.457-4.766-6.912-8.92-6.912a15.147,15.147,0,0,0-5.719,1.276,16.6,16.6,0,0,0-5.348,4.231c-1.471,1.543-2.742,2.875-4.042,2.876-1.6,0-3.11-2.033-4.882-6.594-2.794-7.193-4.6-19.579-4.932-28.1a67.664,67.664,0,0,1,.334-7.832c.433-5.43.881-11.043-1.084-15.31-1.249-2.713-2.943-3.976-5.329-3.976a18.45,18.45,0,0,0-5.683,1.361,33.056,33.056,0,0,1-4.24,1.262,129.285,129.285,0,0,1-25.294,2.5,125.665,125.665,0,0,1-21.923-1.914c-1.564-.278-4.4-1.052-7.4-1.871-4.727-1.291-10.081-2.753-12.173-2.752A3,3,0,0,0,76.288,33.062ZM191.137,297.648c-.971-11.057-.1-22.724-.721-33.713-.434-7.7-2.425-15.48-2.833-23.168-.149-2.784-.684-17.144,1.839-17.927,2.6-.806,3.823,3.722,4.3,5.458,3.835,13.819,3.439,34.354,4.431,48.975.426,6.273,2.3,14.234,2.123,20.346-.15,5.25-2.306,8.138-4.5,8.138C193.72,305.757,191.624,303.2,191.137,297.648Zm-154.891,5.3c-3.379-.5-3.3-4.15-3.238-6.729.583-24.452,3.786-59.218,10.076-82.686.6-2.229,2.39-9.7,4.5-10.3a2.851,2.851,0,0,1,3.373,1.316c1.865,3.835-2.218,17.432-2.958,22.339-3.1,20.555-5.434,41.626-7.224,62.346-.3,3.492,1.639,13.773-3.805,13.773A5,5,0,0,1,36.246,302.95ZM136.818,232.8c12.034-3.56,17.725,16.606,5.506,17.459-.309.022-.611.032-.9.032C130.092,250.3,130.8,234.585,136.818,232.8ZM118.576,150.97c-2.685-.422-5.863-2.582-8.619-2.675a28.108,28.108,0,0,0-6.667,1.223c-6.534,1.646-14.039,3.293-13.635-6.918.4-10.048,11.017-14.248,19.74-14.384,9.035-.142,20.471,4.19,23.22,13.64,2.134,7.336-3.78,9.457-9.731,9.457A28.086,28.086,0,0,1,118.576,150.97ZM86.994,116.5c-4.672-8.2,2.351-15.473,6.033-22.371,1.194-2.236,3.059-9.009,5.148-9.635,3.38-1.013,4.973,1.7,4.662,4.676-.671,6.432-10.469,17.66-10.1,21.534.347,3.609,4.583,3.209,8.733,2.809s8.239-.8,8.221,2.841c-.017,3.4-5.088,5.383-10.525,5.383C94.266,121.739,89.063,120.129,86.994,116.5Zm89.367-5.764c-5.633-3.333,6.071-21.244,12.48-14.942,3.854,3.791-4.6,5.719-6.069,7.989-1.291,2-.942,7.772-4.023,7.773A4.865,4.865,0,0,1,176.362,110.736ZM126.981,78.2c11.549-3.443,11.093,18.076,3.344,19.523a7.894,7.894,0,0,1-1.449.14C119.814,97.867,120.742,80.064,126.981,78.2ZM80.614,77.5c11.051-3.329,11.4,17.212,3.351,18.813a8.321,8.321,0,0,1-1.622.168C73.307,96.478,74.4,79.367,80.614,77.5Zm50.776-13.131c-3.177-1.133-8.247-1.179-10.51-2.137s-2.879-4.86-1.251-6.495c4.259-4.274,26.526,4.091,29.249,9.41,1.074,2.1,1.612,6.453-1.116,7.19a1.846,1.846,0,0,1-.48.057C143.933,72.391,135.037,65.666,131.391,64.365Zm-64.3,3.144C64.1,61.448,81.215,54.893,85.565,54.347c2.259-.284,5.121-.79,6.535,1.526,3.935,6.445-8.082,6.728-11.661,8.1-2.457.942-7.264,5.353-10.606,5.353A2.891,2.891,0,0,1,67.094,67.509Z" transform="translate(46.255 21.338)" fill="#070707" stroke="rgba(0,0,0,0)" stroke-miterlimit="10" stroke-width="1"/>
  </g>
</svg>
