<svg xmlns="http://www.w3.org/2000/svg" xmlns:xlink="http://www.w3.org/1999/xlink" width="350" height="350" viewBox="0 0 350 350">
  <defs>
    <clipPath id="clip-Tavola_da_disegno_16">
      <rect width="350" height="350"/>
    </clipPath>
  </defs>
  <g id="Tavola_da_disegno_16" data-name="Tavola da disegno – 16" clip-path="url(#clip-Tavola_da_disegno_16)">
    <path id="Unione_15" data-name="Unione 15" d="M21374.563,23427.105c-7.006-.625-11.582-2.545-14.834-6.238-3.143-3.561-4.908-8.594-6.893-14.8a26.76,26.76,0,0,1-.639-2.943c-.48-2.609-1.018-5.562-2.379-6.365-2.316-1.355-5.775-2.244-9.437-3.178-3.645-.936-7.418-1.9-10.006-3.377a22.887,22.887,0,0,1-2.98,5.453,16.56,16.56,0,0,1-4.014,3.824,16.826,16.826,0,0,1-5.068,2.246,24.125,24.125,0,0,1-6.137.736c-.189,0-.383,0-.574-.008a30.169,30.169,0,0,1-6.283-.729,20.067,20.067,0,0,1-5.43-2.08,16.792,16.792,0,0,1-4.408-3.643,19.6,19.6,0,0,1-3.217-5.408,38.149,38.149,0,0,1-1.625-7.328c-.486-3.072-.951-5.979-1.82-7.178a9.61,9.61,0,0,0-3.057-2.035c-2.455-1.295-5.506-2.91-7.275-5.932-1.457-2.484-2.557-7.041-3.262-13.533-.594-5.437-.795-11.111-.932-14.869l0-.053c-.01-.234-.02-.467-.025-.693-.676-18.539.088-37.383.832-55.609.238-5.8.484-11.8.676-17.686.168-5.043.076-9.654-.01-14.117-.182-9.4-.336-17.51,2.131-24.893a32.269,32.269,0,0,1,6.006-10.641,52.053,52.053,0,0,1,11.891-10.105c14.018-9.055,33.055-18.127,48.346-25.416l1.564-.746c.643-.309,1.281-.613,1.91-.914,15.654-7.463,28.014-13.361,41.021-17.475,13.939-4.41,27.523-6.377,44.051-6.377.873,0,1.762.01,2.646.018a901.952,901.952,0,0,1,94.764,6.6c1.844.225,3.643.436,5.383.633,5.111.594,9.939,1.148,14.213,2.035a35.6,35.6,0,0,1,11.3,4.043,21.555,21.555,0,0,1,7.99,8.355c2.135,3.883,3.527,8.775,4.268,14.965.166,1.4.242,5.271.32,9.373.1,5.266.2,10.707.518,11.2a5.062,5.062,0,0,0,1.529.613c2.553.832,7.3,2.375,9.244,5.641a14.673,14.673,0,0,1,1.4,5.057,12.642,12.642,0,0,0,1.441,4.963,4.807,4.807,0,0,0,1.432,1.277,6.459,6.459,0,0,1,2.793,3.385c2.07,5.131,2.213,18.8,1.6,24.525-.377,3.531-1.822,6.162-4.293,7.822a15.153,15.153,0,0,1-8.531,2.135,30.5,30.5,0,0,1-3.107-.164c.068,1.5.025,3.033-.018,4.516-.039,1.51-.086,3.068-.014,4.586,1.1,22.5,1.809,40.7,2.236,57.271.1,3.8-.115,8.76-.338,14.01-.393,9.254-.8,18.82.295,24.49a2.793,2.793,0,0,0,1.414,1.82,3.991,3.991,0,0,1,1.574,1.721c1,2.283,1.4,6.338,1.1,11.121-.277,4.5-1.139,8.754-2.26,11.1-1.461,3.076-4.621,5.223-9.656,6.559a83,83,0,0,1-14.312,1.918,64.1,64.1,0,0,0-10.432,1.3,38.959,38.959,0,0,0-2.5,4.529c-1.336,2.719-2.6,5.285-5.111,7.436a20.659,20.659,0,0,1-7.682,3.928,34.973,34.973,0,0,1-9.73,1.326,34.42,34.42,0,0,1-16.521-3.951c-5.172-2.889-8.357-7.072-9.207-12.088-14.529,1.34-28.879,1.512-39.76,1.512-6.338,0-12.781-.066-19.014-.139h-.07c-6.207-.062-12.625-.129-18.928-.129-4.754,0-9,.037-13,.113a1.674,1.674,0,0,0-1.457.719,12.129,12.129,0,0,0-1.086,2.811,20.969,20.969,0,0,1-2.271,5.434,17.094,17.094,0,0,1-8.488,6.5,30.951,30.951,0,0,1-10.652,1.594C21379.656,23427.479,21377.453,23427.363,21374.563,23427.105Zm-10.32-55.668c-.889.863-1.641,2.584-2.17,4.984a43.136,43.136,0,0,0-.863,8.012c-.15,6.275.7,12.506,2.205,16.25a9.181,9.181,0,0,0,1.711,2.887,2.985,2.985,0,0,0,2.186,1.072,2.6,2.6,0,0,0,1.959-.943c3.535-3.883,3.049-18.514,2.736-21.926-.227-2.514-2.129-11.4-5.613-11.4A3.2,3.2,0,0,0,21364.242,23371.438Zm3.475-24.543c1.8.563,3.52,2.32,5.119,5.23a47.178,47.178,0,0,1,3.734,9.674,102.91,102.91,0,0,1,3.4,18.52c.08,1.238.014,3.393-.059,5.682-.139,4.324-.293,9.232.418,10.65.795,1.6,5.18,2.111,9.053,2.57a25.659,25.659,0,0,1,5.789,1.047c.547-3.025-.057-6.154-.643-9.176a35.635,35.635,0,0,1-.8-5.7,7.682,7.682,0,0,1,.4-2.182,5.782,5.782,0,0,0,.242-3.523c-.256-.723-1.564-1.207-3.072-1.762-2.121-.787-4.754-1.762-5.836-3.838s-1.523-5.865-1.961-9.545a56.277,56.277,0,0,0-.984-6.367c-1.7-6.8-5.021-16.186-14.256-19.092a15.108,15.108,0,0,0-2.693-.469c-2.346-.273-4.771-.551-5.541-2.887l-.166-127.971c.615-2.773,6.844-5.262,10.563-6.754.621-.25,1.16-.463,1.6-.652,2.6-1.105,6.74-2.775,10.58-4.145,5.2-1.863,8.754-2.8,10.555-2.8.068,0,.137,0,.2,0a5.679,5.679,0,0,1,4.252,1.891c2.725,3.162,2.074,9.621,1.555,14.811a37.472,37.472,0,0,0-.322,5.369c.2,3.064,1.615,4.965,2.986,6.807a12.055,12.055,0,0,1,2.447,4.5c2.436,10.566.77,24.752-4.049,34.5.09,12.838.047,25.9.01,38.527-.074,25.1-.154,51.047.771,76.477,2.279.248,4.621.566,6.889.869,4.258.574,8.66,1.166,12.947,1.373,12.709.607,26.354.914,40.564.914,26.516,0,55.3-1.082,83.242-3.131,5.955-.432,25.518-1.953,27.17-3.24,1.189-.92,1.686-9.428,1.473-25.293,0-.35-.01-.645-.01-.879-.264-23.273-1.578-46.988-2.852-69.92v-.006c-.533-9.654-1.084-19.635-1.551-29.432-.295-6.18-.371-12.5-.445-18.607v-.008c-.135-11.287-.277-22.965-1.791-34.3a79.54,79.54,0,0,0-1.83-9.748c-1.107-4.15-2.494-7.043-4.119-8.592-4.379-4.184-18.758-6.113-26.486-7.145l-.031,0c-.7-.1-1.352-.182-1.928-.262a834.707,834.707,0,0,0-104.105-7.391h-.039c-32.354,0-72.092,20.576-101.105,35.6l-.168.088q-.955.489-1.891.975c-.926.482-2.008,1.033-3.264,1.674-10.2,5.205-29.189,14.889-33.633,20.842-1.451,1.938-2.66,5.088-3.605,9.352a105.823,105.823,0,0,0-1.891,13.742c-.816,10-.867,21.229-.906,29.432v.006c-.012,3.334-.025,6.213-.084,8.455-.115,4.387-.273,8.91-.445,13.7-.723,20.416-1.543,43.549,1.219,62.393.283,1.949,1.539,8.377,5.707,9.145a72.13,72.13,0,0,1,2.1-17.193c2.045-7.463,5.445-11.248,10.115-11.248a10.594,10.594,0,0,1,3.025.479c7.529,2.258,8.99,15.9,10.172,26.857.5,4.658.932,8.686,1.746,11.262l34.371,11.613a82.908,82.908,0,0,1,.012-16.314,61.058,61.058,0,0,1,3.912-15.986,21.906,21.906,0,0,1,4.455-7.041,9.207,9.207,0,0,1,6.6-2.93A10.668,10.668,0,0,1,21367.717,23346.895Zm-66.225,9.131a2.39,2.39,0,0,0-1.248,1.473c-.957,2.211-1.5,6.963-1.453,12.719.047,5.139.557,9.723,1.24,11.146.328.682,2.551,2.951,3.463,2.951a.837.837,0,0,0,.1-.006c1.65-.377,2.293-5.16,2.543-9.107a85.853,85.853,0,0,0,0-10.848,23.753,23.753,0,0,0-1.068-4.91,8.809,8.809,0,0,0-1.227-2.455,2.27,2.27,0,0,0-1.775-1.055A1.9,1.9,0,0,0,21301.492,23356.025Zm64.732-24.7a22,22,0,0,1,8.439,2.789,24.987,24.987,0,0,1,6.537,5.545,38.839,38.839,0,0,1,7.672,15.77,42.717,42.717,0,0,1,.848,5.988,26.858,26.858,0,0,0,1.275,7.125c.047.117.092.232.143.361.412,1.053.926,2.365,2.242,2.365a2.255,2.255,0,0,0,.355-.029v-54.426c-4.955-1.643-8.846-5.285-12.607-8.807-4.326-4.057-8.807-8.25-14.9-9.34Zm.1-121.092c.264,10.91-.031,22.006-.312,32.732-.424,15.91-.855,32.361.523,48.5a20.9,20.9,0,0,1,8.863,3.412,61.584,61.584,0,0,1,7.361,5.971c3.342,3.01,6.8,6.117,10.975,7.984v-47.895a26.98,26.98,0,0,1-3.271.211c-3.779,0-6.553-.957-8.477-2.924a9.835,9.835,0,0,1-2.131-3.395,18.259,18.259,0,0,1-1.049-4.283,68.74,68.74,0,0,1-.289-10.02c.031-1.541.061-3.133.043-4.656a11.749,11.749,0,0,0-.4-2.543,11.818,11.818,0,0,1-.406-2.5,14.793,14.793,0,0,1,1.064-5.871,13.664,13.664,0,0,1,3.082-4.59,16.256,16.256,0,0,1,10.389-4.418v-15.969Zm214.162,18.047c.359-3.789-1.293-8.131-5.777-8.707a36.782,36.782,0,0,1-.027,4.137v.006a19.867,19.867,0,0,0,.018,3.84,1.01,1.01,0,0,0,.461.051c.191,0,.432-.006.715-.016l.148,0c.324-.01.711-.023,1.115-.023C21578.273,23227.566,21579.852,23227.645,21580.488,23228.283Zm-164.373,138.076a17.492,17.492,0,0,1-3.82-6.105,21.462,21.462,0,0,1-1.23-8.246,19.15,19.15,0,0,1,4.072-10.762,15.626,15.626,0,0,1,9.533-6.117,28.986,28.986,0,0,1,4.773-.408,22.3,22.3,0,0,1,8.395,1.543,17.007,17.007,0,0,1,10.166,11.193,23.384,23.384,0,0,1,.74,8.9,16.787,16.787,0,0,1-6.246,11.893,19.37,19.37,0,0,1-11.992,3.955A19.98,19.98,0,0,1,21416.115,23366.359Zm11.445-23.248a11.188,11.188,0,0,0-3.371,1.693c-4.127,2.754-5.8,7-4.484,11.359a10.939,10.939,0,0,0,10.078,7.855,10.452,10.452,0,0,0,5.889-1.9c5.078-3.4,5.758-8.348,4.7-11.844a10.526,10.526,0,0,0-10.2-7.439A12.744,12.744,0,0,0,21427.561,23343.111Zm121.623,25.775a12.456,12.456,0,0,1-8.523-5.689,19.073,19.073,0,0,1-2.8-10.289,20.921,20.921,0,0,1,3.234-11.365,14.053,14.053,0,0,1,9.535-6.414,19.946,19.946,0,0,1,3.32-.293,14.633,14.633,0,0,1,5.721,1.1,12.983,12.983,0,0,1,4.3,2.947,18.1,18.1,0,0,1,4.568,13.139,21.283,21.283,0,0,1-1.141,6.309,17.844,17.844,0,0,1-3.037,5.5,14.6,14.6,0,0,1-11.678,5.369A20.268,20.268,0,0,1,21549.184,23368.887Zm4.582-26.084a11.067,11.067,0,0,0-2.436.291,7.016,7.016,0,0,0-4.578,4.213,13.791,13.791,0,0,0-1.1,7.135c.525,4.65,3.174,7.424,7.09,7.424a9.258,9.258,0,0,0,1.271-.092c4.883-.674,7.451-6.174,7.111-11.107C21560.871,23346.865,21558.8,23342.8,21553.766,23342.8Zm-60.855,20.129c-9.377-.531-18.781-1.057-27.906-.365-4.547.041-4.164-6.822-.539-7.863l60.691-.189c3.684.26,6.26,5.58,2.311,7.48a26.39,26.39,0,0,1-6.664,1.293c-3.129.242-6.3.338-9.494.338C21505.244,23363.625,21499.082,23363.279,21492.91,23362.932Zm-28.6-14.186c-2.045-.633-1.775-7.219,2.193-7.965a229.4,229.4,0,0,0,25.947-.4c8.764-.467,17.518-.937,26.188-.381,2.346.148,7.891.639,9.416,2.172,1.676,1.686,1.334,6.574-.041,6.574Zm-21.383-24.379a133.748,133.748,0,0,1-15.449-1.834c-4.111-.76-6.74-1.955-8.516-3.867-1.756-1.889-2.783-4.527-3.436-8.82-2.1-13.775-1.6-30.775-1.125-47.219.256-8.734.5-16.988.354-24.578a57.86,57.86,0,0,0-.543-6.162c-.541-4.4-1.014-8.2,1.051-10.846,1.441-1.842,4.053-2.971,7.992-3.441a83.92,83.92,0,0,1,9.994-.51c6.889,0,14.35.525,21.561,1.033,4.426.311,8.607.6,12.369.754,7.455.3,15.033.729,22.365,1.148h0c6.438.365,13.094.744,19.611,1.027,2.8.123,5.871.182,9.666.182,1.992,0,4.014-.018,5.973-.029h.025c1.949-.016,3.969-.031,5.951-.031,4.945,0,10.8.082,16.688.668a22.189,22.189,0,0,1,7.746,1.941,8.546,8.546,0,0,1,3.861,3.639c1.564,2.936,1.393,6.855,1.2,11.4-.109,2.541-.221,5.174-.068,8,.322,5.945.895,12.412,1.5,19.252.717,8.121,1.457,16.52,1.828,24.641a147.892,147.892,0,0,1-.4,22.842,11.152,11.152,0,0,1-1.992,5.559,9.59,9.59,0,0,1-3.949,3.066c-3.205,1.432-7.365,1.7-11.037,1.924-1.518.1-3.088.145-4.8.145-3.8,0-7.66-.236-11.387-.469-3.484-.217-7.09-.441-10.6-.461-.572-.006-1.168-.01-1.768-.01-8.326,0-17.406.359-27.016.742l-.937.037c-9.207.369-19.646.781-29.719.781C21453.568,23324.865,21448.014,23324.7,21442.93,23324.367Zm61.359-11.742-6.312,4.191h36.916a15.05,15.05,0,0,0-4.424-3.189,31.171,31.171,0,0,0-14.055-3.381A32.918,32.918,0,0,0,21504.289,23312.625Zm-33.82-2.156a42.756,42.756,0,0,1-5.793,6.348h20.992l-13.406-8.57C21471.646,23308.99,21471.049,23309.74,21470.469,23310.469Zm68.752-65.143a30.711,30.711,0,0,1-1.52,6.707,31.6,31.6,0,0,0-1.369,5.631,72.525,72.525,0,0,0-.053,10.357c.119,2.863.242,5.824.09,8.549a79.847,79.847,0,0,1-2,14.25,46.808,46.808,0,0,1-5.285,13.281c1.074.578,2.2,1.119,3.279,1.646a34.862,34.862,0,0,1,8.242,4.973,12.4,12.4,0,0,1,1.766,2.135c1.076,1.523,2.094,2.963,4.422,3.27a27.653,27.653,0,0,0,3.551.23c2.445,0,5.393-.359,5.539-2.082l-2.895-84.547-17.377-.711A31.91,31.91,0,0,1,21539.221,23245.326Zm-117.244,60.227c.289,3.352.725,5.93,1.922,7.6,1.174,1.645,3.057,2.375,6.109,2.375a26.335,26.335,0,0,0,2.818-.164,41.154,41.154,0,0,1,6.213-23.887,61.269,61.269,0,0,1,4.391-5.027,30.2,30.2,0,0,0,3.035-3.488,14.024,14.024,0,0,0-.867-2.729c-1.09-3.016-2.744-7.564-2.693-10.223.084-4.6,2.418-7.156,4.125-9.023.922-1.012,1.648-1.811,1.73-2.609.109-1.043-.568-2.992-1.281-5.062a24.768,24.768,0,0,1-1.57-5.924,21.947,21.947,0,0,1,3.121-12.057,54.914,54.914,0,0,1,7.684-9.961h-35.471Zm42.512-21.928c.615.6,1.705,3.406,2.762,6.121a51.231,51.231,0,0,0,2.209,5.219,39.13,39.13,0,0,0,14.73,14.262c2.756,1.385,4.514,1.975,5.873,1.975,1.488,0,2.488-.719,3.873-1.723a27.4,27.4,0,0,1,4.488-2.738,45.019,45.019,0,0,1,11.8-3.7,87.162,87.162,0,0,1,12.371-1.094c10.291-19.416,7.219-42.623,2.859-62.76a.8.8,0,0,0-.482-.111,22.579,22.579,0,0,0-5.229,1.529q-.955.34-1.982.7c-3.176,1.1-6.812,2.23-9.691,2.23a5.158,5.158,0,0,1-4-1.387,5.617,5.617,0,0,1-1.035-4.432,60,60,0,0,1-11.094,4.826,37.732,37.732,0,0,1-19.287.992c-.252,1.326-.443,3.4-.668,5.807-.584,6.352-1.389,15.053-4.047,17.4a3.345,3.345,0,0,1-2.184,1.018c-1.459,0-2.57-1.475-3.553-2.775a8.814,8.814,0,0,0-1.6-1.781,7.324,7.324,0,0,0-4.189-1.492c-2.705,0-5.117,2-6.445,5.357-1.582,4-1.432,10.07,2.652,13.932a8.067,8.067,0,0,0,5.857,2.279c.74,0,1.443-.064,2.164-.135l.145-.018c.621-.064,1.2-.125,1.729-.125A2.638,2.638,0,0,1,21464.488,23283.625Zm-174.566,20.664c-1.934-.682-3.049-1.723-3.3-3.094a231.621,231.621,0,0,0-.367-23.229,230.889,230.889,0,0,1-.369-23.191,114.4,114.4,0,0,1,1.643-15.047c.063-.277.123-.547.176-.809.543-2.547.9-4.23,3.457-5.709a48.406,48.406,0,0,1,9.006-3.3,15.664,15.664,0,0,1,2.459-.221,4.482,4.482,0,0,1,3.426,1.121c1.229,1.316,1.072,3.66.893,6.371a34.12,34.12,0,0,0-.1,4.553c.629,9.912.625,19.928.619,29.617,0,5.5-.008,11.193.1,16.83a34.734,34.734,0,0,0,.389,3.646c.617,4.41,1.385,9.895-2.322,11.771-1.785.9-5.734,1.564-9.389,1.564A19.71,19.71,0,0,1,21289.922,23304.289Zm4.586-63.051c-.945,2.2-1.143,4.98-1.33,7.662-.016.266-.037.531-.055.8-.389,5.332-.248,10.719-.115,15.93.063,2.381.123,4.84.137,7.254.021,4,0,8.064-.021,12v.006c-.018,4.287-.039,8.715-.014,13.066h7.973l-.73-60.957A6.8,6.8,0,0,0,21294.508,23241.238Zm19.916,61.523a5.526,5.526,0,0,1-3.287-1.471c-1.754-2.2-1.264-7.029-.875-10.912.145-1.451.271-2.709.264-3.646-.023-2.336-.221-4.658-.412-6.9-.182-2.135-.354-4.154-.383-6.16-.223-15.068-.086-30.822.41-46.826.914-2.186,6.938-4.75,10.174-6.129.492-.209.916-.391,1.266-.545,4.941-2.186,10.141-4.039,15.166-5.834,4.879-1.742,9.918-3.537,14.729-5.643h.129a3.653,3.653,0,0,1,2.666,1.227,4.208,4.208,0,0,1,1.137,2.721c-.867,12.986-.365,26.844.115,40.25.521,14.467,1.057,29.428-.121,43.273-.014.164-.029.33-.041.506a5.482,5.482,0,0,1-.9,3.27c-1.418,1.51-4.8,1.7-7.6,1.7-.961,0-1.9-.023-2.934-.053l-.135-.006c-.9-.023-1.744-.049-2.5-.049-.594,0-1.08.016-1.479.045-.848.07-2.121.215-3.6.377l0,.006a157.49,157.49,0,0,1-16.141,1.205A32.136,32.136,0,0,1,21314.424,23302.762Zm9.076-75.559c-3.215,1.109-6.857,2.365-7.225,4.34l.727,64.227h11.584l-.73-70.393A20.269,20.269,0,0,1,21323.5,23227.2Zm11.6-4.365v72.207h11.945a1.156,1.156,0,0,0,.4-.23,2.263,2.263,0,0,1,1.17-.531.843.843,0,0,1,.236.033v-76.922Zm155.561,75.469c-.158-3.607,3.893-6.172,7.121-6.717,3.8-.633,17.221,1.383,14.326,7.084-1.2,2.346-4.162,1.348-7,.354a12.442,12.442,0,0,0-4.535-1.072c-1.7.168-5.475,3.018-7.846,3.018C21491.572,23300.973,21490.75,23300.3,21490.662,23298.307Zm10.156-13.006c-3.662-5.141,3.033-5.223,6.563-4.049,1.357-1.27-10.988-11.971-3.207-13.08,3.811-.543,3.855,2.859,5.383,5.1,1.227-1.7-.252-3.795.025-6.1,1.23-10.236,14.738-2.926,7.873,6.4-1.107,1.5-2.432,1.283-3.781,1.074a4.872,4.872,0,0,0-2.668.078c4.887,8.813-.539,12.563-5.293,12.564C21503.662,23287.289,21501.738,23286.592,21500.818,23285.3Zm-44.512-11.986c-1.314-1.492-3.271-1.162-3.193-3.955a7.23,7.23,0,0,1,.811-2.508c3.8-2.4,11.529,6.2,7.563,9.389a3.306,3.306,0,0,1-1.967.9C21457.82,23277.145,21457.3,23274.443,21456.307,23273.314Zm32.039-10.791c7.822-2.414,7.471,10.791,3.332,12.064a5.763,5.763,0,0,1-1.7.277C21484.145,23274.865,21484.465,23263.721,21488.346,23262.523Zm-8.525-3.334c-4.025-5.322,4.814-5.953,7.469-7.146,1.965-.889,4.43-3.785,5.412-4.068,4.762-1.35,4.945,4.59.564,7.875-1.686,1.268-7.926,4.053-11.383,4.053A2.492,2.492,0,0,1,21479.82,23259.189Zm26.295-10.41c2.26-2.277,15.119,3.313,16.521,5.209,2.311,3.109.3,4.357-3.078,4.357C21513,23258.346,21501.279,23253.641,21506.115,23248.779Zm24.691-33.529c-3.885-.363-7.551-.709-10.721-.789-8.871-.217-18.154-.227-27.133-.234-18.719-.016-38.074-.035-56.137-1.92-6.381-.664-10.234-1.066-12.828-2.979-2.514-1.848-3.822-5.1-4.83-11.975-.676-4.6-1.453-15.648.457-20.414a7.194,7.194,0,0,1,2.391-2.807,7.934,7.934,0,0,1,3.389-1.557c12.088.621,24.553.893,36.605,1.152,12.205.262,24.82.537,37.168,1.176,13.867.719,25.873,1.834,36.709,3.408.965.141,1.971.264,2.941.383,7.309.914,14.871,1.857,16.885,10.221a47.2,47.2,0,0,1,1.055,11.83c-.127,3.684-.768,8.758-3.1,12.033a7.178,7.178,0,0,1-5.338,3.2c-1.156.109-2.422.162-3.871.162C21540.271,23216.139,21535.459,23215.689,21530.807,23215.25Zm-57.564-33.232c-3.822.188-5.426.416-6.746,4.182a24.335,24.335,0,0,0-.824,8.855c.176,2.236.789,6.225,2.969,7.846,1.375,1.021,5.021,1.762,8.662,1.762h0c4.582,0,7.652-1.129,8.217-3.018a34.792,34.792,0,0,0,.508-8.1c-.064-2.936-.334-6.549-.91-7.895-1.152-2.7-6.549-3.658-10.818-3.658C21473.928,23181.992,21473.572,23182,21473.242,23182.018Zm-31.766,1.6c-.605,1.084-.9,4.783-.719,8.994.15,3.516.662,7.639,1.646,8.658a8.484,8.484,0,0,0,3.963,1.586,31.4,31.4,0,0,0,6.223.621c3.465,0,6.033-.6,7.051-1.65,1.281-1.322,2.018-5.035,1.877-9.457-.148-4.479-1.16-8.207-2.578-9.5a8.726,8.726,0,0,0-3.66-1.637,22.945,22.945,0,0,0-5.258-.6C21445.711,23180.635,21442.52,23181.748,21441.477,23183.615Zm30.436,14.914v-10.16h8.691v10.16Zm-25.332-1.453v-10.162h8.688v10.887Z" transform="translate(-21258.926 -23116.24)" fill="#080808" stroke="rgba(0,0,0,0)" stroke-miterlimit="10" stroke-width="1"/>
  </g>
</svg>
