<svg xmlns="http://www.w3.org/2000/svg" xmlns:xlink="http://www.w3.org/1999/xlink" width="350" height="350" viewBox="0 0 350 350">
  <defs>
    <clipPath id="clip-Tavola_da_disegno_15">
      <rect width="350" height="350"/>
    </clipPath>
  </defs>
  <g id="Tavola_da_disegno_15" data-name="Tavola da disegno – 15" clip-path="url(#clip-Tavola_da_disegno_15)">
    <path id="Unione_14" data-name="Unione 14" d="M81.668,298.9c-1.645-1.721-1.447-5.912-1.289-9.279a26.766,26.766,0,0,0,.028-3.748c-.527.029-1.062.043-1.59.044a37.726,37.726,0,0,1-13.95-2.958,98.488,98.488,0,0,1-12.849-6.486,130.727,130.727,0,0,1-27.8-21.981C14.976,244.9,8.147,234.822,4.466,225.338c-1.4-3.6-1.987-5.721-1.332-7.307.681-1.646,2.719-2.707,6.242-4.089a115.409,115.409,0,0,1,15.573-4.4c4.1-.958,8.348-1.948,12.226-3.211,4.852-1.58,9.63-3.634,14.249-5.621a136.345,136.345,0,0,1,17.749-6.673c4.7.017,6.779,5.686,8.789,11.168,1.464,3.994,2.847,7.766,5.158,9.261a102,102,0,0,1,6.2-13.583,94.485,94.485,0,0,1,8.239-12.564A77.259,77.259,0,0,1,119.9,168.566a59.293,59.293,0,0,1-16.774-18.651,69.477,69.477,0,0,1-5.061-11,89.239,89.239,0,0,1-3.313-11.792,146.806,146.806,0,0,1-2.786-24.948c-.31-8.452-.156-16.918-.008-25.1v0l.024-1.321a16.287,16.287,0,0,1-6.749,1.973,4.734,4.734,0,0,1-3.8-1.608c-1.222-1.444-1.8-3.823-1.753-7.275A64.017,64.017,0,0,1,80.729,59.4a60.877,60.877,0,0,1,9.193-23.2,74.057,74.057,0,0,1,17.1-18.227,87.21,87.21,0,0,1,22.182-12.3A85,85,0,0,1,153.634.259C156.188.088,158.732,0,161.2,0A84.678,84.678,0,0,1,191.861,5.31a62.3,62.3,0,0,1,22.838,15.1,66.073,66.073,0,0,1,15.007,25.97,97.907,97.907,0,0,1,3.947,34.444,14.427,14.427,0,0,1-.6,2.854,9.627,9.627,0,0,0-.558,3.2c.09.759.947,1.887,2.032,3.315,1.677,2.208,3.765,4.956,4.283,7.946a37.432,37.432,0,0,1-.173,8.3c-.225,2.535-.419,4.723-.115,5.586.114.326,3.02,1.786,5.831,3.2,2.1,1.057,4.09,2.055,4.792,2.52,9.373,6.2,11.892,12.491,14.809,19.769a79.437,79.437,0,0,0,5,10.777,50.18,50.18,0,0,0,3.46,4.677c1.419,1.794,3.027,3.828,4.231,5.633,1.381,2.07,2.024,3.532,1.967,4.468a3.869,3.869,0,0,1-1.84,3.022,8.607,8.607,0,0,1-3.42,1.285,15.944,15.944,0,0,1-2.556.2,29.173,29.173,0,0,1-9.365-1.831,90.5,90.5,0,0,1-8.694-3.634,15.514,15.514,0,0,1,.7,4.445,4.564,4.564,0,0,1-.786,2.688,3.925,3.925,0,0,1-3.326,1.332,19.616,19.616,0,0,1-6.584-1.551,32.391,32.391,0,0,1-14.182-10.719,49.557,49.557,0,0,1-8.024-16.074c-.171-.561-.421-1.913-.686-3.344-.439-2.37-.936-5.052-1.262-5.256-.238-.149-5.089-.826-5.578-.826l-.034,0c-.88.128-6.863,15.053-7.075,16.195-.429,2.3-.768,8.521.974,9.589,7.279,2.1,12.784,3.869,17.847,5.732a124.809,124.809,0,0,1,17.035,7.6c12.116,6.641,20.872,14.846,26.768,25.087a112.229,112.229,0,0,1,6.255,13.268c2.188,5.394,4.272,11.3,6.027,17.091a153.385,153.385,0,0,1,4.292,17.42,55.677,55.677,0,0,1,1.051,14.255,7.154,7.154,0,0,1-1.643,4.189,9.693,9.693,0,0,1-2.628,1.985c-1.031.6-1.846,1.069-1.913,1.951l3.4,28.668a4.267,4.267,0,0,1-1.267,2.733,3.5,3.5,0,0,1-2.4.956,4.134,4.134,0,0,1-3.657-2.573l-3.554-28.761a58.769,58.769,0,0,1-14.461,4.5c-4.934.925-10.065,1.429-15.027,1.918-1.271.125-2.586.255-3.883.389l2.021,20.68c-.3,2.165-1.8,3.677-3.643,3.677a3.824,3.824,0,0,1-1.6-.369c-2.724-1.253-2.836-7.273-2.944-13.1-.076-4.1-.148-7.963-1.1-10.057a2.9,2.9,0,0,0-1.819-1.357,4.792,4.792,0,0,1-1.495-.816c-.8-.722-1.545-2.46-2.223-5.168a79.085,79.085,0,0,1-1.545-8.735c-.817-6.295-1.233-12.814-1.349-15.673-.182-4.462-.486-11.931.02-16.366a6.4,6.4,0,0,1,.835-2.746,2.376,2.376,0,0,1,2.093-1.137,4.539,4.539,0,0,1,1.4.252c.85.278,1.6,2.069,2.217,5.322.5,2.626.787,5.493.923,6.87.011.11.021.211.029.3.108,1.066.22,3.565.362,6.729v0c.206,4.589.462,10.3.85,15.089.46,5.675.988,8.626,1.614,9.021,1.862.152,3.769.229,5.668.229,12.732,0,26.167-3.394,39.934-10.088l-.047-.261c-4.931-27.832-10.52-59.377-36.025-75.9-9.158-5.933-19.758-9.293-30.01-12.542l-.006,0c-1.353-.429-2.752-.872-4.121-1.313a38.437,38.437,0,0,1-5.6,12.967,47.281,47.281,0,0,1-9.634,10.571c-7.6,6.181-16.565,9.726-24.607,9.726a24.052,24.052,0,0,1-8.132-1.354,21.006,21.006,0,0,1-7.112-4.287c-4.573-4.176-7.605-10.473-9.012-18.716a10.233,10.233,0,0,1-1.7.139,22.435,22.435,0,0,1-6.9-1.495,25.3,25.3,0,0,0-5.382-1.359c-.442-.042-.894-.064-1.344-.064-6.026,0-12.681,3.746-19.78,11.133a101.888,101.888,0,0,0-13.993,19.009c-1.409,2.47-8.513,16.124-8.566,17.916-.034,1.148.757,2.921,2.35,5.27a69.125,69.125,0,0,0,5.633,7.017,109.172,109.172,0,0,0,11.275,11.04l.121.094c.717.559,2.621,2.045,3.372,2.045a.291.291,0,0,0,.231-.086V247.1c.1-5.117.216-10.918.659-16.71a94.8,94.8,0,0,1,2.529-16.479c.078-.3.159-.637.244-.99a24.4,24.4,0,0,1,1.431-4.566c.782-1.642,1.724-2.44,2.883-2.44a3.579,3.579,0,0,1,1.7.5l-2.5,44.99c.3.963,2.764,2.364,5.889,4.139,4.895,2.779,10.985,6.239,12.08,9.918a4.361,4.361,0,0,1-.408,3.472c-.961,1.731-3.069,3.373-6.265,4.879a47.093,47.093,0,0,1-7.261,2.621c-.539,1.845-.2,5.223.158,8.8a63.125,63.125,0,0,1,.475,7.867c-.088,2.661-.639,4.319-1.685,5.067a3.8,3.8,0,0,1-2.194.607,5.029,5.029,0,0,1-2.488-.632,2.05,2.05,0,0,1-1.159-1.724V279.074l-25.74,6.256c-.883,1.235-1.065,3.985-1.241,6.645-.222,3.36-.452,6.834-2.081,7.39a5.514,5.514,0,0,1-1.754.332A2.623,2.623,0,0,1,81.668,298.9Zm-56.6-81.528c-.587.182-1.816.493-3.374.885-4.182,1.055-10.5,2.649-10.742,3.425-.474,1.531,3.776,8.34,6.352,12.262,3.714,5.655,7.707,11.092,8.936,12.5,5.723,6.558,15.431,14.835,24.729,21.086,8.175,5.5,19.864,12.081,29.127,12.248l.237,0c3.83,0,12.405-1.651,22.939-4.417,9.564-2.511,18.589-5.377,22.459-7.133.124-.056.254-.106.391-.159.6-.23,1.218-.468,1.277-1.226-2.809-1.821-5.728-3.607-8.55-5.333l-.006,0c-4.519-2.765-9.191-5.624-13.576-8.722a80.966,80.966,0,0,1-12.275-10.421c-7.459-7.9-14.272-19.349-18.159-27.434-.3-.626-.812-2-1.4-3.6-1.587-4.273-3.759-10.123-5.017-10.412C54.787,206.659,40.215,212.657,25.07,217.371Zm158.761-47.751a57.666,57.666,0,0,1-8.092,4.048,44.925,44.925,0,0,1-8.678,2.529c-1.632.3-3.429.44-5.167.58-4.016.324-7.808.629-8.711,2.735-.707,1.651.446,4.294,3.525,8.079A16.308,16.308,0,0,0,169.9,193.9c12.574,0,26.591-11.767,30.723-22.286,1.87-4.761,1.069-5.945-.144-7.736a12.767,12.767,0,0,1-2.238-5.176A92.632,92.632,0,0,1,183.832,169.619Zm-83.671-105.1c-1.007,1.2-.837,6.578-.714,10.5.05,1.582.093,2.948.056,3.8l-.006.156c-.97,23.028-2.069,49.128,11.006,69.052a51.017,51.017,0,0,0,42.851,22.949,52.682,52.682,0,0,0,37.158-15.236,65.449,65.449,0,0,0,10.809-14.709,84.724,84.724,0,0,0,3.036-8.315c1.278-3.833,2.485-7.452,3.062-8.036a3.389,3.389,0,0,1,2.423-.647,29.581,29.581,0,0,1,3.678.345l.1.013a27.938,27.938,0,0,0,3.438.332c.218,0,.421-.009.6-.025,5.1-.465,9.935-5.2,12.625-12.351a28.535,28.535,0,0,0,1.873-11.085c-.177-3.792-1.294-6.869-3.231-8.9a10.818,10.818,0,0,0-7.943-3.534,12.747,12.747,0,0,0-7.41,2.547,20.445,20.445,0,0,0-3.54,3.817c-1.964,2.476-3.995,5.036-6.318,5.036-.1,0-.2,0-.294-.013-1.97-.184-3.675-1.931-5.215-5.341a72.094,72.094,0,0,1-3.3-10.22,43.888,43.888,0,0,0-2.65-8.044,49.111,49.111,0,0,0-6.15-7.865,73.955,73.955,0,0,1-4.762-5.721c-2.33-3.264-4.368-6.789-6.339-10.2-2.006-3.469-4.079-7.054-6.46-10.366a.869.869,0,0,0-.2-.023c-1.4,0-3.957,2.968-6.008,5.354a31.7,31.7,0,0,1-2.227,2.445,57.2,57.2,0,0,1-8.13,5.694c-2.764,1.618-6.571,3.546-9.007,3.546-.085,0-.169,0-.25-.007-1.623-.1-2.692-.618-3.177-1.545-1.306-2.5,1.76-7.512,4-11.173,1.167-1.909,2.089-3.416,2.15-4.125a1.324,1.324,0,0,0-.706-1.37c-.076-.059-.162-.127-.252-.2C128.5,47.17,112.787,56.792,100.161,64.522ZM11.462,295.88c-2.532-1.325-8.724-6.273-3.456-7.839,3.392-1.008,6.389,1.722,9.362,2.621,2.547.77,11.113,2.138,11.838,4.53.988,3.26-1.013,4.337-4.01,4.337C20.533,299.53,13.458,296.925,11.462,295.88ZM1.634,270.329c-1.427-2.46-3.21-6.862.936-7.46,3.263-.471,4.28,3.161,5.975,4.641a71.394,71.394,0,0,0,13.928,9.216c3.586,1.719,17.548,5.063,18.312,7.588.737,2.435-.43,4.089-2.941,4.331-.241.023-.5.035-.766.035C28.457,288.678,5.553,277.09,1.634,270.329Zm81.126-2.795c-3.391-.2-18.358-4.02-19.727-6.816-.835-1.7-.531-4.808,1.512-5.348,2.609-.69,9.412,2.92,12.432,3.664,2.728.671,12.741,1.029,13.552,3.492,1.42,4.309-2.941,5.053-6.277,5.053C83.719,267.58,83.212,267.561,82.759,267.534Zm49.509-116.743c-2.238-6.653,9.486-12.226,14.725-12.99,5.337-.778,18.608,1.55,22.407,5.5,2.1,2.181,2.791,7.4-.888,7.748-2.274.214-8.051-3.717-10.771-4.609-4.927-1.616-9.284-1.984-14.154.2-1.521.683-6.571,5.584-9.478,5.585A1.832,1.832,0,0,1,132.269,150.791ZM45.69,123.708c2.452-1.684,15.072-5.857,18.185-6.32,7.913-1.178,10.382,2.054,3.543,6.931-2.769,1.976-15.735,7.969-18.871,8.408a7.66,7.66,0,0,1-1.061.077C42.223,132.805,41.318,126.711,45.69,123.708Zm80.505-7.353c.489-2.371,9.375-15.687,11.377-17.2,1.477-1.113,3.9-1.547,5.33-.134,4.928,4.879-10.982,15.29-10.086,21.236.757,5.022,10.071,1.774,12.653,1.72,5.812-.12,3.329,6.66-2.362,7.861a21.633,21.633,0,0,1-4.45.474C130.811,130.315,124.269,125.7,126.2,116.355Zm84.84-11.864c.74-2.486,4.822-7.613,7.446-8.208,3.453-.782,10.6-.494,8.037,4.622-.989,1.972-3.618,1.075-5.311,1.5-4.628,1.16-3.6,7.893-5.924,9.042a5.573,5.573,0,0,1-2.4.687C209.871,112.134,210.13,107.532,211.035,104.491ZM162.621,88.8c10.873-3.234,10.521,16.536,3.8,18.076a8.2,8.2,0,0,1-1.829.219C155.871,107.1,156.592,90.6,162.621,88.8Zm-40.968,17.5c-7.6-1.2-5.992-16.177.115-17.506,5.359-1.167,8.257,3.778,8.31,8.723.047,4.448-2.209,8.9-7.048,8.9A8.793,8.793,0,0,1,121.653,106.3Zm-80.108-5.707c-3.876-1.416-3.34-8.136-.177-9.082,3.791-1.134,24.569,1.807,26.824,4.914,2.274,3.131-.677,5.491-3.781,5.851a32.285,32.285,0,0,1-3.346.129C55.025,102.406,44.458,101.656,41.545,100.593Zm67.844-18.039a4.03,4.03,0,0,1-3.13-4.4c.5-3.467,11.806-7.406,14.8-9.094,1.968-1.11,6.269-5.06,7.518-5.425,3.822-1.116,6.246,1.731,4.6,5.289-1.593,3.454-19.106,13.645-23.489,13.646A2.2,2.2,0,0,1,109.389,82.554Zm62.964-1.03c-4.392-1.03-21.816-6.989-22.494-11.605-1.08-7.364,8.1-1.94,10.572-.973,3.63,1.421,17.168,5.709,18.785,8.444.606,1.025,1.135,3.422.535,4.368-.308.486-1.081.657-2.027.657A26.384,26.384,0,0,1,172.353,81.524Z" transform="translate(31.865 25.15)" fill="#070707" stroke="rgba(0,0,0,0)" stroke-miterlimit="10" stroke-width="1"/>
  </g>
</svg>
