<svg xmlns="http://www.w3.org/2000/svg" xmlns:xlink="http://www.w3.org/1999/xlink" width="350" height="350" viewBox="0 0 350 350">
  <defs>
    <clipPath id="clip-Tavola_da_disegno_8">
      <rect width="350" height="350"/>
    </clipPath>
  </defs>
  <g id="Tavola_da_disegno_8" data-name="Tavola da disegno – 8" clip-path="url(#clip-Tavola_da_disegno_8)">
    <path id="Unione_8" data-name="Unione 8" d="M135.226,265.316a28.69,28.69,0,0,1-2.91-3.4l0-.006-.011-.013c-1.409-1.809-2.866-3.679-3.624-3.821a5.144,5.144,0,0,0-.95-.085,12.366,12.366,0,0,0-2.717.414,13.411,13.411,0,0,1-2.5.406c-.717.024-1.479.035-2.266.035a153.269,153.269,0,0,1-15.907-1.1l-.4-.042h-.019a143.547,143.547,0,0,0-14.691-1.053c-.67,0-1.314.01-1.915.032a38.372,38.372,0,0,0-7.331,1.265l-.009,0h-.006l-.007,0a40.058,40.058,0,0,1-8.478,1.378c-.3,0-.51,0-.693,0a38.441,38.441,0,0,1-10.032-1.241,23.1,23.1,0,0,1-8.923-4.461,22.064,22.064,0,0,1-2.283-2.581,11.232,11.232,0,0,0-1.687-1.882c-2.694-1.432-5.958-2.043-9.414-2.689l-.014,0h0a54.177,54.177,0,0,1-7.964-1.911,19.3,19.3,0,0,1-7.257-4.315,18.717,18.717,0,0,1-4.782-9.277,44.823,44.823,0,0,1-.976-12.36c.368-8.205,2.456-17.173,5.318-22.846a33.411,33.411,0,0,1,3.668-5.713,38.3,38.3,0,0,1,4.656-4.87,55.038,55.038,0,0,1,11.553-7.649,108.536,108.536,0,0,1,13.338-5.581c4.592-1.614,9.191-3.014,13.639-4.367l.03-.009.011,0,.019-.006h0l.035-.011h0c3.664-1.115,7.125-2.168,10.385-3.28a15.446,15.446,0,0,0,.477-3.653v-.009a16.44,16.44,0,0,1,.733-4.741A11.837,11.837,0,0,1,84,151.36a10.691,10.691,0,0,1,3.789-2.482c2.815-1.127,6.182-1.353,9.437-1.572h.048c1.754-.119,3.568-.241,5.277-.506L129.031,111.7a14.716,14.716,0,0,1-4.7.544c-.9,0-1.857-.029-2.555-.051h-.118l-.068,0c-.793-.025-1.687-.053-2.5-.053a11.258,11.258,0,0,0-3.385.354c-.408.134-.862.838-1.435,1.728l0,.006-.006.009,0,0,0,0a11.407,11.407,0,0,1-3.344,3.779,19.474,19.474,0,0,1-9.891,2.611,16.627,16.627,0,0,1-8.819-2.318,11.406,11.406,0,0,1-5.215-7.307,18.726,18.726,0,0,0-3.245,1.773l-.009.006-.006,0-.011.007a22.41,22.41,0,0,1-3.624,1.983,39.288,39.288,0,0,1-3.83,1.034l-.006,0-.012,0-.007,0-.009,0a17.625,17.625,0,0,0-2.9.8,2.843,2.843,0,0,0-.234,1.162,6.207,6.207,0,0,1-.4,1.972c-.96,1.963-3.019,3.611-5.955,4.765a24.358,24.358,0,0,1-8.7,1.583,16.219,16.219,0,0,1-5.639-.874,10.523,10.523,0,0,1-4.462-3.617l-.007-.008a22.028,22.028,0,0,0-1.905-2.087c-3.754.2-7.539.6-11.2.994l-.018,0h-.014l-.02,0-.045,0-.034,0-.048,0c-2.469.264-5.264.563-7.964.778-.868.069-2.189.075-3.7.075H21.9c-4.228,0-8.484.074-10.025.964a6.4,6.4,0,0,0-1.29,1.707l-.007.011,0,0,0,.007A14.07,14.07,0,0,1,7.972,127.4a13.842,13.842,0,0,1-7.818,2.857V106.2l3.679,5.953c.37.213.767.493,1.117.739l.022.016.017.012.006,0,.006,0A7.853,7.853,0,0,0,7.538,114.3a38.678,38.678,0,0,0,7.236.46c3.643,0,7.581-.169,10.187-.281h.051l.386-.016.266-.011h.016l.079,0h.019l.215-.009c22.715-.938,38.613-2.427,47.253-4.423,3.324-.768,5.7-1.863,7.265-3.345,1.909-1.81,2.675-4.212,2.341-7.343a20.221,20.221,0,0,1-5.014.666,13.956,13.956,0,0,1-5.661-1.106,9.239,9.239,0,0,1-5.684-8.066A15.875,15.875,0,0,1,67.5,84.357a9.8,9.8,0,0,1,2.256-3.98,8.6,8.6,0,0,1,4.137-2.01C70.236,75.2,65.771,73.2,61.454,71.274l-.009,0h0l-.065-.029-.044-.02c-1.3-.58-2.641-1.181-3.954-1.814-3.127-.216-6.438-.327-9.842-.327-10.551,0-21.212,1.035-31.522,2.036h-.031l-.05,0-.053,0-.051,0-.048,0c-5.109.5-10.392,1.008-15.632,1.387V66.332l51.692-3.44L38.98,42.393.152,44.345a11.82,11.82,0,0,0-.039-2.872v-.014a9.451,9.451,0,0,1,0-2.882c.094-.351,1.473-.7,4.1-1.033,2.265-.288,5.38-.559,9.259-.805,7.366-.466,15.317-.711,19.365-.711,1.168,0,2,.02,2.466.059C28.78,29.943,19.927,29.1,11.33,29.1c-1.735,0-3.545.036-5,.065H6.225l-.121,0H6.053c-1.494.03-3.187.063-4.833.063-.367,0-.7,0-1.068,0l0-6.877c.984.065,2.032.1,3.2.1,1.738,0,3.462-.066,5.128-.131H8.52c1.68-.064,3.416-.131,5.149-.131,1.53,0,2.858.054,4.06.165a44.119,44.119,0,0,1,11.978,2.885,25.252,25.252,0,0,1,10.076,6.71c3.522-3.183,8.3-5.578,14.622-7.323a106.609,106.609,0,0,1,16.479-2.871,153.565,153.565,0,0,1,16.861-.935,143.511,143.511,0,0,1,25.681,2.279C118.213,11,127.55,4.076,141.971,1.918A148.111,148.111,0,0,1,163.873,0,63.487,63.487,0,0,1,185.715,3.4a45.887,45.887,0,0,1,9.873,4.969,47.332,47.332,0,0,1,8.918,7.779c.885.986,3.047,4,5.138,6.913l.022.03.032.045.007.01.019.027a74.249,74.249,0,0,0,4.787,6.368,23.2,23.2,0,0,0,4.231,1.219l.008,0h.017l.01,0,.021,0,.008,0a39.921,39.921,0,0,1,4.316,1.174,60.3,60.3,0,0,1,9.889,4.759,31.425,31.425,0,0,1,7.6,6.308,23.1,23.1,0,0,1,4.617,8.422,29.666,29.666,0,0,1,.956,11.1,18.666,18.666,0,0,1-1.967,7.328,18.168,18.168,0,0,1-4.957,5.7,8.755,8.755,0,0,1-2.136,1.074l-.012,0h0a5.9,5.9,0,0,0-1.941,1.024,4.429,4.429,0,0,0-.854,2.146v0a6.677,6.677,0,0,1-.608,1.89,13,13,0,0,1-6.232,5.249A22.228,22.228,0,0,1,218.6,88.8h0a15.184,15.184,0,0,1-9.6-2.9,6.794,6.794,0,0,1-1.4-1.815l0-.006,0-.006,0-.007,0,0a4.438,4.438,0,0,0-.965-1.276,5.436,5.436,0,0,0-2.913-.512,74.814,74.814,0,0,0-7.808.673l-.022,0-.227.027a70.836,70.836,0,0,1-7.279.648,8.527,8.527,0,0,1-1.444-.1c1.464,5.078.472,10.488-.692,15.109,3.738-.051,7.493-.207,11.124-.359l.04,0h.038c4.45-.186,9.053-.379,13.623-.379,1.09,0,2.137.011,3.114.032h.006c10.428.219,23.406.492,35.739,2.883a88.808,88.808,0,0,1,8.968,2.2,62.268,62.268,0,0,1,8.326,3.171,44.443,44.443,0,0,1,7.357,4.33,33.887,33.887,0,0,1,6.061,5.677c6.291,7.605,9.5,16.791,12.6,25.674v0l0,0,0,0c2.4,6.861,4.659,13.341,8.2,18.857a24.727,24.727,0,0,0,4.145,4.409l.006,0,0,0,.012.011,0,0,.011.01a33.96,33.96,0,0,1,3.269,3.251,27.563,27.563,0,0,1,5.538,9.466,40.361,40.361,0,0,1,1.32,9.461l0,.074,0,.052,0,.032c.075,1.152.169,2.584.3,4.147.089,1.04.191,2.107.289,3.139l.009.092v.011l.007.069,0,.04v.006l0,.027,0,.032v.012a87.859,87.859,0,0,1,.609,13.715,25.073,25.073,0,0,1-1.082,6.1,14.121,14.121,0,0,1-2.76,5.028,13.513,13.513,0,0,1-5.127,3.591,24.3,24.3,0,0,1-8.058,1.6,28.16,28.16,0,0,1-8.04,19.552,26.25,26.25,0,0,1-8.38,5.688A25.6,25.6,0,0,1,273.48,252.4a27.661,27.661,0,0,1-12.6-3.114,32,32,0,0,1-4.166-2.961l-.007-.006-.006,0-.006,0c-2.1-1.644-4.271-3.343-5.3-3.371-8.374,1.36-16.832,2.985-25.013,4.558l-.031.006-.024,0-.008,0-.019,0-.014,0h0c-14.281,2.745-29.048,5.583-43.76,7.1a26.3,26.3,0,0,1-10.964,13.353,30.075,30.075,0,0,1-7.875,3.423,32.252,32.252,0,0,1-8.583,1.158A30.053,30.053,0,0,1,135.226,265.316Zm28.121-38.981a9.812,9.812,0,0,0-5.323,1.907c-3.065,2.041-5.335,6.289-6.072,11.364-.741,5.105.221,9.834,2.573,12.65a7.168,7.168,0,0,0,5.631,2.5,10.293,10.293,0,0,0,7.227-3.087c2.006-2.107,3.339-5.49,3.753-9.525a22.2,22.2,0,0,0-1.385-10.68c-1.424-3.308-3.7-5.129-6.4-5.129ZM24.389,219.587c.118,7.614.229,14.805,8.862,18.214,11.671,4.607,33.672,8.148,46.818,10.265l1.265.2.549.089.443.072.014,0,.558.09.03,0h0c8.431,1.368,21.171,3.434,31.943,3.434,6.033,0,10.726-.667,13.946-1.983,4.61-1.885,6.742-9.014,8.622-15.305l0-.015a59.5,59.5,0,0,1,2.489-7.27,43.491,43.491,0,0,1,5.18-8.638,32.493,32.493,0,0,1,6.16-6.1,22.781,22.781,0,0,1,13.564-4.806,19.122,19.122,0,0,1,14.763,7.04c4.2,4.975,6.489,12.073,6.628,20.527,3.539-.567,7.145-1.117,10.632-1.649l.229-.035c9.167-1.4,18.648-2.844,27.86-4.72.552-.112,1.337-.259,2.307-.438h0l.009,0c3.8-.7,10.153-1.884,11.609-2.85,3.1-2.059,5.656-19.568,5.923-23.647.4-6.11.486-15.064-1.38-23.022a172.746,172.746,0,0,1-20.411,4.039c-1.731.225-4.279.262-6.743.3a43.287,43.287,0,0,0-7.5.462,4.147,4.147,0,0,0-.774.763l0,0c-.957,1.047-2.739,3-4.533,3.711-2.22.884-6.5,1.391-11.73,1.391-5.636,0-10.994-.589-13.651-1.5a3.9,3.9,0,0,1-2.914-2.8,11.629,11.629,0,0,1,.227-4.259l.007-.046c.044-.264.081-.483.118-.717.443-2.776,2.064-7.266,4.687-12.985,2.462-5.37,5.644-11.487,9.2-17.692,6.095-10.628,14.452-23.383,19.629-27.3,3.635-2.753,9.386-5.056,16.63-6.661a92.535,92.535,0,0,1,19.118-2.14c1.362,0,2.656.041,3.848.122a36.942,36.942,0,0,1,13.064,2.994,24.009,24.009,0,0,1,8.494,6.486c4.532,5.377,7.22,12.827,10.334,21.453l0,.007.311.862c.163.45.357.972.592,1.61l.007.02.014.039,0,0c2.266,6.11,6.982,18.824,4.641,22.5-.614.964-2.626,1.978-5.981,3.016a108.2,108.2,0,0,1-11.01,2.613c-9.092,1.757-18.431,2.912-19.466,3.038a18.517,18.517,0,0,1,1.3,4.538,84.4,84.4,0,0,1,.53,16.377,115.712,115.712,0,0,1-2.035,16.332,42.7,42.7,0,0,1-2.552,8.1,1.57,1.57,0,0,0,.66.077c2.386,0,10.427-1.112,10.9-1.6a30.739,30.739,0,0,0,1.17-3.929l0-.014.007-.028.01-.037c.523-1.95,1.064-3.965,1.388-4.761a31.564,31.564,0,0,1,3.5-6.419,24.75,24.75,0,0,1,4.716-5.022,20.5,20.5,0,0,1,5.837-3.272,20.277,20.277,0,0,1,6.857-1.169,24,24,0,0,1,4.824.507,15.678,15.678,0,0,1,6.018,2.707,19.764,19.764,0,0,1,4.69,4.856,17.779,17.779,0,0,1,3.178,12.6,9.306,9.306,0,0,0,7-3.266c3.56-4.4,2.943-12.23,1.871-19.315a15.186,15.186,0,0,1-7.569-2.123,8.492,8.492,0,0,1-3.617-4.64,11.021,11.021,0,0,1,.61-7.637,18.62,18.62,0,0,1,5.832-7.344c-1.184-1.226-2.374-2.25-3.525-3.241l0,0-.013-.011a25.94,25.94,0,0,1-5.956-6.5c-3.3-5.5-5.575-11.88-7.983-18.634l0-.011,0-.007c-4.772-13.383-9.707-27.222-23.143-33.463-13.13-6.1-40.595-7.011-55.8-7.011-10.783,0-21.975.435-30.705,1.193a152.144,152.144,0,0,0-38.251,8.25c0,1.132,2.212,1.3,3.044,1.367l.047,0c5.543.43,11.322.7,16.912.957l.078,0h.019c8.757.405,17.813.825,26.329,1.867.532.065,1.117.124,1.683.181l.041,0h0a37.744,37.744,0,0,1,5.7.871c2.108.557,3.47,1.375,4.165,2.5a4.863,4.863,0,0,1,.018,4.414c-1.364,3.53-5.06,8.932-8.635,14.157l-.024.036c-2.093,3.061-4.071,5.951-5.4,8.216-1.711,2.922-3.408,6.2-5.2,9.666l-.012.024-.014.028,0,0a138.921,138.921,0,0,1-8.547,15.026,13.834,13.834,0,0,1-5.085,4.739,14.049,14.049,0,0,1-6.477,1.251c-.553,0-1.127-.015-1.757-.046-9.8-.476-22.595-2.584-33.885-4.445h-.009c-3.867-.638-7.864-1.3-11.483-1.842-2.056-.31-4.96-.98-8.034-1.691C97.858,170.594,92.7,169.4,89.824,169.4c-.145,0-.275,0-.388.008-2.194.1-6.285,1.355-9.572,2.365l-.014,0h0l-.012,0c-1.064.327-2.163.665-3.018.9-2.35.654-11.666,3.666-20.359,6.855-7.741,2.84-16.975,6.551-17.008,8.1,1.536.5,2.716,2.138,3.506,4.882a38.073,38.073,0,0,1,1.09,6.56v.022a7.3,7.3,0,0,0,.285,1.872c.639.76,9.127,1.9,18.114,3.111l.016,0h.009l.017,0c9.7,1.3,19.72,2.652,22.145,3.768a17.086,17.086,0,0,0,3.679-3.44,24.046,24.046,0,0,1,3.277-3.261c4.612-3.585,12.686-5.994,20.09-5.994a23.279,23.279,0,0,1,11.951,2.823,12.671,12.671,0,0,1,4.081,3.842,12.968,12.968,0,0,1,2.012,5.74,22.134,22.134,0,0,1-.447,8.281,14.274,14.274,0,0,1-3.132,5.857c-3.98,4.451-11.077,6.708-21.094,6.708a83.214,83.214,0,0,1-9.433-.58c-4.324-.5-8.754-.9-13.038-1.3l-.063-.006-.076-.007h-.011c-9.455-.865-19.231-1.76-28.661-3.691l-.612-.123-.012,0L53,222.684l-.025,0-.182-.036-.029-.006-.032-.006c-1.982-.4-5.3-1.06-8.262-1.872-3.611-.988-5.8-1.947-6.494-2.849a1.807,1.807,0,0,1-.118-1.856c.083-.234.149-.419.082-.513a.236.236,0,0,0-.205-.07h-.025a13.62,13.62,0,0,1-5.77,1.269,30.881,30.881,0,0,1-7.023-1.11l-.007,0-.075-.017-.354-.083-.2-.046C24.348,216.895,24.371,218.387,24.389,219.587Zm162.271,21.97-1.8,6.219,68.911-12.37.7-4.8Zm93.13-29.346c-2.743.722-4.213,3.368-4.963,5.46a20.449,20.449,0,0,0-.9,9.084,13.776,13.776,0,0,0,2.019,6,5.3,5.3,0,0,0,4.348,2.583h.1c5.484,0,8.33-6.07,8.654-11.71.234-4.071-.8-7.738-2.757-9.809a5.855,5.855,0,0,0-4.4-1.9A8.281,8.281,0,0,0,279.79,212.212ZM107.515,201.925c-10.392,1.241-17.184,7.654-20.187,19.06l.016,0a112.335,112.335,0,0,0,15.843,1.4c8.712,0,14.634-1.779,17.6-5.286,2-2.365,2.675-5.557,2-9.485a6.244,6.244,0,0,0-3.962-4.8,17.376,17.376,0,0,0-6.891-1.164A37.4,37.4,0,0,0,107.515,201.925Zm-64.232,5.99c-.33.031-.8,1-1.017,2.111-.142.717-.483,3.119,1.095,3.948,1.909,1,8.882,2.227,13.047,2.959l.017,0,.016,0,.088.015c.828.145,1.544.272,2.078.371,2.393.445,17.558,3,21.313,3a1.631,1.631,0,0,0,.8-.11,42.811,42.811,0,0,0,1.445-6.11Zm-16.857,1.3a10.871,10.871,0,0,0,4.223.981,6.266,6.266,0,0,0,5.916-4.084c1.965-4.426.913-11.145-2.3-14.67C31.339,194.791,26.426,201.561,26.426,209.21ZM304.671,182.49a7.374,7.374,0,0,0-.525,4.451,3.1,3.1,0,0,0,3.267,2.473c.155,0,.308-.007.455-.019a1.629,1.629,0,0,0,1.306-.718c1.082-1.651-.335-5.751-1.182-8.2l0-.006,0-.013-.014-.039c-.191-.554-.355-1.029-.451-1.365A6.791,6.791,0,0,0,304.671,182.49Zm-122.573-.7c.545.541,5.794.787,10.442.787a43.276,43.276,0,0,0,7.514-.4,6.56,6.56,0,0,0,4.065-4.474,4.074,4.074,0,0,0-.839-3.98c-1.033-1.1-2.688-1.613-5.207-1.613a44.8,44.8,0,0,0-4.547.323l-.033,0a44.411,44.411,0,0,1-4.447.32,8.443,8.443,0,0,1-3.491-.586Zm22.952-14.934c2.67,1.211,4.445,2.842,5,4.594a14.4,14.4,0,0,1,.321,2.474v.008l0,.026c.133,1.637.27,3.33.754,3.635a2.472,2.472,0,0,0,.9.088c1.936,0,6.489-.439,10.144-.874a55.961,55.961,0,0,0,8.362-1.352c1.716-.834,3.324-3.867,4.879-6.8,1.636-3.086,3.181-6,4.679-6,.037,0,.078,0,.122.007a3.49,3.49,0,0,1,1.458.559l0,0a3.793,3.793,0,0,0,2.118.648,6.89,6.89,0,0,0,1.731-.254c5.426-1.41,7.221-7.068,6.763-10.636-.335-2.6-1.737-4.16-3.751-4.16a5.467,5.467,0,0,0-2.154.5,7.606,7.606,0,0,0-2.264,1.881c-1.019,1.086-2.072,2.209-3.542,2.21a3.125,3.125,0,0,1-.625-.065c-.809-.165-1.693-1.16-2.625-2.957a36.663,36.663,0,0,1-2.351-6.1c-1.4-4.645-2.2-9.5-1.874-11.294a47.411,47.411,0,0,0-6.461,1.3l-.007,0h0l-.009,0h0a41.576,41.576,0,0,1-9.5,1.592,10.943,10.943,0,0,1-4.871-.987,10.48,10.48,0,0,1-2.175-1.894l0,0,0,0,0,0a3.713,3.713,0,0,0-.728-.675,16.457,16.457,0,0,0-2.554,2.853,24.325,24.325,0,0,0-2.6,3.773c-.045.123-.05.2-.014.231a4.268,4.268,0,0,0,1.254.163,14.587,14.587,0,0,0,2.288-.252h0l.088-.015a13.276,13.276,0,0,1,2.048-.238,1.969,1.969,0,0,1,1.479.471,2.146,2.146,0,0,1,.481,1.6c-.015,1.254-.968,2.3-2.831,3.111a19.115,19.115,0,0,1-4.671,1.214,4.946,4.946,0,0,1-.676.046,7.615,7.615,0,0,1-1.53-.184l-.125-.025a5.984,5.984,0,0,0-1.147-.16c-.87,0-1.458.476-2.03,1.644a61.58,61.58,0,0,0-2.221,9.776c-.877,5.181-1.134,8.536-.689,8.974a9.6,9.6,0,0,1,1.713-.14A19.079,19.079,0,0,1,205.051,166.86Zm-43.159-1.7c.513,1.077-1.6,3.66-3.145,5.546a7.6,7.6,0,0,0-1.488,2.1.076.076,0,0,0,.03.054,9.871,9.871,0,0,0,1.583.14c2.521,0,3.764-1.218,5.444-3.778.635-.967,3.413-6.048,3.008-6.685-2.667-1.791-4.778-2.625-6.643-2.625-2.451,0-4.672,1.446-7.2,4.689-1.047,1.344-3.519,5.454-2.884,6.749a.735.735,0,0,0,.727.387,4.56,4.56,0,0,0,1.835-.586,7.667,7.667,0,0,0,1.942-2.218l0,0c1.236-1.739,2.773-3.9,4.741-4.2a5.793,5.793,0,0,1,.838-.071C161.326,164.657,161.733,164.826,161.891,165.158Zm-16.047-1.131a9.937,9.937,0,0,0-2.258,4.19c-.186.915-.171,2.1.958,2.581a1.609,1.609,0,0,0,.624.144c1.038,0,1.332-1.488,1.615-2.928v-.006a10.875,10.875,0,0,1,.522-2.006,23.688,23.688,0,0,1,2.32-4l.007-.011.074-.111a1.959,1.959,0,0,0-.3-.022A5.389,5.389,0,0,0,145.844,164.027Zm-47.136-.1,38.588,5.5c.292-6.87,3.526-11.336,9.886-13.652,5.484-2,12.329-2.077,18.368-2.147h.008c.051-2.1.018-4.238-.014-6.308v-.045c-.032-2.1-.066-4.266-.015-6.392a11.128,11.128,0,0,1,.4-2.375v0a9.452,9.452,0,0,0,.385-2.419c-.006-.294-.478-.817-1.076-1.479l0,0a8.992,8.992,0,0,1-2.294-3.459,11.547,11.547,0,0,1,.2-5.011l.006-.035v0c.124-.65.252-1.322.334-2.02a161.543,161.543,0,0,1-18.512-1.628c-4.783-.607-9.728-1.234-14.556-1.488Zm-8.461-8.5A6.411,6.411,0,0,0,87,160.2a4.369,4.369,0,0,0,1.165,3.1,2.5,2.5,0,0,0,1.776.868,2.066,2.066,0,0,0,1.1-.332,16.992,16.992,0,0,0,1.463-2.605c1.426-2.757,3.58-6.922,4.82-7.6a6.945,6.945,0,0,0-1.113-.085A11.361,11.361,0,0,0,90.248,155.42Zm161.462-34.1,4.778,8.63c1.014,2.443.1,6.529-.628,9.813l0,.012a18.584,18.584,0,0,0-.7,4.534,8.1,8.1,0,0,0,1.412,2.818,12.068,12.068,0,0,1,1.987,4.126c.506,3.184-.259,5.705-1.146,8.624-.049.161-.1.322-.147.485l-.013.043-.025.083,22.048,3.437c.778-.724-6.116-18.728-6.186-18.91-.319-.829-.624-1.642-.99-2.62-1.872-5-3.807-10.166-6.852-14.211-3.478-4.621-7.822-6.867-13.28-6.867ZM95.337,98.874a15.678,15.678,0,0,0-.907,5.2c0,1.6.316,5.324,3.245,5.324a2.651,2.651,0,0,0,2.175-.971c1.174-1.455,1.067-4.355.618-6.4a38.226,38.226,0,0,0-2.461-5.453,1.018,1.018,0,0,0-.593-.208h0C96.687,96.372,95.93,97.284,95.337,98.874ZM98.2,90.548a7.641,7.641,0,0,1,5.029,3.1,20.943,20.943,0,0,1,2.493,5.145l0,.006,0,.007c1.146,3.035,2.227,5.9,5.184,6.562a34.485,34.485,0,0,0,6.951.519c5.755,0,12.953-.607,17.254-.969l.022,0,.026,0,.06-.006.713-.059.029,0,.294-.025c7.181-.6,14.391-1.777,21.365-2.915l.012,0h.026c6.861-1.12,13.954-2.278,21.016-2.886a21.443,21.443,0,0,0,2.032-11.369A27.967,27.967,0,0,1,172.5,89c-3.606,0-8.278-.949-10.054-5.471-1.416-3.6-1.217-7.019.561-9.617a8.924,8.924,0,0,1,3.653-3.043,12.6,12.6,0,0,1,5.377-1.111c.13,0,.264,0,.413.006a21.609,21.609,0,0,0-6.419-4.245c-5.141-2.332-9-3.327-12.9-3.327a47.456,47.456,0,0,0-7.83.885l-.01,0-.016,0-.009,0-.019,0c-2.186.367-4.664.782-7.684,1.1-1.692.176-3.411.365-5.027.542h-.014c-6.157.674-12.523,1.371-18.275,1.634-.25.011-.492.024-.784.039l-.088,0-.034,0-.208.011h-.014l-.268.014h-.026c-1.389.075-2.962.159-4.6.159-3.467,0-8.368-.346-10.9-3.342-.831-.982-3.361-5.842-5.887-11.306-2.192-4.741-4.478-10.183-4.318-11.236a4.024,4.024,0,0,1,3.134-3.086c5.067-1.332,11.756-1.7,18.224-2.054h.013c4.268-.234,8.3-.456,11.846-.934.117-.015.267-.033.554-.065h.007c1.277-.142,3.653-.406,4-1.215a105.284,105.284,0,0,0-36.222-6.006,142.227,142.227,0,0,0-23.859,2.09l-.234.04C57.423,30.7,48.521,32.222,43.59,37.812c1.324,1.9,2.448,2.78,3.54,2.78a5.226,5.226,0,0,0,2.848-1.408,11.705,11.705,0,0,1,3.362-1.94,25.736,25.736,0,0,1,7.3-.813,55.166,55.166,0,0,1,8.437.655,21.118,21.118,0,0,1,6.455,1.85,17.817,17.817,0,0,1,4.2,4.237A78.2,78.2,0,0,1,84.8,50.554c2.949,4.828,5.949,10.834,5.522,13.211a3.433,3.433,0,0,1-2.113,2.727,9.218,9.218,0,0,1-3.588.557c-.465,0-.933-.014-1.311-.026H83.3l-.066,0h-.017a87.617,87.617,0,0,1-9.713-1.08h-.028l-.024,0c-2.722-.4-5.536-.82-8.14-1-.081-.006-.182-.015-.345-.032h-.006a12.412,12.412,0,0,0-1.259-.082,1.875,1.875,0,0,0-1.378.356.57.57,0,0,0-.134.465,96.968,96.968,0,0,1,13.79,6.291c5.426,3.1,9.18,6.377,11.159,9.726a30.228,30.228,0,0,1,1.983,6.259v.008l0,.011a12.178,12.178,0,0,0,.693,2.388,5.952,5.952,0,0,0,1.956.14c.59,0,1.277-.009,1.809-.016h.058c.659-.009,1.355-.017,1.975-.017A17.632,17.632,0,0,1,98.2,90.548ZM73.388,84.38a6.456,6.456,0,0,0-.976,3.813,7.555,7.555,0,0,0,.744,3.966,5.6,5.6,0,0,0,4.564,1.811,5.989,5.989,0,0,0,4.262-1.492,3.078,3.078,0,0,0,.868-2.351,9.332,9.332,0,0,0-1.86-5.121,5.285,5.285,0,0,0-4.086-2.381A4.853,4.853,0,0,0,73.388,84.38ZM173.632,73.321a2.061,2.061,0,0,0-1.768,1.224l0,0a1.279,1.279,0,0,1-.349.461c-.488.308-.947.547-1.391.779l-.007,0-.028.015,0,0a5.491,5.491,0,0,0-2.075,1.493,4.066,4.066,0,0,0-.386,3.085,2.725,2.725,0,0,0,1.77,2.019,8.51,8.51,0,0,0,3.415.614c2.573,0,5.058-.778,5.907-1.848.765-.966.731-2.616-.091-4.306C177.762,75.09,176,73.3,174.015,73.3A2.96,2.96,0,0,0,173.632,73.321ZM156.874,56.1a48.924,48.924,0,0,1,14.487,4.872,29.3,29.3,0,0,1,11.3,9.959,23.09,23.09,0,0,1,1.171,2.492l0,.01,0,.006c.743,1.725,1.585,3.68,2.1,3.809,4.688-.531,9.455-1,14.066-1.447h.011l.125-.012.027,0h.02c10.107-.987,20.555-2.007,30.7-3.74,5.56-1.734,8.153-4.976,8.406-10.512-.87.156-1.716.348-2.534.534l-.008,0h-.011a23.728,23.728,0,0,1-5.178.787,8.8,8.8,0,0,1-5.334-1.7,9.514,9.514,0,0,1-1.8-2.1l0-.006c-.523-.733-.975-1.366-1.272-1.417a1.742,1.742,0,0,0-.289-.02,18.411,18.411,0,0,0-3.2.569h-.012a22.557,22.557,0,0,1-3.407.62c-1.525.066-2.908.1-4.228.1a53.558,53.558,0,0,1-9.923-.816A11.977,11.977,0,0,1,201,62.24a10.366,10.366,0,0,1-9.533,5.987,12.587,12.587,0,0,1-4.532-.873,12.247,12.247,0,0,1-6.251-4.915,9.258,9.258,0,0,1-1.223-6.417A10.184,10.184,0,0,1,183,49.952a12.673,12.673,0,0,1,7.822-2.81c.109,0,.221-.006.334-.006a9.69,9.69,0,0,1,5.76,1.952,19.689,19.689,0,0,1,3.454,3.392l0,0,0,0,.007.007,0,.006c.617.729,1.063,1.256,1.347,1.275h.017a3.025,3.025,0,0,0,.917-.365,7.032,7.032,0,0,1,2.5-.845c.464-.028,1.26-.041,2.58-.041l1.315,0h1.04c.677,0,1.467.006,2.289.006,4.387,0,9.521-.081,10.291-.713a2.643,2.643,0,0,0,.221-.649l0-.012,0-.014a10.746,10.746,0,0,1,1.224-3.033,12.749,12.749,0,0,1,4.019-3.35l.012-.007,0,0a25.146,25.146,0,0,0,2.157-1.445c0-.747-4.255-2.727-8.244-4.33-4.59-1.845-8.934-3.275-10.1-3.329-.134-.006-.269-.009-.413-.009a38.545,38.545,0,0,0-6.632.953,49.932,49.932,0,0,1-5.269.866c-1.6.13-3.413.3-5.167.46h-.011l-.183.017H194.3c-6.03.56-12.864,1.194-18.672,1.194a49.017,49.017,0,0,1-5.605-.276,7.558,7.558,0,0,1-4.185-2.369,26.136,26.136,0,0,1-3.794-4.937,61.8,61.8,0,0,1-5.082-10.591c-.058-.16-.128-.347-.226-.607-.712-1.887-1.448-3.838.224-5.556.793-.815,3.54-1.361,8.4-1.669,4.1-.259,8.821-.294,12.613-.322h.09c2.253-.017,4.032-.03,5.067-.089l7.238-1.359C182.133,8.469,172.36,7,161.317,7c-2.324,0-4.732.066-7.159.2-14.317.765-28.353,3.339-34.067,16.873.075,1.069,6.5,2.909,7.828,3.142a30.546,30.546,0,0,0,2.791-5.57l0-.011c1.6-3.877,2.866-6.939,8.091-6.939a17.386,17.386,0,0,1,2.228.158c3.058.4,6.01,2.5,8.773,6.252a42.98,42.98,0,0,1,5.249,10c1.356,3.634,1.482,6.165.386,7.738-1.3,1.873-4.226,2.113-6.627,2.113-1.437,0-2.992-.1-4.5-.2h-.04l-.043,0c-1.374-.088-2.795-.178-4.173-.2,1.58,1.225,3.708,4.638,5.765,7.939l.006.009.008.013,0,0c2.049,3.287,3.983,6.392,5.247,7.156a4.092,4.092,0,0,0,2.142.421c.408,0,.825-.02,1.228-.04l.033,0h.016l.035,0c.4-.019.815-.039,1.2-.039A6.766,6.766,0,0,1,156.874,56.1ZM188.1,53.428a4.486,4.486,0,0,0-3.332,4.642,4.065,4.065,0,0,0,3.2,4.122,12.773,12.773,0,0,0,2.407.247,5.89,5.89,0,0,0,4.44-1.6,3.975,3.975,0,0,0,1.048-3.038c-.167-2.3-2.167-4.635-5.667-4.635A9.121,9.121,0,0,0,188.1,53.428ZM66.316,42.962,64.244,58.768l18.608,2.066c.314-.315-3.464-7.068-4.013-8.019-.187-.323-.352-.611-.49-.854l-.006-.01-.032-.055c-2.642-4.621-5.138-8.985-10.906-8.985C67.045,42.912,66.679,42.929,66.316,42.962Zm63.612-4.008L94.572,42.97c-.074.069-.051.31.071.714,1.007,3.336,8.305,16.78,9.187,16.923L143.5,57.4a2,2,0,0,0-.491-1.764l0,0L143,55.619c-.1-.139-.214-.312-.317-.492-.53-.933-3.4-4.842-6.4-8.712C132.742,41.846,130.366,39.057,129.928,38.954ZM53.813,43.23c-2.3,1.087-3.863,2.232-3.981,2.918a64.537,64.537,0,0,1,3.434,5.641l0,.007,0,0,.011.019,0,.006,0,0c1.961,3.4,3.988,6.92,4.409,6.932h.016c.718,0,.915-1.5,1.01-2.215v-.007l0-.017v-.007c.006-.048.012-.093.018-.133l.06-.427,0-.036c.205-1.48.461-3.32.772-5.552l.007-.054.029-.207.174-1.253,0-.013.063-.451c.311-2.24.634-4.556.942-6.791a2.3,2.3,0,0,0-.938-.162A17.108,17.108,0,0,0,53.813,43.23Zm179.1,6.073c-3.457.679-4.5,2.811-4.34,4.432A3.277,3.277,0,0,0,232,56.688a5.891,5.891,0,0,0,2.73-.755c2.129-1.12,3.422-3.225,3.007-4.9-.3-1.214-1.458-1.91-3.172-1.91A8.613,8.613,0,0,0,232.918,49.3Zm-94.8-28.9a36.945,36.945,0,0,0-2.7,5.2,58.358,58.358,0,0,0-2.482,5.849c-.024.118-.047.22-.066.306-.154.679-.239,1.053.583,1.614,1.27.865,4.875,1.009,8.362,1.147h.011c3.092.123,6.289.251,7.885.877a.288.288,0,0,0,.042-.2c-.051-1.653-4.436-12.24-5.747-13.339a12.151,12.151,0,0,0-5.169-1.59A1.463,1.463,0,0,0,138.115,20.4Zm58.655-2.729L162.8,18.914l6.141,13.292,1.03.581,37.623-2.2c-1.406-1.576-2.7-3.323-3.945-5.012l0-.007-.014-.019-.012-.016,0,0-.009-.012A42.875,42.875,0,0,0,196.77,17.676ZM224.5,194.76c.826-5.085,9.7-6,13.6-4.545,2.307.86,2.5,4.426,1.033,5.862-.892.87-5.657,2.267-9.521,2.268C226.559,198.345,224.064,197.468,224.5,194.76Zm-8.378-23.9a3.784,3.784,0,0,0-2.108.238c-1.346.4-2.649.8-3-1.336-.813-4.9,6.9-4.22,9.463-1.5,1.666,1.77,2.007,3.988-.875,4.6a4.849,4.849,0,0,1-.995.119C216.664,172.977,217.158,171.19,216.127,170.856Zm-13.9-9.477c-.678-2.281.515-3.754.461-5.391-.06-1.852-3.482-6.333,1.263-7.716,11.68-3.405,2.189,9.224,2.289,10.512.112,1.443,1.5.881,3.01.32,1.555-.579,3.236-1.158,3.775.459,1.066,3.2-2.091,4.914-5.284,4.915C205.306,164.478,202.851,163.481,202.226,161.379Zm40.617-5.256c1.411-2.631,5.306-3.955,8.169-3.872a2.67,2.67,0,0,1-1,2.774c-.3.286-5.77,4.081-6.111,4.228a2.534,2.534,0,0,1-.962.245C241.586,159.5,242.215,157.3,242.843,156.123Zm-27.54-2.3c-.685-4.441,4.36-6.394,8.052-5.6,3.129,4.745-1.12,8.92-4.559,8.921C217.136,157.14,215.666,156.168,215.3,153.818Zm-.038-13.852c1.22-1.914,4.019.865,5.226,1.146,1.318.307,13.873-.6,8.986,4.093-.838.8-2.657,1.185-4.742,1.185C219.534,146.39,212.679,144.024,215.265,139.966ZM16.587,105.027a17.2,17.2,0,0,1-9.849-2.975,10.362,10.362,0,0,1-4.573-8.568,12.48,12.48,0,0,1,2.573-7.727,11.068,11.068,0,0,1,6.953-4.137,18.551,18.551,0,0,1,3.124-.264A18.133,18.133,0,0,1,21.193,82.5a13.856,13.856,0,0,1,5.185,3.357,11.123,11.123,0,0,1,2.39,3.8,12.082,12.082,0,0,1,.706,4.885,10.108,10.108,0,0,1-4.2,7.931,14.866,14.866,0,0,1-8.688,2.556ZM14.7,87.438a13.833,13.833,0,0,0-3.026.351,4.549,4.549,0,0,0-3.9,5.117c.345,3.082,3.346,6.357,8.226,6.357.095,0,.191,0,.287,0a8.687,8.687,0,0,0,5.357-1.648A4.428,4.428,0,0,0,23.29,94.1a6.2,6.2,0,0,0-2.319-4.523A9.593,9.593,0,0,0,14.7,87.438h0Zm21.6,8.486c-4.216-.552-5.11-5.294-1.209-6.055,1.863.429,6.356-.127,11.15-.682,6.869-.795,14.358-1.59,15.625.508a4.04,4.04,0,0,1-.551,3.963c-1.4,1.2-17.25,2.337-23.17,2.337A16.527,16.527,0,0,1,36.3,95.925Zm87.588-.734a17.6,17.6,0,0,1-3.16-.3,14.2,14.2,0,0,1-8.462-4.587,10.671,10.671,0,0,1-2.591-7.349,9.5,9.5,0,0,1,2.719-6.277,11.958,11.958,0,0,1,7.534-3.28c.642-.061,1.279-.092,1.893-.092a13.162,13.162,0,0,1,9.373,3.42,11.3,11.3,0,0,1,3.421,7.524,10.474,10.474,0,0,1-2.715,7.805,10.694,10.694,0,0,1-8.011,3.139ZM120.3,79.12a4.677,4.677,0,0,0-4.54,2.5,3.566,3.566,0,0,0,.111,3.639,6.823,6.823,0,0,0,3.329,2.467,12.512,12.512,0,0,0,4.517.869,5.39,5.39,0,0,0,3.774-1.12,3.334,3.334,0,0,0,.916-3.834,7.048,7.048,0,0,0-3.219-3.194A10.519,10.519,0,0,0,120.3,79.12Zm21.448,8.557c-2.755-.364-5.1-3.193-2.892-5.367,1.242-1.222,18.409-2.381,19.876-.577,4.1,5.042-7.591,6.077-13.795,6.077A28.864,28.864,0,0,1,141.745,87.677Z" transform="translate(16.464 38.727)" fill="#040404" stroke="rgba(0,0,0,0)" stroke-miterlimit="10" stroke-width="1"/>
  </g>
</svg>
