<svg xmlns="http://www.w3.org/2000/svg" xmlns:xlink="http://www.w3.org/1999/xlink" width="350" height="350" viewBox="0 0 350 350">
  <defs>
    <clipPath id="clip-Tavola_da_disegno_12">
      <rect width="350" height="350"/>
    </clipPath>
  </defs>
  <g id="Tavola_da_disegno_12" data-name="Tavola da disegno – 12" clip-path="url(#clip-Tavola_da_disegno_12)">
    <path id="Unione_11" data-name="Unione 11" d="M22433.4,23452.283h-.014l-.061-.006c-4.393-.328-8.539-.635-11.637-.723-53.861-1.5-111.863-3.205-171.045-5.506-.437-.018-.9-.021-1.434-.021-1.342,0-2.932.049-4.467.1h-.008l-.346.01c-1.836.059-3.637.115-5.4.115-3.086,0-7.469-.148-9.893-1.412a8.469,8.469,0,0,1-4.533-6.582,33.3,33.3,0,0,1,.189-8.752v-.01a43.471,43.471,0,0,0,.367-5.445,68.17,68.17,0,0,0-10.354-.59h-.018c-4.1-.068-8.746-.148-12.568-.586-4.4-.5-7.029-1.4-8.051-2.758-1.148-1.518-1.416-3.508-.818-6.072a37.786,37.786,0,0,1,2.633-6.787l.008-.01c.672-1.447,1.309-2.816,1.717-4.016,10.725-31.807,17.785-66.09,23.275-95.43,5.266-28.121,9.2-51.8,11.281-75.961-6.889-1.709-6.7-5.527-6.424-11.314l.01-.211c.018-.355.037-.766.055-1.174.115-2.857.732-9.826,1.646-17.111.6-4.846,1.789-13.371,2.951-16.031a9.972,9.972,0,0,1,6.26-5.539,29.351,29.351,0,0,1,9.7-1.256c2.172,0,4.383.1,6.523.2h.016l.086.008.051,0c2.18.1,4.234.189,6.225.189a24.3,24.3,0,0,0,8.068-1.018c.318-7.256,2.758-13.338,7.053-17.582a20.2,20.2,0,0,1,28.48,0c4.264,4.254,6.66,10.363,6.928,17.658l88.959.055c1.154-6.686,3.563-12.381,6.965-16.477a20.162,20.162,0,0,1,6.547-5.268,19.688,19.688,0,0,1,8.807-1.975c.68,0,1.383.027,2.088.088,11.994,1.027,17.49,13.285,18.557,23.473.318.2,1.779.3,4.467.3,2.4,0,5.52-.08,8.027-.141l.3,0h0l.033-.006c2.713-.062,5.281-.131,7.158-.131,1.057,0,1.8.023,2.285.068,3.119.268,11.68,3.945,15.209,5.516a148.535,148.535,0,0,1,15,7.461c4.24,2.73,4.344,4.189,4.689,9.012l.029.418,0,230.516a9.583,9.583,0,0,1-3.205,7.008c-1.215,1-5.924,3.564-12.6,6.875-5.895,2.928-11.582,5.568-13.518,6.268-3.066,1.121-7.812,1.664-14.516,1.664C22448.176,23453.385,22440.324,23452.8,22433.4,23452.283Zm-200.844-23.031c-.672,4.051-1.3,7.873,3.98,8.918,39.691.889,79.963,2.219,118.9,3.5h0l.4.01c29.479.971,59.961,1.979,90.166,2.791,1.02.029,2.6.2,4.426.387,2.84.3,6.373.672,9.27.672,2.674,0,4.367-.311,5.18-.951l14.047-248.609-3.527-1.564c-1.824,33.117-3.646,60.918-6.623,88.949-3.484,32.869-8.162,61.609-14.312,87.865-2.693,11.5-5.748,24.533-9.457,36.135-.24.744-.475,1.529-.73,2.357v0l-.021.076-.006.006c-2.316,7.6-5.488,18.018-13.969,18.977a60.95,60.95,0,0,1-6.867.355c-4.064,0-8.207-.309-12.211-.607-3.281-.24-6.668-.494-9.916-.564-23.092-.506-46.541-1.156-69.217-1.789l-.225,0-.559-.016c-16.4-.459-33.363-.928-50.047-1.338-7.062-.176-14.254-.234-21.209-.3h-.154c-8.828-.08-17.959-.156-26.924-.465A19.664,19.664,0,0,1,22232.557,23429.252Zm254.34-226.965a21.954,21.954,0,0,0-.5,3.535c-1.469,17.109-1.955,34.8-2.424,51.92-.533,19.439-1.08,39.545-3.07,58.967l-6.277,123.078a37.665,37.665,0,0,1,5.178-2.619c4.7-2.109,10.023-4.5,10.52-8.766l.449-225.777c-1.029-1.379-1.877-2.076-2.529-2.076C22487.648,23200.549,22487.2,23201.117,22486.9,23202.287Zm-260.516,121.8c-3.182,15.746-6.742,31.113-10.576,45.686-4.072,15.449-8.592,30.537-13.443,44.846,8.045.314,16.246.381,24.176.447h.016c6.607.055,13.443.109,20.17.309,47.523,1.424,98.471,2.881,149.072,3.932,3.6.074,7.363.334,11,.58h.049c4.5.311,9.145.627,13.689.627,2.713,0,5.145-.111,7.443-.338a7.233,7.233,0,0,1,.736-.037h.01a5.384,5.384,0,0,0,1.408-.164c2.186-.654,5.719-11.051,6.877-14.465l.006-.01.021-.064c.053-.154.1-.3.141-.422,3.457-10.109,6.283-21.932,8.656-32.221,10.746-46.48,15.131-94.746,19.365-141.416l-224.395-.01C22236.834,23265.408,22232.113,23295.736,22226.381,23324.088Zm13.377-135.846c-.781.262-1.385,1.182-1.842,2.813a30.639,30.639,0,0,0-.762,4.242l-.006.055c-.055.436-.105.813-.156,1.129-1.357,8.555-2.008,18.064-2.465,26.236H22465.2l2.289-32.7a2.776,2.776,0,0,0-.852-1.764c-.43-.525-.889-.934-1.043-.934h-56.885a10.445,10.445,0,0,0,1.01,4.307,17.515,17.515,0,0,0,2.689,4.672,2.807,2.807,0,0,0,1.881,1.2,1.3,1.3,0,0,0,.2-.016,5.072,5.072,0,0,0,2.049-1.262,6.256,6.256,0,0,1,4.055-1.912,7.169,7.169,0,0,1,3.781,1.309,8.609,8.609,0,0,1,3.563,4.338,8.449,8.449,0,0,1,.2,5.072,7.947,7.947,0,0,1-2.508,4,7.6,7.6,0,0,1-4.729,1.76c-.109,0-.221,0-.346,0-4.406,0-9.408-2.566-13.715-7.045a30.464,30.464,0,0,1-5.551-7.977,18.7,18.7,0,0,1-1.992-8.445h-120.436a.9.9,0,0,0-.951.785c-.219.928.219,2.674,1.164,4.674.857,1.811,1.9,3.3,2.533,3.611a2.738,2.738,0,0,0,1.258.309,6.073,6.073,0,0,0,2.658-.9l.01-.01.074-.035c.051-.023.1-.053.154-.08a7.394,7.394,0,0,1,3.438-1.023,6.6,6.6,0,0,1,3.326,1.006,7.794,7.794,0,0,1,3.314,3.818,8.7,8.7,0,0,1,.514,4.846,7.349,7.349,0,0,1-1.83,3.729,6.7,6.7,0,0,1-3.937,2.033,12.3,12.3,0,0,1-2.006.164c-3.666,0-7.457-1.607-10.967-4.641a29.929,29.929,0,0,1-7.293-9.723,28.5,28.5,0,0,1-1.014-3.068l-.006-.016c-.723-2.43-1.537-5.189-2.3-5.426Zm40.23-19.389a12.958,12.958,0,0,0-3.521,9.844l23.967-.027c-.562-3.893-1.738-9.051-4.191-11.525a9.359,9.359,0,0,0-6.773-2.908A13.239,13.239,0,0,0,22279.988,23168.854Zm128.721,9.822h23.539c-.229-9.734-6.229-14.166-11.713-14.166C22415.023,23164.51,22408.969,23168.941,22408.709,23178.676Zm6.289,185.992a3.7,3.7,0,0,1-.75-3.006c1.2-2.6,1.924-9.094,2.688-15.975.895-8,1.813-16.279,3.555-17.957a4.59,4.59,0,0,1,2.123-1.023,11.055,11.055,0,0,1,2.436-.266,14.881,14.881,0,0,1,7.957,2.455,12.3,12.3,0,0,1,5.141,6.277,23.745,23.745,0,0,1,.754,9.938,31.39,31.39,0,0,1-3.107,10.525,21.987,21.987,0,0,1-4.084,5.729,14.136,14.136,0,0,1-5.57,3.484,24.635,24.635,0,0,1-6.822,1.211C22417.271,23366.061,22415.818,23365.594,22415,23364.668Zm9.584-27.307c-.025.279-.047.518-.074.684-1.131,7.033-1.957,14.012-2.455,20.732,2.664-.041,5.189-1.779,7.107-4.893a21.8,21.8,0,0,0,3.008-10.027A13.812,13.812,0,0,0,22431,23337a5.852,5.852,0,0,0-4.645-3.393c-.041,0-.082,0-.129,0C22424.939,23333.605,22424.717,23335.955,22424.582,23337.361Zm-55.789,21.91c.416-4.764,4.18-26.865,5.787-30.375,1.418-3.1,4.871-3.422,6.254-.768,2.072,3.967,2.8,16.332,3.561,21.209,1.174.033,1.148-2.8,1.32-3.775.57-3.312,2-17.533,4.152-18.656,2.488-1.3,4.389.354,4.473,3,.1,3.115-1.678,11.223-2.238,14.98-.457,3.074-2.705,18.33-4.1,19.479-1.59,1.3-5.605,1.346-6.049-1.182l-3.85-21.7-3.855,20.893c-1.4,2.107-2.6,3.016-3.51,3.016C22369.227,23365.393,22368.475,23362.922,22368.793,23359.271Zm-23.352,2.619a16.3,16.3,0,0,1-2.477-7.98,37.555,37.555,0,0,1,3.174-17.588,24.028,24.028,0,0,1,4.523-6.963,11.085,11.085,0,0,1,6.072-3.447,12.276,12.276,0,0,1,1.953-.168,7.767,7.767,0,0,1,6.072,2.621,13.174,13.174,0,0,1,2.846,6.629c.879,5.105.078,11.641-2.137,17.48a28.513,28.513,0,0,1-4.092,7.5,12.821,12.821,0,0,1-5.588,4.354,12.583,12.583,0,0,1-4.166.8A7.2,7.2,0,0,1,22345.441,23361.891Zm11.266-28.949c-1.7.473-3.383,2.818-4.727,6.609a40.811,40.811,0,0,0-2.109,10c-.273,3.432.031,6.057.838,7.2a3.16,3.16,0,0,0,2.48,1.633c1.447,0,2.775-1.488,3.627-2.74a19.8,19.8,0,0,0,2.246-4.553,47.143,47.143,0,0,0,1.721-8.422c.334-2.982.451-6.926-.9-8.807a2.459,2.459,0,0,0-2.09-1.086A4.055,4.055,0,0,0,22356.707,23332.941Zm39.055,32.131c-.557,0-2.4-2.42-1.928-3.424,2.582-9.4,2.727-19.418,5.043-28.852.25-1.027,1.275-5.477,2.381-5.477h13.729c2.131,7.348-3.752,7.145-7.473,6.934-1.365-.074-2.441-.146-2.719.148s-.611,6.715-.783,7.863c3.02-.959,8.369-.969,7.693,3.355-.545,3.453-3.963,3.18-6.518,2.9-1.293-.141-2.361-.279-2.719.07s-1.307,8.711-1.605,10.182a17.965,17.965,0,0,0,3.582-.018c2.037-.125,4.184-.25,5.09.371,1.951,1.344-.4,5.941-1.221,5.941Zm-75.531-1.115c-.674-.686-.963-1.918-.914-3.869.16-5.943,2.43-17.137,4.121-25.043.092-.428.189-.984.311-1.635.41-2.262.973-5.355,1.732-6.359.686-.9,2.553-1.4,5.254-1.4,3.723,0,8.7,1.035,10.254,2.7a7.367,7.367,0,0,1,1.666,3.539,16.466,16.466,0,0,1,.236,4.6,18.746,18.746,0,0,1-2.566,8.4,10.561,10.561,0,0,1-5.377,4.189,17.641,17.641,0,0,1-5.035.818,4.305,4.305,0,0,0-1.937.311c-.449.373-.635,2.287-.854,4.508-.375,3.887-.838,8.723-2.887,9.434a7.145,7.145,0,0,1-2.258.455A2.282,2.282,0,0,1,22320.23,23363.957Zm10.047-31.1-1.594,11.762a5.413,5.413,0,0,0,.9.074c3.289,0,5.609-3.006,6.2-5.975a5.507,5.507,0,0,0-.832-4.561,4.189,4.189,0,0,0-3.391-1.414A7.864,7.864,0,0,0,22330.277,23332.857Zm-46.67,31.379c-6.326-1.023-5.58-8.361-1.566-8.645a11.965,11.965,0,0,1,3.131.885c3.1,1.07,7.129,2.135,7.4-2.869.242-4.469-7.377-7.586-8.434-12.7-.826-4.01.2-10.377,3.219-13.32,4.207-4.1,14.6-2.76,13.729,3.092-.529,3.479-2.578,2.738-4.729,2-1.891-.646-3.865-1.3-4.943.928-2.828,5.779,4.781,9.418,6.83,13.6,4.516,9.217-3.109,17.223-12.172,17.225A15.366,15.366,0,0,1,22283.607,23364.236Zm21.111-1.537c-1.2-2.453,4.09-24.811,4.254-29.426-.449-1.773-3.521-.848-4.646-1.592-1.812-1.187-.426-5.484,1.994-5.937,1.557-.287,12.836-.271,14.012.113,1.961.648,1.643,4.523.574,5.865-.977,1.232-2.641,1.146-3.906,1.07-.732-.049-1.33-.094-1.58.113-1.111.895-3.012,24.3-4.365,28.264a4.507,4.507,0,0,1-3.887,3.205A2.682,2.682,0,0,1,22304.719,23362.7Zm-48.291-8.105a35.318,35.318,0,0,1,.121-8.9,43.426,43.426,0,0,1,2.215-9.123,27.854,27.854,0,0,1,3.951-7.479,10.364,10.364,0,0,1,5.35-3.941,12.571,12.571,0,0,1,3.141-.432,7.646,7.646,0,0,1,5.525,2.15,11.685,11.685,0,0,1,2.975,5.539c1.229,4.637.9,10.924-.871,16.83-1.846,6.154-4.922,10.836-8.439,12.848a13.244,13.244,0,0,1-6.377,2.049C22259.908,23364.139,22257.211,23360.746,22256.428,23354.594Zm11.273-21.533c-2.275,1.906-4.752,13.564-4.92,16.691-.168,3.148.414,5.746,1.553,6.949a2.058,2.058,0,0,0,1.529.719c1.373,0,2.932-1.457,4.4-4.105,1.055-1.9,2.211-6.135,2.8-10.3.7-4.879.514-8.662-.49-10.383a1.981,1.981,0,0,0-1.746-1.109A5.4,5.4,0,0,0,22267.7,23333.061Zm-31.713,30.445a2.7,2.7,0,0,1-1.916-.82,4.805,4.805,0,0,1-1.148-3.461,154.07,154.07,0,0,1,2.029-15.693,145.983,145.983,0,0,1,3.076-15.455,4.935,4.935,0,0,1,3.564-3.111,18.251,18.251,0,0,1,5.125-.572h.186c3.193.01,5.711.809,7.469,2.371a8.511,8.511,0,0,1,2.717,5.658,14.447,14.447,0,0,1-.439,5.057,18.71,18.71,0,0,1-2.055,4.9c-1.941,3.242-4.6,5.434-7.3,6.006a9.619,9.619,0,0,1-1.857.115h-.881c-1.455,0-2.916.063-3.416.8-.348.5-.473,2.211-.625,4.189-.209,2.77-.469,6.211-1.428,7.9a3.745,3.745,0,0,1-3.1,2.121Zm8-32.2c-.25.234-.635,3.691-.967,6.738-.246,2.217-.479,4.3-.635,5.008,4.262-.6,8.475-4.217,7.854-9-.279-2.129-3.049-3.121-4.838-3.121A2.078,2.078,0,0,0,22243.984,23331.3Zm170.74-21.227c-3.432-2.158.607-24.375-.531-29.154l-9.08,19.59c-1.9,3.609-4.99,6.475-8.937,3.582-4.066-2.973-3.578-18.867-5.9-23.969-1.393,0-3.578,23.658-5.709,27.318-1.406,2.41-4.52,3.57-6.9,1.848-2.637-1.914-1.25-5.449-.867-8.074,1.453-9.916,4.363-26.736,7.191-36.041,2.461-8.105,10.756-8.873,12.764-.975,1.869,7.338,2.346,16.3,4.125,23.793l7.949-18.369c2.57-7.889,10.57-17.225,15.621-5.658-1.045,12.809.662,28.471-.811,40.957-.4,3.395-2.812,6.125-5.8,6.125A5.786,5.786,0,0,1,22414.725,23310.076Zm-51.484-2.193a10.489,10.489,0,0,1-1.6-8.881,11.783,11.783,0,0,1-2.281.154c-1.436,0-3.275-.094-5.059-.186l-.027-.006c-1.8-.094-3.656-.189-5.158-.189a2.879,2.879,0,0,0-4.1,2.828,31.409,31.409,0,0,1-2.275,5.469c-1.186,2.039-2.48,3.031-3.943,3.031a5.011,5.011,0,0,1-3.037-1.285c-2.535-2.018-1.727-4.809-.949-7.512.037-.127.07-.252.107-.377,1.154-4.041,3.521-10.539,6.488-17.824,2.83-6.945,5.74-13.457,7.789-17.41,2.525-4.887,6.145-7.922,9.445-7.922a5.521,5.521,0,0,1,3.873,1.646,13.1,13.1,0,0,1,3.082,5.336c1.016,2.992,2.4,9.648,3.814,18.256,1.26,7.709,2.234,15.252,2.418,18.768.219,4.139-.848,6.178-1.779,7.162a3.647,3.647,0,0,1-2.7,1.2A5.433,5.433,0,0,1,22363.24,23307.883Zm-13.375-18.32,10.2,0c-.33-2.154-.529-4.426-.723-6.619a54,54,0,0,0-2.021-12.25Zm-26.279,19.678c-3.527-.687-5.621-13.193-7.471-16.523-4.631,3.482-8.342,17.518-15.242,16.533-11.762-1.672,9.008-21.68,9.643-25.756.684-4.355-13.285-23.7-3.373-25.391,7.309-1.244,6.957,10.947,10.947,14.936,1.227-.051,6.918-12.725,9.355-14.2,3.879-2.336,9.256.219,7.98,4.781-1.125,4.025-12.42,16.848-12.822,19.387-.324,2.018,6.51,15.135,7.289,19.1.836,4.258-.561,7.318-4.473,7.318A9.5,9.5,0,0,1,22323.586,23309.24Zm-53.568-1.77c-1.082-1.672-1.072-3.744-.977-5.682.611-12.17,5.02-26.4,6.035-38.82.852-5.785,18.352-4.8,22.289-3.727,4.213,1.143,2.076,9.877-1.246,9.877h-12.16l-.795,9.443c.748.023,1.643-.018,2.6-.055,4.033-.172,9.174-.34,9.236,4.355.082,6.291-6.725,5.793-10.945,5.3-1.705-.2-2.988-.4-3.227-.154l-1.574,11a37.33,37.33,0,0,0,4.244.01c3.443-.1,7.553-.2,8.893.971,1.5,1.3,1.262,6.133-.209,7.666-1.1,1.141-3.775,1.535-6.941,1.535A93.24,93.24,0,0,1,22270.018,23307.471Z" transform="translate(-22170.99 -23129.193)" fill="#040404" stroke="rgba(0,0,0,0)" stroke-miterlimit="10" stroke-width="1"/>
  </g>
</svg>
