<svg xmlns="http://www.w3.org/2000/svg" xmlns:xlink="http://www.w3.org/1999/xlink" width="350" height="350" viewBox="0 0 350 350">
  <defs>
    <clipPath id="clip-Tavola_da_disegno_11">
      <rect width="350" height="350"/>
    </clipPath>
  </defs>
  <g id="Tavola_da_disegno_11" data-name="Tavola da disegno – 11" clip-path="url(#clip-Tavola_da_disegno_11)">
    <path id="Unione_10" data-name="Unione 10" d="M228.28,285.288c-1.727-.35-3.572-1.844-5.356-3.289a15.709,15.709,0,0,0-4.486-2.933,5.509,5.509,0,0,0-1.617-.208,22.208,22.208,0,0,0-2.826.26h-.005l-.147.019a24.706,24.706,0,0,1-3.258.279,10.117,10.117,0,0,1-1.718-.136c-1.855-.318-3.943-1.519-6.154-2.79-2.285-1.313-4.647-2.67-6.768-3.005a27.176,27.176,0,0,0-4.263-.3,89.783,89.783,0,0,0-10.262.84H181.4l-.115.014h0l-.017,0a90.985,90.985,0,0,1-10.578.854,29.093,29.093,0,0,1-5.2-.419c-1.9-.344-9.566-3.537-16.109-6.41-7.831-3.437-14.42-6.56-16.023-7.594-.668-.431-4-2.648-4-4.018V246.127L.109,251.462a10.73,10.73,0,0,0-.027-2.248c-.152-2-.31-4.064,1.7-4.42l52.536-2.033,4.064-24.281-.345-1a24.637,24.637,0,0,1-19.317,9.512,23.868,23.868,0,0,1-8.419-1.532,25.03,25.03,0,0,1-7.737-4.673,23.1,23.1,0,0,1-5.111-6.4,25.683,25.683,0,0,1-2.588-7.507,36.529,36.529,0,0,1-.506-8.269,56.161,56.161,0,0,1,1.131-8.689A101.365,101.365,0,0,1,20.9,172.653c2.181-5.439,4.577-10.508,6.652-14.833a78,78,0,0,0-6.8-7.549l-.006-.007a103.261,103.261,0,0,1-9.795-11.073c-3.067-4.3-4.156-7.708-3.329-10.41a7.182,7.182,0,0,1,3.15-3.848,22.271,22.271,0,0,1,7.422-2.748c-2.467-4.73-2.746-9.3-.765-12.547a7.647,7.647,0,0,1,6.692-3.67c3.478,0,7.079,1.975,10.138,5.563-.362-4.029.533-7.439,2.52-9.6a7.027,7.027,0,0,1,5.3-2.328c3.157,0,6.45,1.866,9.271,5.256a36.783,36.783,0,0,1,4.667,8.027l0,0,0,.008a57.511,57.511,0,0,0,2.725,5.278c.987-.347,1.973-.8,3.018-1.276l.006,0,.009,0a20.832,20.832,0,0,1,5.689-1.975,9.7,9.7,0,0,1,1.258-.072,32.754,32.754,0,0,1,3.655.281l.382.045.037,0a26.422,26.422,0,0,0,2.649.232,3.28,3.28,0,0,0,.586-.043,34.839,34.839,0,0,0,3.646-2.654,25.188,25.188,0,0,0,3.382-2.935,40.348,40.348,0,0,0-2.683-4.841l-.007-.011c-1.888-3.067-3.84-6.24-3.948-10.026a18.8,18.8,0,0,1-1.932.1A19.211,19.211,0,0,1,64.13,91.974a15.1,15.1,0,0,1-6.438-8.428,63.4,63.4,0,0,1-8.776,4.272,26.167,26.167,0,0,1-9.248,1.863,18.976,18.976,0,0,1-8.55-2c-2.962-1.455-4.476-2.921-4.627-4.481-.218-2.24,2.46-4.272,4.822-6.064l.006,0a17.935,17.935,0,0,0,2.963-2.563c1.888-2.365,2.545-6.052,2.011-11.274A103.3,103.3,0,0,0,33.318,48.9l0-.012a73.54,73.54,0,0,1-2.391-11.66A42.276,42.276,0,0,1,32.77,21.278,31.473,31.473,0,0,1,39.7,9.335a25.7,25.7,0,0,1,8.269-5.923,24.281,24.281,0,0,1,9.94-2.1c7.49,0,15.144,3.3,22.134,9.552a38.387,38.387,0,0,1,7.136-4.649,52.63,52.63,0,0,1,8.5-3.406A65.808,65.808,0,0,1,114.712,0c10.877,0,20.476,2.694,27.03,7.585a14.875,14.875,0,0,1,1.97,2.01l.008.008a9.963,9.963,0,0,0,2.408,2.279,13.348,13.348,0,0,0,3.188.808l.014,0a19.2,19.2,0,0,1,3.253.764,24.493,24.493,0,0,1,9.656,6.632,29.99,29.99,0,0,1,3.538,4.795,33.438,33.438,0,0,1,2.606,5.452,34.922,34.922,0,0,1,2.184,13.311,30.417,30.417,0,0,1-.943,6.567,25.929,25.929,0,0,1-2.4,6.049,18.793,18.793,0,0,1-2.467,2.937,8.4,8.4,0,0,0-1.648,1.993,44.024,44.024,0,0,0,.145,7.892v.024a62.7,62.7,0,0,1,.243,7.434,85.092,85.092,0,0,1-3.846,21.293c-2.514,7.6-6.174,13.779-10.879,18.353a62.013,62.013,0,0,1,21.743,11.355c4.354,3.644,7.951,8.231,11.43,12.668,3.457,4.409,7.031,8.967,11.358,12.62l13.5-14.287c-1.775-4.055-1.7-8.42-1.619-12.641a51,51,0,0,0-.218-7.32,18.591,18.591,0,0,0-.906-3.5l0-.006,0-.006v0a16.746,16.746,0,0,1-1.085-5.189,9.65,9.65,0,0,1,2.579-7.136,8.555,8.555,0,0,1,6.15-2.472,10.654,10.654,0,0,1,4.524,1.049,12.835,12.835,0,0,1,4.187,3.229,16.833,16.833,0,0,1,2.322,3.825l0,0,0,0A14.772,14.772,0,0,0,225.1,112.2c.5-1.768,1.958-3.1,3.362-4.38l0,0a22.483,22.483,0,0,0,1.982-1.965c1.013-1.191,2.091-2.723,3.232-4.346l.013-.018,0-.007,0,0,.009-.013a56.274,56.274,0,0,1,5.957-7.521c2.517-2.49,4.9-3.7,7.281-3.7a8.884,8.884,0,0,1,5.278,1.973,8.249,8.249,0,0,1,3.7,7.324c2.362-1.153,5.449-2.474,8.376-2.474a8.4,8.4,0,0,1,2.724.432,7.694,7.694,0,0,1,2.531,1.466c3.226,2.783,2.394,6.518,1.947,8.525v.009c-.149.669-.256,1.151-.139,1.312a3.2,3.2,0,0,0,1.437.694c1.648.545,4.138,1.37,4.926,4.646a10.934,10.934,0,0,1,.1,4.829,12.6,12.6,0,0,1-1.747,4.164,37.7,37.7,0,0,1-6.352,7.006l-.41.384a260.571,260.571,0,0,1-30.61,24.155,1.38,1.38,0,0,1-.494.194h0c-.378.09-.629.149-.376,1.294h37.835a2.321,2.321,0,0,1,1.847,1.217,6.9,6.9,0,0,1,1,2.712,5.234,5.234,0,0,1-.2,2.709c-.673,1.632-3.858,4.666-6.668,7.343l-.025.023-.009.008c-1.75,1.668-3.4,3.243-4.3,4.33-.653.792-4.181,5.3-4.09,6.188a.167.167,0,0,0,.055.119,79.289,79.289,0,0,0,10.4,1.213h0l.02,0h.016c3.643.279,7.409.567,10.828,1.159,3.879.672,6.668,1.641,8.526,2.961a19.894,19.894,0,0,1,4.055,4.381c.863,1.229,2.31,3.548,2.31,5.277V234.8a.807.807,0,0,0,.259.043,1.982,1.982,0,0,0,1.09-.512l0,0a.887.887,0,0,1,.321-.2h11.049V240.8H299.444v14.992a10.8,10.8,0,0,1-2.422,4.254c-1.55,1.1-3.49,1.243-5.365,1.379h-.011a18.973,18.973,0,0,0-2.913.36L304.6,273.639c1.007,2.067,1.193,3.615.57,4.731a3.939,3.939,0,0,1-2.284,1.668,16.966,16.966,0,0,1-3.779.732c-17.429,1.827-42.607,4.126-63.578,4.7-.225.006-.47.013-.848.026h-.017c-.844.026-1.8.057-2.73.057A19.091,19.091,0,0,1,228.28,285.288Zm36.027-32.857-63.97,3.7,2.195,1.722.247.194.494.387.013.01c8.847,6.947,17.995,14.132,27.55,20.3l57.553-3.974,6.363-1.318a167.549,167.549,0,0,1-17.432-11.837l0,0C273.122,258.5,268.786,255.281,264.307,252.431Zm-69.317,9.694a8.178,8.178,0,0,1-.307,1.117c-.37,1.15-.79,2.452.289,3.22a27.265,27.265,0,0,1,7.531,2.81,25.336,25.336,0,0,0,7.879,2.837,14.558,14.558,0,0,0-4.043-3.565l0,0-.014-.01-.147-.1-.27-.186c-1.164-.808-9.225-6.159-10.737-6.159A.314.314,0,0,0,194.99,262.125Zm-24.506-57.317c-.26.381.042.652.242.832l0,0c.081.073.145.13.145.173V266.45a.883.883,0,0,1-.2.325c-.256.335-.644.838-.466,1.336l17.313-.754c1.064-.661.9-10.656.76-19.475-.1-6.467-.2-12.574.164-14.593a5.077,5.077,0,0,1,3.219-4,18.732,18.732,0,0,1,5.424-1.049h0l.125-.012c.275-.027.534-.052.787-.079,7.767-.81,16.736-1.4,27.419-1.8,9.419-.353,18.906-.517,28.081-.676h.022l.455-.008c3.109-.054,6.044-.1,9-.164,1.313-.026,2.629-.169,3.9-.307a36.065,36.065,0,0,1,3.809-.283,6.818,6.818,0,0,1,4.579,1.336c1.333,1.111,2.174,2.985,2.575,5.732a73.466,73.466,0,0,1,.058,9.972c-.161,5.207-.328,10.591.449,12.178.484.988,2.058,1.468,4.812,1.468a59,59,0,0,0,6.516-.515c1.284-.15,2.391-.279,3.073-.29V200.152l-.687.037-.623.034-5.9.321c-32.31,1.764-65.72,3.589-98.625,3.589-1.451,0-2.915,0-4.348-.011a5.4,5.4,0,0,1-2.9.58c-1.161,0-2.52-.139-3.612-.251h-.007l-.14-.014c-1.187-.122-2.309-.237-3.25-.237C171.459,204.2,170.768,204.392,170.484,204.808Zm-34.465-3.019c-.847,14.725-1.117,36.41,0,49.365.014.163.026.328.038.5v.005a7.031,7.031,0,0,0,.432,2.317l.7.853L161.478,265.8l2.7.314V203.483l-27.426-6.636A34.694,34.694,0,0,0,136.019,201.788Zm97.894,41.51-.019,0c-3.646.344-7.09.668-10.427.856-4.136.233-8.287.369-12.3.5-5.519.181-11.226.368-16.859.8l.008,5.332,64.947-3.333a1.408,1.408,0,0,0,.038-1.048.81.81,0,0,0-.575-.307.928.928,0,0,1-.517-.233c-1.522-1.761-3.42-3.57-5.955-3.628-.529-.011-1.07-.017-1.61-.017C245.338,242.224,239.53,242.77,233.913,243.3ZM77.777,158.283a23.5,23.5,0,0,1-5.965,8.311,13.508,13.508,0,0,1,3.249,6.09,17.773,17.773,0,0,1,.174,6.74c-.672,4.637-2.684,9.5-4.63,14.2l0,.008,0,.01,0,.007a65.549,65.549,0,0,0-3.89,11.127l-5.652,38.014,52.9-2.658c-.259-11.943.756-24.016,1.739-35.691v-.008c1.352-16.075,2.751-32.7.829-49.155-.167-.494-2.906-2.732-5.525-4.687-2.45-1.829-5.578-4-6.334-4.088a5.257,5.257,0,0,0-.62-.037c-2.861,0-6.017,2.219-9,4.492-.322.245-.611.467-.909.7l0,0c-2.542,1.951-4.943,3.794-6.625,3.794-2.7,0-4.1-2.209-5.452-4.343a13.187,13.187,0,0,0-2.244-2.934A25.242,25.242,0,0,1,77.777,158.283Zm48.67-12.133a17.107,17.107,0,0,1-2.255,4.486l-.006.01c-1.081,1.749-2.1,3.4-2.17,4.565a32.128,32.128,0,0,0,.676,6.176v.012l0,.018a42.388,42.388,0,0,1,.659,5.058c.377,11.567-.535,22.094-1.5,33.239l0,.05v.005c-.431,4.983-.877,10.135-1.195,15.381-.293,4.844-.369,9.853-.442,14.7v.067c-.051,3.358-.1,6.831-.227,10.214a10.436,10.436,0,0,1,4.246-.737c.653,0,1.336.029,1.939.055h.063c.629.026,1.279.053,1.913.053.447,0,.841-.013,1.207-.039V193.821c0-.64,2.649-5.791,3.35-6.662,3.939-4.9,10.25-4.994,16.355-5.081h0a43.094,43.094,0,0,0,8.362-.64,63.239,63.239,0,0,0,1.418-17.624c-.083-1.055-.559-3.318-1.111-5.939v-.011c-1.4-6.664-3.326-15.791-1.493-16.918a3.286,3.286,0,0,1,1.486-.26c1.377,0,2.832.4,2.978,1.292A106.006,106.006,0,0,0,163.22,154l0,.02,0,.009.007.026c.759,3.032,1.545,6.167,2.1,9.3a21.693,21.693,0,0,1,.224,3.484,12.74,12.74,0,0,0,1.015,5.945,19.313,19.313,0,0,0,4.1,3.971,20.6,20.6,0,0,0,4.871,3.1,45.72,45.72,0,0,0,9.231,1.038,6.626,6.626,0,0,0,2.851-.384,63.2,63.2,0,0,0,3.756-6.329l0-.006,0,0,.008-.014c1.126-2.012,2.19-3.911,2.642-4.593.218-.328.453-.687.573-.873l0-.006a72.013,72.013,0,0,1,5.686-7.812,21,21,0,0,1,3.533-3.323,6.326,6.326,0,0,1,3.54-1.369h11.05a16.678,16.678,0,0,0-5.155-2.783l-.007,0a19.963,19.963,0,0,1-4.124-2,8.6,8.6,0,0,1-3.1-3.87l-17.38,18.021a7.564,7.564,0,0,1-2.23.513h0c-.4,0-.655-.1-.776-.32-.369-.66.629-2.257,1.684-3.948l0-.007c1.2-1.924,2.443-3.914,1.986-4.918-5.265-4.1-9.688-9.178-13.965-14.091-8.774-10.077-17.061-19.595-31.932-21.236.253,1.331.875,3.537,1.6,6.091l0,.013c1.025,3.635,2.3,8.159,3.053,12.085.882,4.6.875,7.463-.021,8.742a3.156,3.156,0,0,1-2.8,1.313,17.857,17.857,0,0,1-5.854-1.618l-.007,0a22.749,22.749,0,0,0-3.206-1.109,36.167,36.167,0,0,0-7.864-.955h-.007C127.7,146.089,127.068,146.109,126.446,146.15ZM37.655,173.19a1.633,1.633,0,0,1-.2.5c-3.113,4.8-13.821,22.852-15.393,27.981-.956,3.123-.147,6.824,2.279,10.422a18.418,18.418,0,0,0,8.6,7.033,18.492,18.492,0,0,0,6.129,1.114h0c7.114,0,13.474-4.908,18.9-14.583,4.577-8.161,7.589-17.911,9.788-25.03l0-.005,0-.016c.2-.655.432-1.4.652-2.1l-7.359,3.338a21.053,21.053,0,0,1-6.16.9,20.4,20.4,0,0,1-9.844-2.407,13.656,13.656,0,0,1-3.789-3.085,11.689,11.689,0,0,1-2.329-4.409,3.709,3.709,0,0,0-.741-.1C37.777,172.731,37.726,172.923,37.655,173.19Zm101.078,17.97a94.346,94.346,0,0,1,14.121,3.427l.008,0c5.266,1.56,10.711,3.172,15.642,3.587,5.512.464,11.375.689,17.927.689,11.42,0,23.193-.7,34.579-1.371h.023l.125-.007c11.335-.671,23.055-1.365,34.225-1.365,1.91,0,3.789.02,5.585.061l31.11-2.033a8.742,8.742,0,0,0-5.2-3.815c-2.16-.627-15.645-2.157-19.948-2.157a4.9,4.9,0,0,0-1.217.094c-.455.149-.681.564-.92,1a2.212,2.212,0,0,1-.99,1.113c-2.006.862-5.442,1.264-10.812,1.264-1.968,0-3.954-.05-5.985-.106l-.342-.01c-1.792-.05-3.485-.1-4.946-.1-.589,0-1.1.008-1.566.023-4.839.164-9.943.478-15.347.811H224.8c-8.263.509-16.808,1.035-24.89,1.035-4.5,0-8.409-.161-11.954-.492a36.1,36.1,0,0,1-6.963-1.772,27.368,27.368,0,0,0-6.458-1.588c-.171,0-.34-.007-.5-.007a42.887,42.887,0,0,0-6.569.7l-.181.029h-.008a46.053,46.053,0,0,1-7.121.73c-.58,0-1.148-.022-1.69-.064a39.786,39.786,0,0,1-5.507-.986l-.025-.005a34.416,34.416,0,0,0-7.372-1.124A9.693,9.693,0,0,0,138.733,191.159ZM203.8,166.618c-.821.995-3.883,5.71-6.455,10.072-1.921,3.256-5.043,8.817-4.374,9.465,21.52-.706,42.654-1.728,60.49-2.633,2.736-5.882,6.951-10.862,11.027-15.679l.011-.013c1.375-1.625,2.8-3.3,4.139-4.993h-60.6C207.156,162.837,204.96,165.214,203.8,166.618ZM25.844,176.357l0,.006c-.706,2.152-1.436,4.376-2.293,6.457a2.292,2.292,0,0,0,.471.055c.751,0,1.034-.5,1.362-1.074l.007-.012.005-.01c.092-.161.186-.325.3-.487a68.2,68.2,0,0,0,4.067-7.264l.005-.01a59.966,59.966,0,0,1,4.916-8.5c.442-1.112-.422-1.848-1.259-2.56l-.013-.011a8.1,8.1,0,0,1-.817-.762C29.169,166.228,27.479,171.377,25.844,176.357Zm-9.284-47.519c-1.192.159-1.932.619-2.2,1.37-.444,1.241.385,3.293,2.463,6.1a67.315,67.315,0,0,0,5.047,5.84c.268.284.5.528.665.709,2.987,3.271,6.017,6.395,8.946,9.416l0,0,0,.005c3.869,3.99,7.868,8.114,11.784,12.584a6.032,6.032,0,0,0,1.506,1.08l0,0,0,0a3.662,3.662,0,0,1,1.2.888c.647,1.031.316,2.188,0,3.307a6.056,6.056,0,0,0-.357,2.316c.137,1.122,1.053,2.056,2.648,2.7a15.37,15.37,0,0,0,5.548.907,20.624,20.624,0,0,0,6.355-.977,8.845,8.845,0,0,0,4.526-2.953,6.626,6.626,0,0,0,1.216-5.545,6.507,6.507,0,0,1,.092-3.124,4.742,4.742,0,0,1,2.134-2.285l0,0,0,0a7.626,7.626,0,0,0,1.613-1.33c2.959-3.55,3.808-10.2,4.557-16.068l0-.013,0-.014c.328-2.563.637-4.984,1.1-6.928a31.473,31.473,0,0,1,1.147-3.3c1.324-3.463,3.138-8.206,1.737-9.838a1.894,1.894,0,0,0-1.514-.624,7.242,7.242,0,0,0-4.377,2.1c-1.2,1.28-2.018,3.91-2.885,6.695l0,.007c-1.235,3.972-2.513,8.08-5,8.081a4.865,4.865,0,0,1-3.173-1.752c-2.813-2.778-5.511-9.212-8.12-15.434-2.046-4.88-3.978-9.488-5.974-12.517a16.269,16.269,0,0,0-2.187-2.621,4.788,4.788,0,0,0-2.733-1.541c-.84,0-1.415.684-1.71,2.031-.539,2.462,2.543,8.613,5.019,13.555l0,0,.006.013a62.776,62.776,0,0,1,2.8,6.018,13.469,13.469,0,0,1,.9,3.529,5.926,5.926,0,0,1-.9,3.405c-.711,1.252-3.277,3.613-6.1,5.615a31.365,31.365,0,0,1-4.4,2.651,9.414,9.414,0,0,1-3.819,1.121,2.242,2.242,0,0,1-1.562-.515,40.1,40.1,0,0,0-6.483-8.992,27.722,27.722,0,0,0-4.6-4.038,8.308,8.308,0,0,0-4.416-1.686A4,4,0,0,0,16.561,128.838Zm193.806-21.649c-.682.4-.891,1.661-.64,3.842a59.593,59.593,0,0,0,1.2,6.13v.006a34.723,34.723,0,0,1,.8,4.039,46.055,46.055,0,0,1,.036,5.2v.014a26.89,26.89,0,0,0,.967,9.763,4.455,4.455,0,0,0,.786,1.3,3.569,3.569,0,0,1,.883,1.722,5.679,5.679,0,0,1-1.032,3.283c-.691,1.249-1.343,2.429-.666,3.7.306.571,2.6,1.58,5.023,2.647l0,0a36.589,36.589,0,0,1,5.6,2.788,14.365,14.365,0,0,1,2,2.007c1.185,1.348,2.41,2.742,3.788,2.742a2.441,2.441,0,0,0,1.406-.491c.618-.434.624-1.414.63-2.362a5.664,5.664,0,0,1,.137-1.533c.585-1.883,2.391-2.437,4.139-2.972a10.417,10.417,0,0,0,2.109-.806c7.137-4.127,22.925-17.477,29.448-24l.388-.386,0,0,.03-.03,0,0,0,0c2.169-2.149,5.139-5.092,3.839-8.183a7.137,7.137,0,0,0-1.426-.146,8.551,8.551,0,0,0-3.012.6c-.638.239-3.954,2.351-6.765,4.212a78.212,78.212,0,0,0-6.49,4.583,6.6,6.6,0,0,0-1.1,1.894c-.5,1.157-.934,2.157-2.821,2.157a6.714,6.714,0,0,1-.689-.038c-.9-.092-4.108-2.228-6.814-4.291-2.548-1.941-5.554-4.516-5.642-5.388-.288-2.833,2.79-5.64,5.506-8.116l.012-.011,0,0a28.906,28.906,0,0,0,2.861-2.838c1.287-1.6,4.876-6.808,4.5-9.66a1.963,1.963,0,0,0-.775-1.392,1.738,1.738,0,0,0-1.043-.338c-1.225,0-2.8,1.106-4.821,3.38a72.212,72.212,0,0,0-4.683,6.131l0,.006,0,0c-.806,1.141-1.443,2.042-1.872,2.535-1.623,1.871-10.77,12.133-12.209,12.543a6.006,6.006,0,0,1-1.624.257c-2.692,0-3.162-2.676-3.616-5.265a17.826,17.826,0,0,0-.658-2.86c-.987-2.739-3.435-6.812-6.138-6.812A3.032,3.032,0,0,0,210.367,107.189ZM95.876,120.522a55.716,55.716,0,0,0,8.05,13.312L118.3,149.518c.776-1.321,3.2-6.821,5.273-12.2,1.481-3.839,3.853-10.388,3.1-11.124H113.618c-4.025,0-9.877-2.687-14.15-4.648l-.007,0-.007,0-.243-.112-.008,0-.145-.067c-.485-.222-.943-.432-1.378-.627a3.171,3.171,0,0,1-.385-.222l0,0-.017-.011a1.927,1.927,0,0,0-.883-.387C96.163,120.1,95.995,120.241,95.876,120.522Zm-14.061-2.315c-.319.372.483,1.263,1.333,2.206a7.719,7.719,0,0,1,1.478,1.969c1.273,3.791.2,6.6-.751,9.074l0,.005a10.381,10.381,0,0,0-1.041,4.823,40.712,40.712,0,0,0,2.256,5.746c1,2.227,2.317,4.92,2.727,5.184a1.714,1.714,0,0,0,.929.3c.947,0,1.775-.888,2.576-1.747l.007-.007a8.4,8.4,0,0,1,1.254-1.184c2.869-1.965,5.724-3.728,9.11-3.728l.206,0a1.116,1.116,0,0,0-.321-1.283,2.093,2.093,0,0,1-.316-.409A35.852,35.852,0,0,0,97.473,134l-.012-.014a43.375,43.375,0,0,1-4.137-5.6c-.48-.832-1.425-2.92-2.424-5.131l-.024-.052c-1.5-3.319-3.2-7.08-3.7-7.4a.513.513,0,0,0-.275-.062C85.683,115.75,82.058,117.923,81.815,118.207Zm56.031,22.656h.014c1.369.239,2.786.485,4.215.645l-4.025-17.985-5.231,1.446-4.132,15.208a18.878,18.878,0,0,1,2.165-.12A40.973,40.973,0,0,1,137.846,140.863Zm-114.8-28a3.189,3.189,0,0,0-.84,2.269c.1,1.774,4.934,8.412,8.461,13.259l.007.01c1.4,1.919,2.6,3.576,3.2,4.5a20.256,20.256,0,0,1,1.2,2.615l0,.006.007.016a7.942,7.942,0,0,0,.57,1.262,1.04,1.04,0,0,0,.612.179c1.054,0,2.611-1.139,4.116-2.239a9.858,9.858,0,0,1,3.251-1.905c.246-.356-1.16-2.311-4.18-5.808l-.106-.124-.019-.022-.035-.04c-1.727-2.008-13.251-14.661-14.74-14.67h-.012A2.052,2.052,0,0,0,23.044,112.865Zm38.91,11.951c-.389,1.142.1,2.5,1.44,4.026l4.352-7.31C65.458,121.992,62.6,122.934,61.955,124.816ZM263.1,102.973c-3.1.485-8.238,5.1-12.767,9.175a60.34,60.34,0,0,1-7.8,6.38c2.735,2.059,4.154,2.825,5.236,2.825,1.02,0,1.747-.7,2.849-1.757a30.544,30.544,0,0,1,2.3-2.047c.733-.58,1.766-1.293,2.962-2.119,3.8-2.622,8.994-6.213,9.384-8.946.139-.97.251-2.343-.371-3.057a1.593,1.593,0,0,0-1.264-.5A3.492,3.492,0,0,0,263.1,102.973ZM78.475,86.861a2.237,2.237,0,0,1,1.683.664,39.028,39.028,0,0,1,1.99,5.256l.008.022.005.016a76.826,76.826,0,0,0,2.745,7.3c6.214,11.78,21.137,20.007,36.291,20.007,9.346,0,17.721-3.163,23.581-8.908,6.294-6.17,10.228-16.025,11.69-29.293a119.852,119.852,0,0,0-1.208-32.488c-1.55-8.793-3.053-14.562-10.839-20.521-1.063,1.2-2.07,2.466-3.045,3.693l-.008.011a47.12,47.12,0,0,1-5.979,6.621,39.257,39.257,0,0,1-5.745,4.01c-2.866,1.632-5.381,2.5-7.272,2.5a3.937,3.937,0,0,1-3.659-1.952c-1.133-1.938.207-3.747,1.186-5.067.6-.814,1.079-1.456.744-1.826a60.842,60.842,0,0,1-13.969,7.142,101.074,101.074,0,0,1-15.22,4.119c-.229.709-.549,1.824-.953,3.235l-.018.062c-.878,3.064-2.08,7.259-3.388,10.929-1.541,4.326-2.865,6.852-3.933,7.507a2.974,2.974,0,0,1-1.545.492c-1.769,0-3.054-2.064-4.415-4.249-1.135-1.824-2.309-3.711-3.845-4.5a6.411,6.411,0,0,0-2.96-.7,9.378,9.378,0,0,0-8.168,5.446c-1.739,4.26-.633,11.746,2.466,16.686C66.086,85.3,68.5,88,72.109,88.25c.086.007.181.01.286.01a10.337,10.337,0,0,0,3.132-.7l0,0,.108-.037a9.555,9.555,0,0,1,2.836-.663ZM67.5,18.142a22.5,22.5,0,0,0-3.769,7.429A15.1,15.1,0,0,0,66.332,26c.759,0,.882-.34,1.152-1.084l0,0A10.352,10.352,0,0,1,68.548,22.7l5.892-8.454C71.852,14.337,69.516,15.646,67.5,18.142ZM267.706,206.86c4.255-3.159,6.54,5.735,4.2,7.2a2.921,2.921,0,0,1-1.565.469C267.2,214.53,264.569,209.19,267.706,206.86Zm9.137-.553c2.784-2.876,9.544,3.405,5.591,6.567a3.364,3.364,0,0,1-2.129.786C277.129,213.661,274.27,208.964,276.843,206.307ZM56.01,163.523c.388-2.092-5.361-12.724-1.976-13.347,3.708-.682,8.309,9.869,5.51,13.154a3.224,3.224,0,0,1-2.172.8A1.509,1.509,0,0,1,56.01,163.523Zm169.081-25.005c-.172-2.068,2.272-5.639,2.571-8.188.138-1.181-1.057-5.163.544-5.519,6.288-1.4,4.29,11.51.732,14.5a3.533,3.533,0,0,1-2.161.855A1.6,1.6,0,0,1,225.091,138.517ZM119.817,113.149c-3.419,0-6.057-.7-7.238-1.918a6.175,6.175,0,0,1-1.592-6.543,11.027,11.027,0,0,1,3.7-4.965,13.09,13.09,0,0,1,5.788-2.693,20,20,0,0,1,3.352-.294c3.026,0,7.139.774,9.549,4.463,1.516,2.321,1.768,4.447.747,6.317-.943,1.728-2.963,3.187-5.842,4.217a26.125,26.125,0,0,1-8.46,1.415Zm4.421-10.7a12.645,12.645,0,0,0-4.9,1.093,5.76,5.76,0,0,0-3.032,2.413,1.344,1.344,0,0,0,.326,1.572,1.868,1.868,0,0,0,1.134.209,66.825,66.825,0,0,0,8.415-1.133c1.143-.2,2.045-.357,2.507-.411a3.424,3.424,0,0,0-.9-2.573A4.873,4.873,0,0,0,124.238,102.451Zm-2.082-11.07a2.661,2.661,0,0,1,.506-4.172c.959-.467,2.516-.234,4.152,0,2.748.392,5.721.784,6.463-2.14.626-2.466-11.7-12.513-6.948-16.859,3.642-3.334,4.7,3.9,6.084,5.962,2.863,4.261,7.348,5.523,6.023,12.072-.91,4.5-6.186,6.99-10.729,6.99A7.907,7.907,0,0,1,122.156,91.381ZM69.753,73.22c-1.009-1.288-7.468-4.991-3.572-6.234C72.416,65,78.8,76.961,75.131,79.25a1.857,1.857,0,0,1-.984.318C72.012,79.568,70.955,74.756,69.753,73.22Zm38.655-10.878c6.789-1.963,7.573,12.406,1.82,13.229a4.442,4.442,0,0,1-.63.046C103.879,75.617,103.957,63.629,108.409,62.341ZM140.7,74.594c-4.72-1.554-3.7-11.687.518-12.92,3.5-1.024,5.41,2.745,5.466,6.513.05,3.342-1.353,6.684-4.382,6.684A5.126,5.126,0,0,1,140.7,74.594ZM95.827,59.938c-2.617-4.7,4.538-9.541,8.575-10.218,2.369-.4,8.654-1.062,9.242,1.783.747,3.606-7.039,2.548-10.1,4.023-2.663,1.282-3.917,4.623-6.527,4.624A3.641,3.641,0,0,1,95.827,59.938Zm47.835-10.287c-2.223-.928-8.967-1.575-8.973-4.417a2.649,2.649,0,0,1,1.836-2.2c4.071-1.232,18.7,3.713,15.951,9.189a1.993,1.993,0,0,1-1.83,1.3C148.543,53.522,145.657,50.485,143.663,49.651Z" transform="translate(18.916 32.222)" fill="#030303" stroke="rgba(0,0,0,0)" stroke-miterlimit="10" stroke-width="1"/>
  </g>
</svg>
