<svg xmlns="http://www.w3.org/2000/svg" xmlns:xlink="http://www.w3.org/1999/xlink" width="350" height="350" viewBox="0 0 350 350">
  <defs>
    <clipPath id="clip-Tavola_da_disegno_9">
      <rect width="350" height="350"/>
    </clipPath>
  </defs>
  <g id="Tavola_da_disegno_9" data-name="Tavola da disegno – 9" clip-path="url(#clip-Tavola_da_disegno_9)">
    <path id="Unione_9" data-name="Unione 9" d="M195.609,295.059c-1.721-14.752.191-34.269-.633-49.885-.646-12.244-3.448-26.506-3.446-38.368,0-1.681.874-7.826,2.519-8.349,4.729-1.505,5.249,11.187,5.6,14.415,1.814,16.52,2.14,33.261,2.667,49.871.306,9.663,2.007,23.641.733,33.012a3.7,3.7,0,0,1-3.571,3.5C197.732,299.252,195.941,297.9,195.609,295.059Zm-60.074,3.793a3.338,3.338,0,0,1-2.424-1.087,5.815,5.815,0,0,1-1.4-3.374c-.922-7.947-.333-16.686.237-25.137v0c.528-7.829,1.074-15.924.424-23.4.137-9.011.948-18.29,1.732-27.263v-.012c.688-7.868,1.4-16,1.648-23.9.213-6.768-3.384-12.759-6.864-18.554a74.919,74.919,0,0,1-4.565-8.381c-.943-.244-1.9-.483-2.751-.694-2.584-.644-5.253-1.309-7.851-2.159a12.966,12.966,0,0,1-1.206-.554l-.033-.016a12.482,12.482,0,0,0-3.795-1.442.556.556,0,0,0-.472.175.72.72,0,0,0-.02.631c.941,3.152,5.594,9.431,8.382,11.818a38.325,38.325,0,0,0,4.761,3.1l.014.008c4.122,2.441,8.794,5.206,8.952,7.979a2.4,2.4,0,0,1-.518,1.843,2.513,2.513,0,0,1-1.9.642c-2.63,0-6.714-2.023-8.056-2.688a34.776,34.776,0,0,1-12.252-9.951A34.112,34.112,0,0,1,101.117,162c-18.767,8.472-23.492,26.58-25.8,44.887-2.221,17.608-2.8,37.651-3.32,55.335l0,.158-.022.759c-.041,1.416-.084,2.857-.125,4.262-.087,2.879.053,6.234.2,9.787.238,5.681.484,11.556-.214,15.8a5.134,5.134,0,0,1-1.324,2.846,3.048,3.048,0,0,1-2.177.928,3.419,3.419,0,0,1-2.462-1.121,5.615,5.615,0,0,1-1.408-3.275c-.895-7.6-.318-15.954.24-24.037v-.008c.519-7.519,1.056-15.292.416-22.474.575-5.607.887-11.459,1.218-17.655.752-14.093,1.529-28.665,5.537-41.555A55.425,55.425,0,0,1,80.7,168.978a44.277,44.277,0,0,1,6.974-7.217,47.1,47.1,0,0,1,9.08-5.824,59.107,59.107,0,0,1-8.731-9.865,62.219,62.219,0,0,1-6.171-11.094,74.444,74.444,0,0,1-3.968-12.043,96.4,96.4,0,0,1-2.122-12.712,152.048,152.048,0,0,1-.136-26.313c.651-9.076,1.862-18.051,2.961-25.634-.87.29-1.948.788-3.091,1.315l-.016.007c-2.416,1.116-5.154,2.381-7.287,2.381-2.2,0-3.342-1.35-3.5-4.129-.2-3.379,1.212-7.423,2.429-10.22a41.881,41.881,0,0,1,5.437-9.213l6.04-6.41c-6.73-.556-10.379-2.224-10.845-4.957C67.2,23.8,71.229,19.78,74.708,16.975a65.489,65.489,0,0,1,12.849-7.99,100.456,100.456,0,0,1,21.205-6.663A118.14,118.14,0,0,1,132.068,0c14.571,0,28.026,2.714,38.909,7.85l13.88,8.657c.162-1.336-.8-3.5-1.809-5.792-1.36-3.073-2.765-6.25-1.738-7.928a2.921,2.921,0,0,1,2.546-1.162c.087,0,.171-.007.251-.007A5.015,5.015,0,0,1,188.081,3.8a15.956,15.956,0,0,1,2.471,5.163,45.21,45.21,0,0,1,1.712,10.912c2.077-1.387,7.288-4.612,10.777-4.612a3.087,3.087,0,0,1,3.359,2.968c.449,3.081-2.392,3.865-5.138,4.623a11.976,11.976,0,0,0-3.622,1.4,30.025,30.025,0,0,1,12.065,8.227,34.265,34.265,0,0,1,6.874,12.274,46,46,0,0,1,2.159,14.365,52.483,52.483,0,0,1-2.08,14.5c-.262.9-1.15,2.861-1.933,4.591l0,.008a24.967,24.967,0,0,0-1.377,3.3,8.384,8.384,0,0,0,1.62,2.744l.005.008a18,18,0,0,1,1.628,2.5,23.659,23.659,0,0,1,1.656,12.469,33.456,33.456,0,0,1-4.274,12.842,27.843,27.843,0,0,1-7.129,8.262,18.706,18.706,0,0,1-9.628,3.875c-.12.011-.263.016-.426.016a31.859,31.859,0,0,1-3.4-.308l-.262-.033-.2-.026-.015,0-.033,0c-1.025-.13-1.911-.243-2.338-.243-.146,0-.229.013-.257.039a9.156,9.156,0,0,0-.4,1.28,6.574,6.574,0,0,0-.271,1.294,20.991,20.991,0,0,0,2.569,1.539,45.78,45.78,0,0,1,4.785,2.9,27.287,27.287,0,0,1,7.878,10.372,20.425,20.425,0,0,1,1.547,6.267,18.2,18.2,0,0,1-.689,6.6,57.536,57.536,0,0,1,11.576,5.192,50.431,50.431,0,0,1,9.21,7.008,52.866,52.866,0,0,1,7.141,8.541,64.264,64.264,0,0,1,5.371,9.788c6.147,13.835,8.316,30.254,9.742,45.936,1.11,12.2,1.85,22.607,2.263,31.8a246.222,246.222,0,0,1-.209,31.546,6.462,6.462,0,0,1-1.285,3.591,3.076,3.076,0,0,1-2.361,1.171,3.857,3.857,0,0,1-3.023-1.743,8.452,8.452,0,0,1-1.428-5.077c-.019-4.5.054-9.44.132-14.666v-.019c.292-19.7.655-44.219-3.594-65.828-4.991-25.382-15.216-41.433-31.261-49.071-2.736-1.3-4.216-1.81-5.278-1.81-1.26,0-1.9.732-2.949,1.946a24.118,24.118,0,0,1-3.146,3.13,207.4,207.4,0,0,1-17.9,12.678,215.009,215.009,0,0,1-18.958,11.031c-.375.186-.758.4-1.128.614a7.321,7.321,0,0,1-3.355,1.264,2.828,2.828,0,0,1-1.728-.59,2.791,2.791,0,0,1-1.338-2.1c-.05-1.633,1.859-3.233,3.123-4.292,4.091-3.43,10.234-7,16.739-10.785,10.422-6.06,21.2-12.326,25.465-19.021a10.55,10.55,0,0,0,1.43-8.782c-1.527-5.52-7.036-9.967-11.682-12.286-1.355,1.885-2.586,3.893-3.775,5.836l-.024.038,0,0-.019.032,0,0c-.966,1.577-1.965,3.208-3.026,4.766l-.227.333-.463.679a74.888,74.888,0,0,0-5.493,8.962,56.456,56.456,0,0,1-7.666,10.675c-2.936,3.311-6.214,6.49-9.383,9.566l-.018.018c-5.174,5.019-10.524,10.208-14.548,16.11-2.43,34.919-3.6,70.237-3.471,104.974a4.667,4.667,0,0,1-1.306,2.8,3.333,3.333,0,0,1-2.316.967Zm17.948-134.788a50.7,50.7,0,0,1-6.405,2.208,92.315,92.315,0,0,1-14.674,2.135l7.726,13.136,7.046-8.436L159.3,162.017A53.259,53.259,0,0,0,153.484,164.064ZM86.122,55.037c-2.394,15.417-4.907,35.464-3.068,53.786,2.192,21.839,10.191,36.905,23.777,44.78A52.078,52.078,0,0,0,178,134.6c.872-1.507,2.574-5.754,4.221-9.862l.009-.023c1.682-4.2,3.27-8.161,3.687-8.452a3.965,3.965,0,0,1,2.352-.663,15.857,15.857,0,0,1,3.635.617l.084.02a16.868,16.868,0,0,0,3.872.637,6.662,6.662,0,0,0,.692-.035c7.766-.819,13.886-11.265,14.526-17.816.516-5.285-.8-10.23-3.511-13.226a8.951,8.951,0,0,0-6.787-3.044,14.255,14.255,0,0,0-6.713,1.927c-1.515.819-4.22,3.469-6.393,5.6l-.007.007-.006.006a20.483,20.483,0,0,1-3.238,2.909,1.679,1.679,0,0,1-.321.031c-2.9,0-5.467-7.513-6.561-10.721-.105-.311-.2-.585-.275-.8a121.632,121.632,0,0,1-5.389-20.479,92.334,92.334,0,0,1-1.151-21.14,38.529,38.529,0,0,1-7.675,3.9l-.1.04-.024.01c-.317.132-.643.269-.964.4l-.816.345-.056.024C154.291,47.7,140.125,53.7,130.694,53.7a14.036,14.036,0,0,1-4.669-.685,6.447,6.447,0,0,1-3.188-2.292,7.515,7.515,0,0,1-1.229-4.418,21.6,21.6,0,0,1,1.373-6.889Zm1.231,240c-.934-4.755-.153-17.327-.042-22.916.274-13.81,1.534-27.843,2.073-41.708.394-10.141-.985-25.376,1.476-34.9.214-.831.76-2.223,1.612-2.47,2.7-.781,3.42,3.862,3.6,5.689,2.037,20.613-.764,46.393-1.363,67.324-.237,8.282.914,18.361.027,26.3-.4,3.615-2.566,5.442-4.465,5.442A3.026,3.026,0,0,1,87.353,295.034ZM33.5,217.616c-.573-4.35.315-14.753.713-19.561.134-1.623.807-8.215,1.5-8.935,1.291-1.337,4.185-.315,4.887,1.177a55.062,55.062,0,0,1,1,7.085c.35,4.761.657,15.741-.036,20.16a4.125,4.125,0,0,1-4.091,3.713A3.958,3.958,0,0,1,33.5,217.616ZM0,167.024c-.058-7.816.465-18.406,1.256-26.222.318-3.155,2.338-8.455,5.882-4.9a5.285,5.285,0,0,1,.834,2.855c.789,7.352,1.468,23.894.672,31-.185,1.656-.749,4.41-2.488,4.935a6.627,6.627,0,0,1-1.9.315C.521,175.008.031,170.592,0,167.024ZM225.89,150.2a150.592,150.592,0,0,1,.677-16.138c.128-1.26.541-4.569,1.756-4.994a3.818,3.818,0,0,1,3.341.547c2.89,2.217,1.875,19.091,3,23.3-.251,3.027-1.965,4.615-3.813,4.615C228.6,157.53,226.148,155.177,225.89,150.2ZM109.862,139.787c-3.065-6.1,11.486-10.179,15.673-10.583,4.772-.461,25.38,2.372,23.584,9.424-1.355,5.318-7.821.228-10.482-.715-5.636-2-15.456-2.474-20.836.382-1.236.656-3.637,3.16-5.671,3.16A2.511,2.511,0,0,1,109.862,139.787Zm150.385-19.938c-.568-4.121.154-16.98.613-21.492.125-1.219.527-3.878,1.772-4.307,5.3-1.824,5.248,7.541,5.619,11.046.39,3.674,1.179,12.155.639,15.448a4.428,4.428,0,0,1-4.244,4.017C262.68,124.562,260.692,123.074,260.247,119.849ZM110.321,102.514c1.127-1.957,3.2-3.77,4.478-5.619,1.249-1.81,4.679-8.458,5.961-8.852,8.143-2.509,2.343,8.283.487,11.268-2.205,3.547-10.237,10.143-4.26,13.8,2.488,1.523,5.07.626,7.416-.27,2.492-.952,4.718-1.9,6.282.042,3.034,3.779-3.036,6.53-6.1,7.288a19.163,19.163,0,0,1-4.591.582C110.355,120.754,104.559,112.522,110.321,102.514ZM42.294,116.525c-.728-3.908-.277-15.062-.045-19.545.1-1.838.857-10.243,1.534-10.922a3.65,3.65,0,0,1,4.278-.236c2.522,2.126,2.05,26.1,2.269,30.7a4.024,4.024,0,0,1-4.064,3.129A3.868,3.868,0,0,1,42.294,116.525Zm148.241-12.4c-2.683-3.839,6.16-12.862,10.173-13.469,3.477-.526,7.977,1.442,4.834,4.512-.833.814-4.439,1.365-6.233,2.843-1.3,1.067-4.506,7.125-7.138,7.125A1.991,1.991,0,0,1,190.536,104.121ZM145.66,81.308c9.063-2.717,10.312,16.519,1.81,17.382a6.522,6.522,0,0,1-.655.034C138.839,98.725,140.191,82.948,145.66,81.308ZM104.536,98.686c-8.58-.561-6.282-17.664,1.416-18.012,3.579-.162,5.214,4.423,4.975,9.009-.236,4.507-2.281,9.014-6.071,9.014C104.751,98.7,104.644,98.693,104.536,98.686ZM11.353,72.745c-.769-4.018-.248-15.555-.042-20.223.14-3.165.364-7.705.7-10.749.357-3.232,2.769-7.347,5.891-4.214a4.335,4.335,0,0,1,.77,2.231c1.057,7.544,1.608,24.215.748,31.634-.353,3.051-2.289,4.337-4.183,4.337A3.865,3.865,0,0,1,11.353,72.745Zm128.892-4.477c-1.912-1.3-9.98-9.023-5.394-10.574,3.777-1.278,7.4,4.594,11,6.3,3.678,1.746,15.035,2.873,16.015,6.21.569,1.938.045,3.353-1.876,3.956a3.588,3.588,0,0,1-1.041.123C154.623,74.288,143.006,70.148,140.245,68.268ZM88.107,70.88c.872-3.51,12.111-4.365,15.623-5.955,2.9-1.315,8.406-6.838,9.646-7.207,2.509-.746,4.751.811,4.107,3.413-1.363,5.51-12.332,10.364-17.343,11.651a37,37,0,0,1-8.317,1.476C89.33,74.259,87.459,73.487,88.107,70.88ZM247.744,49.549c-6.672,0-3.737-9.39-3.671-13.138.087-5-.435-10.534.06-15.433.2-2.017.715-6.612,3.039-7.05,1.025-.193,3.174,1.345,3.472,2.372l1.5,21.4c-.291,3.889,1.129,11.848-4.4,11.848ZM46.354,24.889c-.561-3.6-.495-15.752.019-19.431.2-1.436.918-3.915,2.427-4.352,2.06-.6,3.216.868,3.909,2.6.9,2.238,1.521,9.116,1.667,11.8.13,2.4.424,8.684-.136,10.629a3.56,3.56,0,0,1-3.568,2.537A4.316,4.316,0,0,1,46.354,24.889Z" transform="translate(40.463 25.373)" fill="#040404" stroke="rgba(0,0,0,0)" stroke-miterlimit="10" stroke-width="1"/>
  </g>
</svg>
