<svg xmlns="http://www.w3.org/2000/svg" xmlns:xlink="http://www.w3.org/1999/xlink" width="350" height="350" viewBox="0 0 350 350">
  <defs>
    <clipPath id="clip-Tavola_da_disegno_6">
      <rect width="350" height="350"/>
    </clipPath>
  </defs>
  <g id="Tavola_da_disegno_6" data-name="Tavola da disegno – 6" clip-path="url(#clip-Tavola_da_disegno_6)">
    <g id="Raggruppa_28" data-name="Raggruppa 28" transform="translate(96.005 81.82)">
      <path id="Sottrazione_21" data-name="Sottrazione 21" d="M195.382,240.743h0c-54.315-2.623-109.406-4.8-163.743-6.467a8.78,8.78,0,0,1-3.566-.691,5.148,5.148,0,0,1-2.246-1.858c-1.084-1.652-1.1-3.936-.034-6.433l28.094-25.566-.018,0h-.057c-1.112.022-2.3.026-3.092.026-3.665,0-10.906-.1-18.225-.794-8.763-.826-15.143-2.235-18.963-4.188a26.554,26.554,0,0,1-7.085-5.189A22.808,22.808,0,0,1,1.9,182.773,23.654,23.654,0,0,1,.04,174.726a28.852,28.852,0,0,1,.951-8.9C4.2,153.543,5.367,151.8,13.528,141.888A175.227,175.227,0,0,1,34.25,120.45c3.774-3.264,7.707-6.338,11.69-9.138a143.409,143.409,0,0,1,12.813-8.027,11.471,11.471,0,0,1-2.022.193A6.4,6.4,0,0,1,51.3,100.9a11.313,11.313,0,0,1-1.88-4.786,27.139,27.139,0,0,1-.315-5.993,49.648,49.648,0,0,1,1.886-11.137,30.189,30.189,0,0,1-5.646,4.56A8.484,8.484,0,0,1,41.2,84.926a3.68,3.68,0,0,1-3.277-1.877c-1.087-1.744-1.469-4.637-1.075-8.146a32.443,32.443,0,0,1,3.074-10.395,59.575,59.575,0,0,1,7.07-11.26,27.782,27.782,0,0,1,10.144-8.233,16.6,16.6,0,0,1-5.213.977h0c-1.836,0-3.12-.478-3.819-1.42a2.68,2.68,0,0,1-1.94,1.025,2.567,2.567,0,0,1-1.866-.97,6.364,6.364,0,0,1-1.275-2.345,7.146,7.146,0,0,1-.32-2.775,8.909,8.909,0,0,1,2.6-5.382,16.793,16.793,0,0,1,5.565-3.61,38.012,38.012,0,0,1,14.281-2.661,27.991,27.991,0,0,1,5.3.452A75.71,75.71,0,0,1,77.67,13.195a35.877,35.877,0,0,1,5.2-6.227,34.429,34.429,0,0,1,7.021-5.136A12.026,12.026,0,0,1,95.428,0a3.967,3.967,0,0,1,3.09,1.312A8.835,8.835,0,0,1,100.27,6.42a34.364,34.364,0,0,1-.182,6.721,53.856,53.856,0,0,1,9.072-5.787,56.414,56.414,0,0,1,9.716-3.8A74.768,74.768,0,0,1,139.835.847h.288a68.6,68.6,0,0,1,14.194,2.06,78.228,78.228,0,0,1,7.53,2.177,32.449,32.449,0,0,1,5.865,2.609c2.7,1.63,4.041,3.131,4.221,4.726.225,1.99-1.379,3.982-4.04,6.551a39.684,39.684,0,0,1,16.179,5.351A67.7,67.7,0,0,1,197.444,34.8a37.908,37.908,0,0,1,5.623,6.635c1.621,2.572,2.141,4.7,1.548,6.316a4.639,4.639,0,0,1-2.532,2.5,16.67,16.67,0,0,1-5.912,1.282,54.984,54.984,0,0,1,2.065,14.8c5.379,4.755,10.351,10.184,10.3,17.648a69.971,69.971,0,0,1,14.184,3.429,73.05,73.05,0,0,1,12.747,6.012,84.916,84.916,0,0,1,11.407,8.17,105.534,105.534,0,0,1,10.164,9.9,134.982,134.982,0,0,1,9.019,11.2c2.69,3.716,5.373,7.781,7.972,12.082a260.5,260.5,0,0,1,13.194,25.09,9.475,9.475,0,0,1,1.165,3.85,2.974,2.974,0,0,1-1.035,2.473l1.231.7v10.776c1.015-.113,2.635-.17,4.815-.17,6.06,0,14.8.445,16.05.684l.689,1.25v6.774l-.443,1.223-24.1-.554a21.348,21.348,0,0,1-3.8,5.546,22.381,22.381,0,0,1-5.055,3.935,29.424,29.424,0,0,1-6,2.57,43.028,43.028,0,0,1-6.638,1.451,147.933,147.933,0,0,1-20.938,1.356c-5,0-10.471-.185-17.229-.583-5.621,10.29-10.967,20.966-15.889,31.731-2.285,3.913-3.568,5.863-5.455,6.839C202.675,240.715,200.084,240.725,195.382,240.743ZM71.126,197.859a12.019,12.019,0,0,0-5.194,1.259L37.325,226.237l164.022,6.192L217.76,199.15l-26.473-3.081a10.043,10.043,0,0,1-.257,4.472A10.168,10.168,0,0,1,189,204.3a10.659,10.659,0,0,1-8.145,3.761c-.121,0-.243,0-.364-.006a10.855,10.855,0,0,1-2.079-.471,10.014,10.014,0,0,0-2.123-.47.584.584,0,0,0-.344.078,2.689,2.689,0,0,0-.523.9,7.56,7.56,0,0,1-3.91,4.226,11.094,11.094,0,0,1-4.541.953,18.638,18.638,0,0,1-4.242-.592l-.42-.1a13.763,13.763,0,0,0-2.982-.494,3.793,3.793,0,0,0-.868.092,5.737,5.737,0,0,0-1.644,1.13,10.065,10.065,0,0,1-3.206,2.046,14.839,14.839,0,0,1-4.1.535,36.351,36.351,0,0,1-10.736-2.117,72.754,72.754,0,0,1-7.355-3.27c-4.991-2.407-10.646-5.136-13.536-5.136a3.428,3.428,0,0,0-.667.06,6.982,6.982,0,0,0-1.9.85,9.058,9.058,0,0,1-1.916.895,26.6,26.6,0,0,1-7.093,1.311,12.118,12.118,0,0,1-3.111-.393,9.3,9.3,0,0,1-3.375-2.3,4.464,4.464,0,0,0-1.314-1.013.229.229,0,0,0-.042,0,10.537,10.537,0,0,0-1.748.491l-.01,0c-.351.114-.749.242-1.158.369a16.343,16.343,0,0,1-4.069.864c-.065,0-.128,0-.188,0a10.222,10.222,0,0,1-4.469-1.348,13.432,13.432,0,0,1-3.6-2.958,4.921,4.921,0,0,1-.7-1.538,2.072,2.072,0,0,0-.346-.794,4.078,4.078,0,0,0-1.6-.18,8.372,8.372,0,0,1-2.044-.184c-.466-.137-.917-.274-1.353-.407l-.006,0A20.756,20.756,0,0,0,71.126,197.859Zm60.9.106a11.686,11.686,0,0,0-2.362.223c-.562.117-4.074,1.239-4.4,2.281a.5.5,0,0,0,.135.516c1.567.518,3.832,1.572,6.454,2.793,5.57,2.593,12.5,5.82,16.907,5.82a5.569,5.569,0,0,0,2.351-.441c1.037-.484,1.554-1.091,1.538-1.806-.023-1.045-1.214-2.358-3.444-3.8a32.338,32.338,0,0,0-4.555-2.412C139.552,199.033,135.307,197.964,132.023,197.964Zm27.047,2.27a7.221,7.221,0,0,0-1.882.227,1.041,1.041,0,0,0-.708.457.831.831,0,0,0,0,.678c1.043,2.9,4.734,6.137,8.362,6.137a5.2,5.2,0,0,0,3.363-1.18,3.862,3.862,0,0,0,1.239-3.81,2.868,2.868,0,0,0-2-2.29,2.02,2.02,0,0,0-.516-.065,4.062,4.062,0,0,0-1.22.243l-.049.016a3.683,3.683,0,0,1-1.065.228c-.035,0-.069,0-.1,0-.728-.051-1.466-.17-2.248-.3A20.228,20.228,0,0,0,159.07,200.235Zm20.149-5.97a1.677,1.677,0,0,0-.424.044,17.156,17.156,0,0,0-2.537,2.057c-1.367,1.249-2.173,2.133-2.155,2.365a4.257,4.257,0,0,0,1.225,1.9,5.486,5.486,0,0,0,3.906,1.74,5.7,5.7,0,0,0,5.108-3.344,3.013,3.013,0,0,0-.6-3.431A10.3,10.3,0,0,0,179.219,194.265Zm-49.131-20.176h0a2.644,2.644,0,0,1,1.918.579,2.3,2.3,0,0,1,.728,1.787,2.879,2.879,0,0,1-.852,1.777c-.753.795-4.106,2.317-7.655,3.929a73.435,73.435,0,0,0-7.907,3.913,73.8,73.8,0,0,0-6.934,5.872c-1.955,1.835-5.254,5.1-5.393,6.357a3.53,3.53,0,0,0,.878,2.685,3.205,3.205,0,0,0,2.328,1.153l.109,0c2.555,0,6.748-2.462,11.187-5.068,4.367-2.564,8.883-5.214,12.274-5.79a24,24,0,0,1,4.057-.326,60.78,60.78,0,0,1,12.1,1.672l.3.062a65.009,65.009,0,0,0,13,1.734,27.968,27.968,0,0,0,10.536-1.947,29.724,29.724,0,0,0,4.776-3c1.875-1.327,3.647-2.58,4.341-2.586h.018A23.637,23.637,0,0,1,184.444,188a39.688,39.688,0,0,0,4.247,1.117,393.657,393.657,0,0,0,53.222,4.2c13.9,0,23.6-1.241,28.84-3.688,5.041-2.356,8.321-7.409,9.236-14.228,1.168-8.7-1.88-18.059-7.411-22.756-5.63-4.782-16.171-7.994-26.229-7.994-9.977,0-17.723,2.949-21.812,8.3.442-.036.968-.085,1.577-.141,2.579-.237,6.476-.6,10.257-.6a32.8,32.8,0,0,1,6.819.583c2.134.471,3.538,1.236,4.171,2.274a3.162,3.162,0,0,1,.627,1.811,2.617,2.617,0,0,1-.945,1.648c-.928.914-3.789,1.34-9,1.34-1.678,0-3.4-.042-5.028-.085l-.414-.011h0c-1.417-.038-2.755-.074-3.819-.074-.6,0-1.08.011-1.459.034a205.105,205.105,0,0,0-22.288,3.029c-8.007,1.388-16.286,2.824-24.5,3.15-.738.029-1.463.044-2.153.044a38.7,38.7,0,0,1-14.183-2.659,76.856,76.856,0,0,0-8.742-2.533,100.249,100.249,0,0,0-21.417-2.32c-13.179,0-25.548,2.671-35.771,7.723a53.29,53.29,0,0,0-13.318,9.537c-3.353,3.353-7.291,8.489-7.008,13.915.032.618.3,3.008.736,3.274a2.244,2.244,0,0,0,1.162.362c1.567,0,2.7-2.051,3.7-3.861a18.535,18.535,0,0,1,1.067-1.782,71.131,71.131,0,0,1,14.742-14.6c4.84-3.558,12.044-7.8,18.877-7.8.231,0,.463,0,.689.015a6.2,6.2,0,0,1,3.734,1.809,1.176,1.176,0,0,1,.273.992c-.092.4-4.355,1.981-7.78,3.248l0,0c-1.856.687-3.459,1.28-4.044,1.554-7.436,3.493-17.393,10.725-21.679,18.35-1.341,2.385-1.723,4.743-1.022,6.308a3.9,3.9,0,0,0,2.955,2.136,4.937,4.937,0,0,0,1.058.119c2.861,0,4.727-2.666,6.532-5.243a25.74,25.74,0,0,1,2.116-2.764c1.791-1.917,3.926-4.157,6.175-6.229a44.076,44.076,0,0,1,6.888-5.342,66.114,66.114,0,0,1,7.236-3.587C124.032,175.449,127.721,174.089,130.088,174.089ZM39.2,146.321a45.142,45.142,0,0,0-13.554,2.046c-9.108,2.908-16.774,11.819-18.226,21.188-.969,6.252-.046,11,2.822,14.518,4.874,5.976,14.548,7.238,24.276,7.712,2.984.146,6.121.217,9.587.217,7.382,0,14.913-.33,22.2-.648l.037,0c1.6-.07,3.248-.142,4.853-.209a20.956,20.956,0,0,1,1.126-8.158,24.994,24.994,0,0,1,3.727-6.827c3.145-4.195,7.414-7.772,11.542-11.231,1.306-1.094,2.656-2.226,3.924-3.34a104.975,104.975,0,0,1-15.593-2.775,104.873,104.873,0,0,0-15.514-2.765c-.32-.024-.716-.036-1.213-.036-1.518,0-3.735.113-6.082.233l-.764.039c-2.712.138-5.562.272-7.99.272-3.366,0-5.269-.265-5.818-.809a1.944,1.944,0,0,1-.549-2.26,5.313,5.313,0,0,1,2.585-2.426,7.786,7.786,0,0,1,3.329-1.022h.04l9.384-1.383A42.268,42.268,0,0,0,39.2,146.321ZM207.91,92.613c.713,2.2-.309,5.447-.92,7.387a21.614,21.614,0,0,1-4.675,8.392,25.333,25.333,0,0,1-7.87,5.544,66.973,66.973,0,0,1-.351,11.865,70.6,70.6,0,0,1-2.339,11.4,79.757,79.757,0,0,1-4.094,10.907,94.181,94.181,0,0,1-5.615,10.389l27.709-3.077a12.565,12.565,0,0,0-1.815-3.142,13.729,13.729,0,0,1-1.906-3.291,26.624,26.624,0,0,1-1.231-6.241,62.8,62.8,0,0,1-.239-8.156,53.115,53.115,0,0,1,.834-8.024,17.343,17.343,0,0,1,1.987-5.844,2.66,2.66,0,0,1,2.215-1.39,2.729,2.729,0,0,1,2.5,2.03c.678,2.249.3,6.441-.058,10.495a55.767,55.767,0,0,0-.361,9.015c.331,3.474,1.387,8.283,4.54,11.46a26.66,26.66,0,0,1,12.542-11.589,40.525,40.525,0,0,1,17.022-3.365,64.526,64.526,0,0,1,23.088,4.491C251.356,112.057,230.844,95.485,207.91,92.613Zm-71.372,59.009a82.41,82.41,0,0,1,11.885.9,119.173,119.173,0,0,1,11.711,2.338,31.665,31.665,0,0,1,4.21,1.445,13.488,13.488,0,0,0,4.888,1.318,7.663,7.663,0,0,0,5.207-2.414c12.284-11.24,13.4-30.051,13.179-43.223a11.993,11.993,0,0,0-.156-1.383c-.216-1.459-.485-3.274.365-4.286a2.447,2.447,0,0,1,1.9-.764h.065a2.841,2.841,0,0,1,1.864.814l.093.076a2.4,2.4,0,0,0,1.5.738c.828,0,1.87-.712,3.277-2.24,3.732-4.052,5.68-11.415,4.849-18.323-.662-5.5-2.95-9.807-6.443-12.131a10,10,0,0,0-5.4-1.8c-2.936,0-4.942,1.814-5.5,4.978a26.376,26.376,0,0,0-.044,3.784c.1,3.815.226,9.037-1.317,10.62a1.471,1.471,0,0,1-1.083.473,3.513,3.513,0,0,1-1.986-.867c-1.852-3.2-3.78-6.448-5.644-9.591l0-.005c-4.031-6.8-8.2-13.83-11.939-20.862l-.332-.622c-1.557-2.917-3.168-5.934-3.7-9.2-1.521.118-3.106.177-4.712.177a90.187,90.187,0,0,1-14.027-1.226c-4.534-.714-8.958-1.639-13.857-2.686a43.358,43.358,0,0,1,6.009,6.749c1.211,1.829,1.626,3.251,1.234,4.228a2.379,2.379,0,0,1-1.5,1.281,9.348,9.348,0,0,1-3.137.428,45.521,45.521,0,0,1-8.879-1.186,69.553,69.553,0,0,1-10.224-2.965,41.138,41.138,0,0,1-9.363-4.846l.2,1,0,.016c1.589,7.836,3.391,16.717.914,19.748a2.936,2.936,0,0,1-2.392,1.069,9.657,9.657,0,0,1-4.279-1.366,42.348,42.348,0,0,1-6.447-4.478,16.435,16.435,0,0,1-1.717-1.746,11.713,11.713,0,0,0-2-1.934,1.943,1.943,0,0,1-.341-.306c-.128-.136-.239-.253-.365-.253-.152,0-.318.17-.537.55-.558.969-1.42,4.886-1.834,6.769-.043.2-.082.372-.115.52-.385,1.73-.633,3.619-.9,5.618a44.027,44.027,0,0,1-1.99,9.636A13.5,13.5,0,0,1,75.5,90.169a10.165,10.165,0,0,1-3.715,2.788C73.344,97.52,74.8,102.2,76.2,106.735c2.97,9.58,6.041,19.484,10.282,28.782l.037.082a98.732,98.732,0,0,0,6.159,11.844c3.2,5.029,6.281,7.874,9.145,8.457a6.3,6.3,0,0,0,1.245.112,30.17,30.17,0,0,0,7.08-1.384c1.248-.343,2.427-.667,3.423-.861,1.057-.207,2.549-.393,4.129-.591a38.024,38.024,0,0,0,6.938-1.237,16.53,16.53,0,0,0,2.2-2.952,31.064,31.064,0,0,1,2.245-3.107,29.283,29.283,0,0,1,10.531-6.707,35.426,35.426,0,0,1,12.459-2.3c1.048,0,2.092.051,3.1.151a25.377,25.377,0,0,1,5.35,1.269c1.712.613,3.843,1.636,4.272,3.027.266.863-.157,1.768-1.258,2.69a4.145,4.145,0,0,1-2.773.969,13.09,13.09,0,0,1-3.428-.652,15.423,15.423,0,0,0-2.71-.6c-.877-.08-1.77-.12-2.655-.12-7.8,0-14.8,2.958-19.2,8.115C134.019,151.656,135.284,151.623,136.538,151.623Zm-96.6-12.173a39.85,39.85,0,0,1,14.232,2.387,33.56,33.56,0,0,1,6.56,3.328,37.074,37.074,0,0,1,6.124,5.058l20.973,3.347a103.626,103.626,0,0,1-8.337-16.712c-2.329-5.788-4.351-11.828-6.307-17.67v0C71.946,115.5,70.672,111.7,69.337,108a139.106,139.106,0,0,0-43.709,32.34c-.042.534-.028.8.047.878a.092.092,0,0,0,.071.031.721.721,0,0,0,.3-.145,1.847,1.847,0,0,1,.66-.3A72.742,72.742,0,0,1,39.934,139.449Z" transform="translate(-76.609 -15.455)" fill="#020202" stroke="rgba(0,0,0,0)" stroke-miterlimit="10" stroke-width="1"/>
      <path id="Tracciato_521" data-name="Tracciato 521" d="M1385.529,585.171c5.1.587,23.142-.864,24.968,4.9,1.7,5.368-1.6,8.686-6.8,8.93-8.173.384-21.832-.629-30.171-1.513-7.68-.814-12.21-3.318-7.971-11.651l23.662-23.76c.258-1.39-.605-.853-1.523-.917-4.764-.331-15.415-.038-19.255-1.693-4.347-1.875-3.973-10.155.619-12,3.314-1.334,12.171.525,16.168.76,5.145.3,18.069-.125,22.088,1.929,4.043,2.066,4.353,7,2.128,10.6-2.6,4.2-14.415,14.837-18.663,18.9-.562.538-6.341,4.582-5.247,5.523" transform="translate(-1236.365 -585)" fill="#020202"/>
      <path id="Tracciato_522" data-name="Tracciato 522" d="M1397.649,671.733h11.393c1.374,0,4.447,1.493,4.959,3.042,1.313,3.967-.73,6.947-4.638,7.8-7.8-1-16.659.4-24.328-1-2.177-.4-4.06-3.678-3.976-5.789.222-5.572,13.459-14.451,16.59-19.45H1388.1c-1.478,0-4.038-3.486-4.037-5.235,0-6.782,10.665-5.36,15.151-5.246,2.7.068,10.927.523,12.571,1.576,9.61,6.154-11.293,19.024-14.139,24.3" transform="translate(-1242.946 -622.909)" fill="#020202"/>
      <path id="Tracciato_563" data-name="Tracciato 563" d="M1226.3,752.014c1.41-.464,3.3.932,3.96,2.086,4.4,7.663-7.011,15.2-3.763,19.78,2.159,3.043,7.835,1.105,10.2-.974,2.059-1.81,2.853-5.637,6.454-3.99,3.265,1.493.959,6.4-.907,8.306-9.922,10.116-28.21,3.638-21.361-11.508.824-1.822,2.852-3.929,3.506-5.732.669-1.846.6-7.538,1.91-7.969" transform="translate(-1180.837 -663.732)" fill="#030303"/>
      <path id="Tracciato_564" data-name="Tracciato 564" d="M1247.845,730.569c.275-.437,2.45-.81,3.158-.623,1.177.311,3.875,4.117,5.95,5.186,5.482,2.824,11.682,2.344,13.788-4.146.653-2.009.384-8.179,4.449-5.493,4.129,2.729.49,11.034-2.174,13.926-4.957,5.383-12.843,4.779-18.9,1.631-2.894-1.5-8.431-7.047-6.268-10.482" transform="translate(-1191.583 -653.323)" fill="#030303"/>
      <path id="Tracciato_565" data-name="Tracciato 565" d="M1192,721.6c-.636.618-13.095,2.675-16.7,4.541-5.118,2.647-5.818,5.557-9.314,8.545-3.182,2.72-7.022.972-5.188-3.327,3.968-9.306,20.86-16.382,30.426-14.543,2.181.419,1.918,3.68.781,4.784" transform="translate(-1158.147 -650.134)" fill="#030303"/>
      <path id="Tracciato_566" data-name="Tracciato 566" d="M1199.419,752.145c3.6-.523,4.1,3.658,3.865,6.357-.8,9.072-11.817,15.746-20.037,11.412-2.406-1.269-6.651-5.657-4.65-8.372,2.738-3.716,5.738,2.64,9.127,3.3,3.372.655,7.107-1.7,8.477-4.792,1.314-2.969-.094-7.421,3.218-7.9" transform="translate(-1164.968 -663.801)" fill="#030303"/>
      <path id="Tracciato_567" data-name="Tracciato 567" d="M1267.5,694.31c-1.2,1.962-7.247.6-9.458.7-4.227.187-8.927,2.123-12.732,3.9-2.284,1.064-9.627,7.26-10.353,1.94-.445-3.255,3-4.885,5.368-6.31,6.194-3.726,17.062-7.2,24.221-5.369,2.235.57,4.315,2.924,2.954,5.148" transform="translate(-1186.803 -639.429)" fill="#030303"/>
      <path id="Tracciato_568" data-name="Tracciato 568" d="M1344.5,710.115a3.275,3.275,0,0,1,3.208,2.662c.133,2.357-3.005,4.376-3.322,7.019-.252,2.107,2.718,10.06-1.786,9.226-4.309-.8-5.039-17.877,1.9-18.907" transform="translate(-1226.913 -647.664)" fill="#050505"/>
    </g>
  </g>
</svg>
