<svg xmlns="http://www.w3.org/2000/svg" xmlns:xlink="http://www.w3.org/1999/xlink" width="350" height="350" viewBox="0 0 350 350">
  <defs>
    <clipPath id="clip-Tavola_da_disegno_4">
      <rect width="350" height="350"/>
    </clipPath>
  </defs>
  <g id="Tavola_da_disegno_4" data-name="Tavola da disegno – 4" clip-path="url(#clip-Tavola_da_disegno_4)">
    <g id="Raggruppa_26" data-name="Raggruppa 26" transform="translate(74.272 73.019)">
      <path id="Sottrazione_19" data-name="Sottrazione 19" d="M147.007,292.031a4.607,4.607,0,0,1-1.62-.277c-31.454-18.951-66.77-36.4-111.142-54.916a3.031,3.031,0,0,1-1.305-2.233,4.094,4.094,0,0,1,1.371-3.084l12.582-6.336c-13.759-2.323-40.8-17.792-45.677-31.039-2.728-7.407-.332-15.162,1.984-22.661a59.871,59.871,0,0,0,2.862-12,6.507,6.507,0,0,0-.65-2.508,11.669,11.669,0,0,1-1.042-4.5,93.735,93.735,0,0,1,1.779-13.658c.942-5.045,2.253-11.049,3.9-17.846,2.985-12.339,6.507-24.931,8.616-31.965a15.211,15.211,0,0,1,3.64-6.5A10.524,10.524,0,0,0,24.155,79.9c.354-.77,1.633-6.538,2.671-11.571,1.079-5.229,2.125-10.767,2.026-11.351a19,19,0,0,0-1.54-4.106l0-.009a23.7,23.7,0,0,1-2.158-6.184,26.467,26.467,0,0,1,.062-6.97,33.139,33.139,0,0,1,1.869-7.34A26.789,26.789,0,0,1,30.645,25.8a16.95,16.95,0,0,1,5.153-4.66,16.743,16.743,0,0,1,3.861-1.248h.005a8.673,8.673,0,0,0,2.415-.771,19.069,19.069,0,0,0,1.262-2.3l.019-.037a41.993,41.993,0,0,1,2.888-5.119,22.242,22.242,0,0,1,6.657-5.4,43.215,43.215,0,0,1,8.9-3.611A69.823,69.823,0,0,1,80.56,0c.638,0,1.266.011,1.865.032,9.339.33,21.751,3.787,34.952,9.734A157.1,157.1,0,0,1,134.7,18.9a100.93,100.93,0,0,1,13.823,10,53.811,53.811,0,0,1,3.866,3.937l0,0a42.78,42.78,0,0,0,4.368,4.34A200.24,200.24,0,0,1,178.97,20.841c8.8-5.386,17.079-8.836,25.313-10.546A87.561,87.561,0,0,1,212.967,9a107.781,107.781,0,0,1,11.067-.585,67.76,67.76,0,0,1,15.939,1.664c5.393,1.323,9.443,3.417,12.037,6.224a12.812,12.812,0,0,1,2.768,4.62,15,15,0,0,1,.662,6,13.6,13.6,0,0,1-2.38,7.012,13.061,13.061,0,0,1-5.253,4.154c-3.7,1.7-8.781,2.5-15.979,2.5-3.52,0-7.2-.182-10.445-.343h-.007l-.277-.014h-.006c-3.418-.169-6.646-.329-9.665-.329-4.748,0-8.065.418-10.437,1.317l12.79,4.135a31.01,31.01,0,0,1,10.67,6.318,20.235,20.235,0,0,1,6.257,9.768,13.136,13.136,0,0,1-.067,6.77,18.377,18.377,0,0,1-9.189,10.717,12.421,12.421,0,0,1-5.227,1.141,20.665,20.665,0,0,1-9.619-2.858,87.971,87.971,0,0,1-9.327-6.08l-.013-.009c-3.816-2.722-7.421-5.293-10.72-6.5a33.349,33.349,0,0,0-11.854-2.1,52.15,52.15,0,0,0-7.584.613c-.729,4.072.5,6.514,1.8,9.1,1.229,2.441,2.5,4.964,2.012,9-.6,4.973-2.018,8.728-4.461,11.818-2.241,2.835-5.135,4.9-8.486,7.294l0,0-.009.006c-1.316.94-2.677,1.913-4.1,3-.645.495-3.764,5.661-6.569,10.561-2.7,4.722-5.668,10.164-5.79,10.953a3.79,3.79,0,0,0,.349,1.323c.561,1.55,1.409,3.892-.158,5.51l-22.4,41.685c17.621-13.51,34.665-26.925,49.484-42.5,2.88-3.026,5.636-6.407,8.3-9.677l.017-.02c2.462-3.019,5.007-6.141,7.6-8.919.309-.331.59-.637.839-.907l0,0a12.834,12.834,0,0,1,2.546-2.384,5.68,5.68,0,0,1,3.128-.686c.562,0,1.212.03,2.046.1,11.466.9,26.582,4.253,37.243,6.91,12.618,3.145,26.358,7.161,36.753,10.744,2.165.746,8.739,3.261,14.834,5.961,5.368,2.378,11.88,5.577,12.412,7.308.922,3-2.287,9.181-4.011,12.5l0,.01c-.141.271-.273.525-.392.757a255.236,255.236,0,0,1-24.68,38.157,399.34,399.34,0,0,1-33.243,37.86A416.623,416.623,0,0,1,194.6,262.225a284.726,284.726,0,0,1-37.671,25.5c-.515.285-1.068.613-1.654.96l-.013.008C152.755,290.181,149.633,292.031,147.007,292.031Zm45.13-175.7h0c-8.9,10.393-17.991,20.1-27.033,28.841a337.684,337.684,0,0,1-29.929,25.817c-2.132,1.625-5.585,3.857-9.24,6.219l-.006,0-.01.007c-5.683,3.674-12.124,7.839-14.4,10.3a9.857,9.857,0,0,0-1.364,2.224l0,0a10.875,10.875,0,0,1-2.476,3.561,14.4,14.4,0,0,1-3.421,1.795l-.005,0a9.3,9.3,0,0,0-2.048,1.023,82.6,82.6,0,0,0-3.961,7.736l0,0-.015.031c-2.362,4.87-5.04,10.39-6.284,12.2-3.144,4.567-6.657,7.453-11.057,9.082-3.993,1.479-8.242,1.8-13.161,2.166-2.618.2-5.324.4-8.231.8l-11.929,6.322c16.155,6.305,32.641,13.7,50.4,22.595,14.721,7.376,30.621,15.957,48.609,26.235l1.939.057a372.4,372.4,0,0,0,117.44-107.117c1.338-1.888,6.517-9.558,11.392-17.337,4.159-6.637,9.028-14.853,8.6-16.309-.46-1.574-9.865-5.057-17.673-7.7-8.823-2.989-18.225-5.8-20.651-6.492A421.218,421.218,0,0,0,192.137,116.334ZM11.037,168.06A42.3,42.3,0,0,1,9.4,176.853c-1.42,5.494-2.888,11.174-.239,15.994,3.915,7.121,12.31,13.972,23.639,19.291,10.839,5.089,22.859,8.007,32.978,8.006A35.82,35.82,0,0,0,79.134,217.9c4.836-1.954,8.534-9.119,11.506-14.876.972-1.884,1.891-3.664,2.748-5.068-2.107.106-4.236.159-6.327.16a121.261,121.261,0,0,1-21-1.814A110.764,110.764,0,0,1,45.9,190.772,99.839,99.839,0,0,1,27.314,181.4,92.493,92.493,0,0,1,11.037,168.06h0Zm13.285-70.4c-1.085,4.646-2.259,9.354-3.395,13.907-2,8-4.059,16.273-5.707,24.484-.211,1.05-.5,2.307-.8,3.638-1.182,5.219-2.653,11.715-2.028,15.385s9.139,12.3,12.27,14.957c14.013,11.913,39.011,20.559,59.439,20.559a62.24,62.24,0,0,0,9.534-.695c3.866-.6,7.754-1.5,10-3.943,1.269-2.268,2.546-4.543,3.781-6.744,7.6-13.549,15.468-27.559,22.494-41.7a65.387,65.387,0,0,1-15.526,1.792,93.633,93.633,0,0,1-20.655-2.5A146.8,146.8,0,0,1,73.962,130.7a156.641,156.641,0,0,1-23.287-11.146,148.87,148.87,0,0,1-21.064-14.907Zm10.13-31.951a.218.218,0,0,0-.172.068c.05,3.294-.954,7.356-2.017,11.657-1.348,5.454-2.742,11.093-1.829,15.1a12.5,12.5,0,0,0,3.23,5.054,56.77,56.77,0,0,0,6.2,5.621,127.156,127.156,0,0,0,12.4,8.669c15.76,9.53,41.893,19.787,62.029,19.786,1.374,0,2.717-.049,3.992-.145a50.346,50.346,0,0,0,6.933-1.036c3.149-.725,5.143-1.636,5.928-2.707,2.129-2.9,3.9-7.062,5.612-11.084a67.213,67.213,0,0,1,5.114-10.4,100.319,100.319,0,0,1-10.917.586,120.4,120.4,0,0,1-23.584-2.43A143.492,143.492,0,0,1,84.067,97.64,142.588,142.588,0,0,1,43.261,73.729c-.249-.212-.885-.868-1.691-1.7C39.277,69.666,35.44,65.711,34.452,65.712Zm5.487-38.557c-.806,0-2.162,1.572-3.157,2.89a30.562,30.562,0,0,0-2.389,3.637c-3.84,7.909-2.01,16.542,5.439,25.658C46.1,67.01,55.252,73.583,61.825,77.746c17.286,10.948,45.313,21.993,68.959,21.992a55.684,55.684,0,0,0,18.088-2.719c8.452-2.912,16.085-11.126,13.585-20.614a26.707,26.707,0,0,1-5.937,5.847,30.129,30.129,0,0,1-7.166,3.742,47.867,47.867,0,0,1-16.428,2.573,94.238,94.238,0,0,1-17.093-1.731,127.02,127.02,0,0,1-20.638-5.919A159.017,159.017,0,0,1,72.289,70.284,99.7,99.7,0,0,1,52.38,55.818C46.46,50.1,42.542,44.239,40.733,38.4c-1.005-3.245-1.968-7.443-.479-11.138A.488.488,0,0,0,39.939,27.155Zm6.964.1c-.929,8.976,2.865,16.892,11.938,24.913,15.615,13.8,49.845,29.181,74,29.181a38.578,38.578,0,0,0,15-2.633c4.447-1.883,9.726-6.228,9.969-12.274A48.282,48.282,0,0,0,153.04,68.8a30.65,30.65,0,0,1-7.811,3.325,42.279,42.279,0,0,1-8.9.864,88.268,88.268,0,0,1-21.8-3.175A157.323,157.323,0,0,1,91.1,61.565a155.981,155.981,0,0,1-21.35-11.389A102.712,102.712,0,0,1,61.016,43.9a61.432,61.432,0,0,1-6.831-6.337ZM175.382,54.929h0a37.732,37.732,0,0,1,17,3.844,53.361,53.361,0,0,1,6.777,4.578,88.778,88.778,0,0,0,8.4,5.752c3.307,1.895,6.055,2.816,8.4,2.815a7.442,7.442,0,0,0,5.624-2.474c1.9-2.038,2.6-4.158,2.056-6.3-.665-2.642-3.147-5.3-7.378-7.891a52.264,52.264,0,0,0-9.825-4.561c-.986-.334-2.337-.655-3.768-.994a49.778,49.778,0,0,1-7.2-2.1c-2.606-1.07-4.172-2.332-4.786-3.858a4.312,4.312,0,0,1-.212-2.414,8.538,8.538,0,0,1,1.3-3.023c1.387-2.153,5.654-3.676,8.99-4.574a58.426,58.426,0,0,1,10.52-1.817c.348-.019.739-.029,1.162-.029,2.227,0,5.291.272,8.534.559l.081.007,1.09.1c3.816.335,7.86.663,11.655.663a34.274,34.274,0,0,0,7.947-.75c2.42-.588,4.125-1.552,5.069-2.865,1.609-2.238,2.047-4.28,1.3-6.068-1.833-4.39-10.248-6.159-13.781-6.716a72.605,72.605,0,0,0-11.264-.893c-14.792,0-29.256,4.619-44.22,14.122-3.509,2.229-7.343,5.04-11.4,8.016A190.713,190.713,0,0,1,147.9,51.2c-7.741,4.3-14.38,6.425-20.3,6.483h-.076c-1.651,0-3.581-.52-4.17-1.681a2.425,2.425,0,0,1,.54-2.563c.858-1.171,5.477-2.792,9.188-4.1,1.647-.578,3.069-1.077,3.886-1.441a1.352,1.352,0,0,1,.4-.076c.245-.024.5-.049.6-.227.09-.151.062-.394-.085-.743-.4-.948-3.2-3.292-5.473-5.091-2.584-2.042-5.4-4.094-6.533-4.824-13.847-8.952-30-12.735-41.119-14.333-.325.3,1.013,2.3,2.087,3.91a21.388,21.388,0,0,1,1.149,1.815,19.3,19.3,0,0,1,1.91,6.083,6.01,6.01,0,0,1-.714,3.877c-.953,1.5-2.809,2.3-5.365,2.3a23.563,23.563,0,0,1-10.551-3.1A27.092,27.092,0,0,1,68.4,34.172a16.519,16.519,0,0,1-3.476-4.027,11.53,11.53,0,0,1-.876-10.36,7.589,7.589,0,0,1,5.918-4.326,51.907,51.907,0,0,1,8.553-.668c10.048,0,21.856,2.449,33.247,6.895,11.333,4.423,21.2,10.406,27.794,16.845a45.952,45.952,0,0,1,3.62,4.708,20.191,20.191,0,0,0,1.415,1.9.439.439,0,0,0,.249.062c1.216,0,5.017-2.755,5.629-3.735.2-.936-3.912-4.42-7.394-7.179-4.106-3.253-8.367-6.315-9.5-7.044-10.973-7.061-29.089-16.117-44.033-18.4A70.972,70.972,0,0,0,79.237,8.13,60.994,60.994,0,0,0,63.589,9.964c-5.275,1.473-8.641,3.716-10,6.668-1.757,3.81-.1,8.728,4.924,14.615C74.846,50.388,115.433,65.8,138.146,65.8h.1c5.091-.01,8.676-1.99,12.47-4.087a56.845,56.845,0,0,1,5.317-2.693A50.032,50.032,0,0,1,175.382,54.929ZM74.488,22.493a8.116,8.116,0,0,0-3.05.41,1.791,1.791,0,0,0-.6,2.223c.465,1.517,2.16,3.561,4.422,5.333s4.6,2.88,6.089,2.88a2.372,2.372,0,0,0,.748-.11c.028-.027.037-.089.026-.184a31.141,31.141,0,0,0-2.533-5.521,27.311,27.311,0,0,0-2.943-4.77A5.757,5.757,0,0,0,74.488,22.493Z" transform="translate(-46.608 -44.035)" fill="#020202" stroke="rgba(0,0,0,0)" stroke-miterlimit="10" stroke-width="1"/>
      <path id="Tracciato_503" data-name="Tracciato 503" d="M429.484,633.04c9.484-2.755,31.823,11.587,23.07,21.074-3.694,4-8.848,1.176-12.257-1.615-1.324-1.084-12.395-12.93-12.771-13.792-.937-2.145-.539-4.942,1.959-5.667" transform="translate(-232.792 -619.126)" fill="#020202"/>
      <path id="Tracciato_588" data-name="Tracciato 588" d="M282.824,819.079c-1.362-1.342-.977-4.469.681-5.361,6.127-3.3,15.906-2.321,21,2.6,1.422,1.374,3.626,5.727,5.2,6.139,1.479.387,7.03-1.335,9.835-1.27,3.953.092,8.827,1.408,11.631,4.327,1.8,1.87,2.928,5.744,5.022,6.933,3.678,2.089,20.724,1.557,18.758,8.886-1.271,4.739-6.523,1.233-9.06.678-5.24-1.149-11.13-.787-15.437-4.489-4.639-3.987-3-9.022-11.6-9.045-5.863-.016-9.247,3.743-14.955-.927-5.028-4.113-3.176-9.047-12.267-8.308-2.625.214-6.372,2.24-8.812-.165" transform="translate(-184.077 -679.27)" fill="#030303"/>
      <path id="Tracciato_589" data-name="Tracciato 589" d="M322.144,782.176c4.928-.57,10.424-.069,14.427,3.136,1.445,1.157,2.922,4.162,4.11,4.525,2.815.86,6.38-.488,9-.371,3.227.144,8.141,1.842,10.493,4.125,1.86,1.805,3.048,5.515,5.462,6.494,2.753,1.115,6.8.254,9.951.675,4.182.559,16.65,5.771,10.445,10.779-3.042,2.456-5.96-1.8-9.135-2.79-5.755-1.789-13.282.1-18.107-4.475-2.063-1.957-2.316-4.933-5.471-6.483-4.7-2.308-10.356.648-15.642-.964-5.382-1.642-3.527-8.185-13.714-7.518-2.934.192-9.643,3.353-10.871-1.158-1.107-4.067,6.273-5.654,9.054-5.975" transform="translate(-194.481 -669.257)" fill="#030303"/>
      <path id="Tracciato_590" data-name="Tracciato 590" d="M252.977,842.12c7.515-1.024,14.014.278,20.011,4.847,3.277,2.5,4.255,5.551,9.081,6.195,4.445.593,7.962-.381,12.7,1.248,6.48,2.228,9.314,8.257,14.86,11.708,3.757,2.338,12.52,3.041,11.116,7.878-1.77,6.093-14.6-.715-17.757-3.229-3.662-2.92-4.785-6.72-9.362-8.57-5.45-2.2-10.388-.87-15.448-2.485-7.414-2.365-9.774-9.569-18.756-10.468-3.985-.4-10.614,1.8-11.859-2.815-.909-3.37,2.758-3.946,5.416-4.308" transform="translate(-172.465 -689.345)" fill="#030303"/>
      <path id="Tracciato_591" data-name="Tracciato 591" d="M261.631,887.917c-4.338-4.167-16.332-.76-21.984-8.236-2.92-3.863-2.1-7.082-8.171-8.433-2.249-.5-13.347-.672-11.156-5.46,2.168-4.737,14.49-1.44,18.093.515,4.682,2.54,5.728,8.707,8.883,10.378,3.472,1.838,10.044,1.026,14.806,3.127,6.035,2.663,6.274,6.994,10.16,9.765,4.144,2.956,14.075,4.045,16.8,6.443,2.228,1.959,1.793,5.921-1.28,6.666-1.564.379-16.1-4.6-18.188-5.794-4.623-2.638-5.08-6.2-7.965-8.972" transform="translate(-163.268 -696.586)" fill="#030303"/>
      <path id="Tracciato_592" data-name="Tracciato 592" d="M349.445,751.993c5.988-1.214,14.29-.11,19.091,3.852,3.87,3.192,3.059,6.245,9.293,5.962,6.389-.29,8.218-2.4,15.315.647,4.612,1.979,5.578,6.154,9.455,7.813,3.646,1.56,12.818.72,13.45,4.52,1.458,8.77-15.342,3.325-19.225.589-2.172-1.53-5.07-5.944-7.312-6.635-5-1.542-11.153,1.25-16.159.217-6.922-1.427-8.607-10.384-18.089-10.53-2.621-.04-9.143,2.413-10.174-1.082-.848-2.875,1.808-4.838,4.355-5.354" transform="translate(-205.21 -659.032)" fill="#030303"/>
    </g>
  </g>
</svg>
