<svg xmlns="http://www.w3.org/2000/svg" xmlns:xlink="http://www.w3.org/1999/xlink" width="350" height="350" viewBox="0 0 350 350">
  <defs>
    <clipPath id="clip-Tavola_da_disegno_13">
      <rect width="350" height="350"/>
    </clipPath>
  </defs>
  <g id="Tavola_da_disegno_13" data-name="Tavola da disegno – 13" clip-path="url(#clip-Tavola_da_disegno_13)">
    <g id="Raggruppa_29" data-name="Raggruppa 29" transform="translate(68.829 68.454)">
      <path id="Sottrazione_61" data-name="Sottrazione 61" d="M275.05,303.585a4.917,4.917,0,0,1-3.26-1.65c-.87-1.162-1.581-5.923-2.058-13.767-.032-.536-.022-1.71-.008-3.2v0c.049-5.408.14-15.475-1.662-15.65-6.752,2.341-13.837,2.537-20.516,2.537-.8,0-1.619,0-2.407-.007h-.266c-.777,0-1.744-.007-2.675-.007-1.608,0-3.725.011-5.838.1a10.3,10.3,0,0,0-1.947.322,8.36,8.36,0,0,1-1.9.3,3.5,3.5,0,0,1-1.965-.585c-.411,1.935.062,6.658.563,11.657l0,.017c.819,8.177,1.748,17.445-.541,18.974a2.744,2.744,0,0,1-1.554.472,4,4,0,0,1-2.472-.974,4.853,4.853,0,0,1-1.558-2.23l-2.732-31.672a67.506,67.506,0,0,0-.034-10.138,61.969,61.969,0,0,1,.029-10.567c.236-1.847,1.062-2.906,2.265-2.906,1.27,0,2.638,1.186,3.326,2.885.615,1.519.9,4.87,1.125,7.563v.019c.066.782.128,1.52.192,2.11a14.525,14.525,0,0,1-.017,2.087v.009c-.116,2.246-.261,5.042,1.881,5.674a14.361,14.361,0,0,0,4.042.483,62.016,62.016,0,0,0,7.253-.613l.02,0a61.969,61.969,0,0,1,7.2-.612,16.86,16.86,0,0,1,2.67.188c1.748-.151,6.827-.756,11.436-1.455,4.183-.634,9.358-1.55,10.255-2.313,1.231-1.045.758-4.053.3-6.962v0c-.321-2.039-.624-3.966-.317-5.085a14.372,14.372,0,0,1-6.518,1.478c-4.9,0-9.942-2.14-14.388-4.029l-.194-.082a294.938,294.938,0,0,1-38.97-20.894c-3.96-2.549-6.707-5.053-8.4-7.654a12.052,12.052,0,0,1-2.034-7.663,22.514,22.514,0,0,1,2.551-8.227c1.416-2.9,3.327-6.025,5.35-9.338l0-.007.389-.637c.49-.8,1.63-2.472,3.073-4.586l.015-.022,0,0C219,180.7,225.411,171.314,225,169.88c-.117-.406-1.046-1.011-2.686-1.749a60.1,60.1,0,0,0-5.738-2.152c-3.97-1.292-8.984-2.6-11.236-2.6a1.9,1.9,0,0,0-.973.176c-.936.629-1.424,4.334-1.816,7.311A33.989,33.989,0,0,1,202,174.28a40.963,40.963,0,0,1-9.489,17.174,37.139,37.139,0,0,1-16.487,10.522,45.152,45.152,0,0,1-12.819,1.862,34.285,34.285,0,0,1-15.864-3.53,22.25,22.25,0,0,1-6.236-4.786,20.8,20.8,0,0,1-4.176-7.131,23.666,23.666,0,0,1-.736-3.1c-.366-1.886-.744-3.837-1.587-4.894-.91-1.142-3.244-2.2-5.5-3.221l-.007,0a31.331,31.331,0,0,1-3.36-1.669,51.743,51.743,0,0,1-7.932-6.2,68.354,68.354,0,0,1-6.784-7.465l-35.991-7.524a87.066,87.066,0,0,1-2.044,20.374,78.067,78.067,0,0,1-6.783,19.312,47.954,47.954,0,0,1-4.359,6.484c-2.076,2.753-4.222,5.6-5.4,8.87l37.841,7.573c.162-1.516.3-3.082.43-4.6l.012-.14v-.009c.265-3.061.54-6.226,1.036-9.261.016-.1.036-.231.062-.4v0l.012-.078,0-.015,0-.013a69,69,0,0,1,1.521-7.608c1.013-3.674,2.154-5.537,3.39-5.537a2.259,2.259,0,0,1,1.622,1.012c.924,1.122,1.175,6.932.745,17.27-.341,8.2-1,16.649-1.25,19.83l-.017.214c-1.176,15.061-3.059,31.929-5.6,50.137-.11.789-.246,1.933-.39,3.144v.009c-.765,6.4-2.044,17.116-4.021,19.267a3.98,3.98,0,0,1-2.6,1.6,1.652,1.652,0,0,1-1.207-.56c-.873-.905-1.482-2.871-1.81-5.842a44.291,44.291,0,0,1-.225-5.852c.28-7.585,1.687-15.742,3.048-23.629.9-5.193,1.823-10.563,2.4-15.651.518-4.587.836-9.267,1.144-13.794l0-.038c.28-4.121.569-8.382,1.009-12.571-9.071-1.383-18.768-2.965-28.223-5.155-.76-.176-1.624-.362-2.539-.559l-.025-.005-.036-.008A78.988,78.988,0,0,1,49.7,214.418a21.827,21.827,0,0,1-5.627-3.217,8.97,8.97,0,0,1-3.124-4.581,15.912,15.912,0,0,1-.3-4.392c.046-1.957.094-3.981-.875-5.789-.835-.292-1.672-.583-2.392-.832l-.053-.019-.005,0a165.5,165.5,0,0,1-15.74-6.067,60.6,60.6,0,0,1-8.821-4.985A37.53,37.53,0,0,1,6.426,179.1a25.863,25.863,0,0,1-4.068-5.828A22.023,22.023,0,0,1,.331,167.11c-1.549-9.03,2.325-19.636,11.843-32.424C20.406,123.625,31.5,112.721,41.286,103.1,48.334,96.173,54.42,90.191,58.5,85.135c4.266-5.288,5.258-9.719,6.407-14.85.467-2.084.949-4.236,1.684-6.648a95.993,95.993,0,0,1,6.2-15.543,68.432,68.432,0,0,1,9.053-13.665c7.678-8.885,17.137-14.334,28.113-16.193a30.019,30.019,0,0,1,3.033-.178h.022c2.446-.079,5.49-.177,5.986-.756a4.47,4.47,0,0,0,.113-2.053,9.989,9.989,0,0,1,.319-4.055,7.9,7.9,0,0,1,2.792-2.906A29.916,29.916,0,0,1,126.9,5.722a65.441,65.441,0,0,1,9.22-3.292,69.983,69.983,0,0,1,9.7-1.822A89.923,89.923,0,0,1,156.394,0a100.478,100.478,0,0,1,28.372,4.079,77.48,77.48,0,0,1,12.931,5.1,54.05,54.05,0,0,1,10.83,7.15,37.19,37.19,0,0,1,4.758,5.5l0,0a25.823,25.823,0,0,0,4.216,4.785,15.713,15.713,0,0,0,5.048,2.089,25.787,25.787,0,0,1,3.414,1.148,29.424,29.424,0,0,1,11.468,8.918,34.576,34.576,0,0,1,5.95,12.536,54.561,54.561,0,0,1,1.6,14.377,78.906,78.906,0,0,1-1.579,14.44,34.6,34.6,0,0,1-1.175,3.735,20.583,20.583,0,0,0-1.343,4.758,6.685,6.685,0,0,0,1.624,2.521l0,0a14.656,14.656,0,0,1,1.7,2.345,24.561,24.561,0,0,1,2.154,13.782,33.148,33.148,0,0,1-1.649,7.2,34.393,34.393,0,0,1-3.189,6.724,28.633,28.633,0,0,1-8.31,8.833,19.411,19.411,0,0,1-15.75,2.938,53.494,53.494,0,0,1-3.222,12c-1.456,3.812-3.144,7.411-5.041,11.384,6.731,1.052,13.131,3.535,19.64,6.2a17.576,17.576,0,0,0,3.17-3.552l0,0c1.381-1.844,2.808-3.75,4.916-4.842a12.4,12.4,0,0,1,5.758-1.294c5.5,0,11.676,2.755,16.64,4.969l.051.023c.906.4,1.761.785,2.581,1.135,3.7,1.58,13.073,5.954,22.5,10.967,7.64,4.065,17.259,9.6,19.7,12.9a12.116,12.116,0,0,1,2.254,7.211,25.52,25.52,0,0,1-1.51,8.284c-1.9,5.653-5.144,11.229-7.753,15.709-.41.7-.777,1.335-1.123,1.938-1.049,1.83-3.121,4.9-5.52,8.451l0,.006,0,.005c-4.314,6.391-9.684,14.346-10.278,17.027-.514,2.321.2,5.812.953,9.509v0a56.878,56.878,0,0,1,1.253,8.007c.152,2.858-.294,4.945-1.364,6.382a6.7,6.7,0,0,1-5.116,2.449l2.063,16.858a33.913,33.913,0,0,0,0,5.337v.015a60.814,60.814,0,0,1-.031,8.493c-.324,3-1.145,4.635-2.509,4.985A1.7,1.7,0,0,1,275.05,303.585ZM243.669,160.528a9.283,9.283,0,0,0-1.614.134,5.559,5.559,0,0,0-3.588,1.914,43.188,43.188,0,0,0-4.071,7.015c-1.019,2-1.981,3.889-2.884,5.3-1.175,1.831-2.891,4.3-4.878,7.157l-.02.029c-5.92,8.514-14.028,20.174-15.184,25.71-.591,2.832-.453,4.695.461,6.227.872,1.461,2.386,2.535,4.482,4.021l.19.135c9.71,6.886,35.917,20.489,47.5,24.056a12.152,12.152,0,0,0,3.481.659c2.212,0,3.6-1.253,5.53-3.721,3.634-4.641,11.853-17.79,14.145-23.008.931-2.12,1.141-3.522.642-4.287-.33-.506-.956-.741-1.969-.741a19.691,19.691,0,0,0-3.142.389l-.091.015a21.034,21.034,0,0,1-3.386.4,5.159,5.159,0,0,1-1.267-.136l-41.526-21.118a3.17,3.17,0,0,1-1.335-2.247c-.381-2.444,1.068-5.944,2.351-8.449a48.015,48.015,0,0,1,4.441-7.052c1.7-2.162,3.407-3.169,5.373-3.169,1.884,0,3.834.9,6.093,1.942l.022.01.005,0c.75.346,1.525.7,2.341,1.047,3.394,1.431,10.121,4.588,16.412,7.853,5.434,2.82,12.413,6.688,14.8,9.1a7.612,7.612,0,0,1,2.574,5.091,10.437,10.437,0,0,1-1.033,4.222c-.6,1.487-1.158,2.891-.777,4.321a4.518,4.518,0,0,0,3.763,2.925,1.817,1.817,0,0,0,1.551-.793,58.326,58.326,0,0,0,5.231-10.6c.885-3.178.822-5.261-.212-6.963-1-1.645-2.848-2.877-5.408-4.582-6.56-4.373-16.9-9.788-31.617-16.553-.846-.389-1.766-.836-2.74-1.31l-.008,0,0,0C253.783,163.268,248.149,160.527,243.669,160.528ZM46.82,199.033c-.2,1.136-.2,5.117.915,6.447a1.035,1.035,0,0,0,.8.419,14.513,14.513,0,0,0,2.2-2.053,20.535,20.535,0,0,0,2.249-2.626c.029-.059.037-.1.023-.117l-6.187-2.069Zm95.646-17.2c.09,5.478,5.294,11,10.065,12.979a29.5,29.5,0,0,0,11.35,2.248c15.173,0,28.74-10.986,31.558-25.551a71.744,71.744,0,0,1-17.427,9.6A54.321,54.321,0,0,1,159,184.665a49.918,49.918,0,0,1-16.53-2.835Zm-26.232-157.8c-5.4,0-12.3,2.662-15.523,4.235C82.351,37.219,77.8,52.514,72.989,68.708l-.016.055c-1.06,3.565-2.157,7.251-3.415,10.916-1.308,3.814-4.865,8.931-10.875,15.643-5.238,5.85-11.632,12.123-17.273,17.657l-.011.011c-5.029,4.935-9.779,9.6-12.828,13.091l-.389.446c-4.561,5.228-11.453,13.129-16.01,21.361-5.418,9.788-6.312,17.9-2.657,24.1C14.653,180.715,33,186.756,46.4,191.167h0l.074.024c3.919,1.291,7.3,2.406,9.938,3.441a.63.63,0,0,0,.1.007c1.146,0,2.7-3.141,3.367-4.482l.064-.129.028-.056.051-.1a87.7,87.7,0,0,0,8.039-27.055c.044-.378.1-.809.159-1.225v-.007c.375-2.752.941-6.91-.711-8.891a3.33,3.33,0,0,0-2.526-1.149l-.089,0c-1.98,0-4.166,2.927-6.482,6.026l0,.005c-2.365,3.165-4.811,6.438-7.279,6.945a4.055,4.055,0,0,1-.815.087,2.483,2.483,0,0,1-2.041-.933,3.732,3.732,0,0,1-.482-3.173c2.025-2.911,4.208-5.731,6.32-8.457l0,0,.011-.015a145.28,145.28,0,0,0,8.8-12.229c2.579-4.158,4.989-9.052,7.54-14.232l0-.006C74.336,117.71,78.334,109.6,83,104.132a39.465,39.465,0,0,1,7.334-6.118l.008-.006c3.544-2.507,7.209-5.1,9.338-8.85,1.668-2.939,2.331-6.273,2.971-9.5v-.005c.73-3.669,1.485-7.461,3.728-10.633,1.131-1.6,3.579-3.514,6.172-5.543,3.932-3.078,8-6.261,8.261-8.876a3.177,3.177,0,0,0-.57-2.517,2.732,2.732,0,0,0-2.118-.752c-3.347,0-8.859,3.092-10.7,4.284A33.235,33.235,0,0,0,103.5,59l-.009.009c-1.735,1.639-3.373,3.188-4.348,3.495a4.733,4.733,0,0,1-1.419.23,2.757,2.757,0,0,1-2.072-.793,2.853,2.853,0,0,1-.671-2.184c.153-2.619,2.156-5.172,6.124-7.8a83.506,83.506,0,0,1,11.386-5.878l.012-.006.026-.012a62.909,62.909,0,0,0,6.313-3.106c.263-.163.522-.318.834-.5,2.48-1.478,5.29-3.153,3.913-6.542a2.873,2.873,0,0,0-2.491-.978c-3.277,0-8.53,2.428-12.359,4.465A73,73,0,0,0,98.787,45.6,28.432,28.432,0,0,0,96.63,47.8c-2.3,2.479-5.442,5.871-7.7,5.871a1.94,1.94,0,0,1-1.581-.805A3.031,3.031,0,0,1,87,50.113a11.568,11.568,0,0,1,1.636-3.325,33.735,33.735,0,0,1,4.61-5.349,49.619,49.619,0,0,1,13.93-8.9,50.77,50.77,0,0,1,16.018-4.16C122.568,25.49,120.226,24.025,116.233,24.025Zm42.739,25c-3.07.4-5.606,1.77-8.29,3.22l0,0a35.935,35.935,0,0,1-6,2.773,67.074,67.074,0,0,1-7.617,1.642c-4.285.773-8.717,1.573-10.686,2.761a5.221,5.221,0,0,0-1.721,1.93l0,0a5.37,5.37,0,0,1-1.114,1.423c-2.349,1.912-4.323,3.374-5.91,4.549l-.027.02c-6.611,4.9-7.987,5.914-10.7,19.391-4.141,20.568-3.66,49.725,10.106,69.872a46.544,46.544,0,0,0,31.494,20.21,56.934,56.934,0,0,0,9.782.863h.011c21,0,38.873-11.838,47.8-31.665.708-1.574,1.814-5.171,2.985-8.979l0-.005c1.54-5.009,3.132-10.188,3.9-10.964a3.6,3.6,0,0,1,2.519-.625,35.479,35.479,0,0,1,3.973.337l.089.011h0a33.6,33.6,0,0,0,3.725.326c.273,0,.517-.011.727-.032,6.114-.619,9.758-4.921,11.737-8.421a29.812,29.812,0,0,0,3.6-14.626C239.2,95.718,234.723,90.8,228.2,90.8a15.232,15.232,0,0,0-3.873.528c-2.686.708-4.6,3.066-6.461,5.348s-3.6,4.426-5.856,4.426c-1.3,0-2.674-.707-4.2-2.163a30.744,30.744,0,0,1-6.855-10.751,69.72,69.72,0,0,1-3.877-14.123,133.914,133.914,0,0,1-1.634-27.789.913.913,0,0,0-.664-.224c-1.773,0-5.782,2.817-8.434,4.682l-.029.02c-1.057.742-1.891,1.328-2.357,1.582a103.117,103.117,0,0,1-10.223,4.85c-4.906,1.983-8.771,2.988-11.488,2.988a7.329,7.329,0,0,1-2.109-.271c-1.457-.443-2.194-1.549-2.254-3.381a18.545,18.545,0,0,1,.766-4.8v-.008c.336-1.336.6-2.391.32-2.678Zm-60.89,51.607c-1.306,1.953-3.393,3.021-5.413,4.054a21.128,21.128,0,0,0-3.148,1.836c-3.125,2.367-5.42,7.806-7.444,12.6-.883,2.094-1.717,4.07-2.546,5.616-1.65,3.077-3.471,6.132-5.232,9.086-2.351,3.945-4.781,8.022-6.84,12.207l37.841,6.2a72.432,72.432,0,0,1-3.75-11.477,99.937,99.937,0,0,1-2.062-11.821c-.937-7.965-1.125-16.171-1.307-24.108-.032-1.377-.064-2.8-.1-4.194Z" transform="translate(-47.037 -45.246)" fill="#080808" stroke="rgba(0,0,0,0)" stroke-miterlimit="10" stroke-width="1"/>
      <path id="Tracciato_1122" data-name="Tracciato 1122" d="M455.68,156.826c.935.934.934,2.756.571,3.977-.715,2.41-10.632,14.329-12.962,15.286-3.95,1.623-6.7.255-4.808-4.12.3-.7,8.327-10.652,9.446-11.88,1.746-1.916,4.987-6.024,7.752-3.263" transform="translate(-220.741 -115.721)" fill="#0a0a0a"/>
      <path id="Tracciato_1124" data-name="Tracciato 1124" d="M475.347,190.145c5.534-1.05,7.921,2.134,3.156,5.907-3,2.376-16.552,9.238-19.166,4.953-2.58-4.229,12.879-10.266,16.01-10.86" transform="translate(-227.346 -126.339)" fill="#0a0a0a"/>
      <path id="Tracciato_1125" data-name="Tracciato 1125" d="M465.563,234.166c2.439-.715,14.739,2.9,16.338,4.709,2.3,2.6-.382,5.518-3.33,5.426-1.909-.059-14.6-4.215-15.243-5.452-.928-1.79.416-4.15,2.236-4.683" transform="translate(-228.587 -140.104)" fill="#0b0b0b"/>
      <path id="Tracciato_1169" data-name="Tracciato 1169" d="M255.168,179.082c1.894-.553,4.043,1.195,4.341,3.046,1.044,6.481-10.873,16.694-9.37,21.654,2.062,6.8,14.955-2.909,15.571,3.107.715,6.994-13.868,8.216-19.212,3.341-9.92-9.049,3.79-21.053,7.178-29.835a2.939,2.939,0,0,1,1.492-1.314" transform="translate(-159.947 -122.919)" fill="#090909"/>
      <path id="Tracciato_1170" data-name="Tracciato 1170" d="M289.161,253.628c-4.9,1.053-8.346-3.317-12.507-4.846a22.8,22.8,0,0,0-14.376-.358c-4.09,1.138-15.035,11.246-14.341,2.209.623-8.115,17.895-11.325,24.454-10.661,5.971.6,20.973,5.381,16.77,13.657" transform="translate(-161.491 -141.917)" fill="#090909"/>
      <path id="Tracciato_1171" data-name="Tracciato 1171" d="M283.786,136.075c2.192-.689,7.027,3.877,9.872,5.074,4.313,1.814,18.492,4.063,19.8,8.417,1.228,4.074-1.194,5.378-4.853,4.859-5.011-.711-20-6.087-23.584-9.461-2.151-2.026-5.28-7.619-1.24-8.889" transform="translate(-172.072 -109.516)" fill="#0b0b0b"/>
      <path id="Tracciato_1172" data-name="Tracciato 1172" d="M297.25,171.117c9.344-2.057,10.085,15.131,3.888,18.354-10.511,5.468-12.655-16.424-3.888-18.354" transform="translate(-175.178 -120.414)" fill="#0a0a0a"/>
      <path id="Tracciato_1173" data-name="Tracciato 1173" d="M237.89,139.128c4.3-1.106,5.449,3.293,3.646,6.434-2.239,3.9-18.734,10.363-22.941,9.109a5.45,5.45,0,0,1-2.232-1.941c-2.112-4.74,10.789-7.1,13.6-8.421,2.265-1.068,6.154-4.725,7.926-5.181" transform="translate(-151.581 -110.436)" fill="#0a0a0a"/>
      <path id="Tracciato_1174" data-name="Tracciato 1174" d="M232.283,170.581a6.422,6.422,0,0,1,6.154-1.467c7.765,1.746,5.856,20.035-3.946,18.44-5.365-.873-5.841-13.387-2.208-16.973" transform="translate(-155.886 -119.775)" fill="#090909"/>
      <path id="Tracciato_1175" data-name="Tracciato 1175" d="M383.794,174.232c2.209-.124,5.889,1.251,4.659,3.953-.954,2.1-4.786,2.379-6.509,3.847-1.828,1.558-4.934,10.039-8.356,7.57-.926-.667-.78-3.727-.653-4.883.5-4.513,6.311-10.233,10.859-10.488" transform="translate(-200.459 -121.436)" fill="#0a0a0a"/>
    </g>
  </g>
</svg>
