<svg xmlns="http://www.w3.org/2000/svg" xmlns:xlink="http://www.w3.org/1999/xlink" width="350" height="350" viewBox="0 0 350 350">
  <defs>
    <clipPath id="clip-Tavola_da_disegno_1">
      <rect width="350" height="350"/>
    </clipPath>
  </defs>
  <g id="Tavola_da_disegno_1" data-name="Tavola da disegno – 1" clip-path="url(#clip-Tavola_da_disegno_1)">
    <path id="Unione_5" data-name="Unione 5" d="M25002.73,25155.258v-42.9c-8.92,2.961-18.672,4.338-30.687,4.338-1.287,0-2.523-.014-3.68-.041a7.107,7.107,0,0,1-1.2-.2h-.014l-.02-.006a8.821,8.821,0,0,0-1.639-.242,1.066,1.066,0,0,0-.795.236.7.7,0,0,0-.164.52c.006.145.189.271.367.4l.008,0,.012.006c.141.1.3.205.3.3v34.744c-.182.83-2.5,3.609-3.33,3.824a3.019,3.019,0,0,1-.725.1,2.075,2.075,0,0,1-1.549-.676c-.848-.891-1.357-2.623-1.537-5.3a58.965,58.965,0,0,1,.021-6.506l0-.033,0-.092.01-.039,0-.123c.039-1.008.078-1.957.053-2.529a15.181,15.181,0,0,0-.363-2.326l-.02-.078a14.2,14.2,0,0,1-.385-2.5c-.035-.705,0-2.045.02-3.738v-.1l.01-.053c0-.24,0-.49.008-.74l.006-.244v-.047c.123-6.248.3-15.687-.705-16.4a4.413,4.413,0,0,0-1.75-.635h-.006a3.928,3.928,0,0,1-1.906-.77,4.658,4.658,0,0,1-1.264-2.877,95.334,95.334,0,0,1-.658-13.672v-.076c-.008-2.293-.018-4.67-.1-6.766-.086-2-.238-4.066-.393-6.064l-.006-.031-.021-.322,0-.023,0-.031a83.634,83.634,0,0,1-.3-14.127,17.1,17.1,0,0,1,1-4.232c.5-1.3,1.359-2.861,2.646-2.861a2.25,2.25,0,0,1,1.266.459c2.789,1.959,4.246,38.385,4.313,44.6,5.371.525,10.184.781,14.7.781a85.247,85.247,0,0,0,29.725-4.842c.238-.09.547-.193.918-.316a16.927,16.927,0,0,0,3.055-1.225c.92-.707.133-7.826-.693-13.672-.926-6.494-2.182-13.512-2.629-15.613-7.254-34.34-20.229-48.182-51.418-54.836-1.906-.41-13.094-2.514-15.736-2.514-.311,0-.488.027-.543.084a34.357,34.357,0,0,1-4.383,14.594,37.417,37.417,0,0,1-9.525,10.951,43.936,43.936,0,0,1-26.645,9.266h-.006a34.936,34.936,0,0,1-11.127-1.738,27.722,27.722,0,0,1-9.52-5.377,26.593,26.593,0,0,1-6.781-9.264,36.261,36.261,0,0,1-2.93-13.389,75.1,75.1,0,0,1-14.016-7.59c-7.256-.352-14.57-1.092-21.65-1.807l-.105-.014h-.041c-9.744-.988-19.816-2.014-29.9-2.041a53.434,53.434,0,0,1,3.732,11.152,57.411,57.411,0,0,1,1.287,11.633,61.167,61.167,0,0,1-4.3,22.959l-7.084,14.514,30.332,1.326,5.168-31.332a4.329,4.329,0,0,1,2.572-1.3,1.594,1.594,0,0,1,1.18.527c1.748,1.867,1.385,8.111,1.166,11.84v.021l-.012.15c-.012.117-.014.229-.021.338l-.014.221c-.018.32-.033.594-.041.842-.41,10.746-1.4,21.688-2.357,32.266l0,.043,0,.035-.031.365c-.639,7.039-1.355,15.02-1.84,22.613-.354,5.584-.5,11.506-.619,16.734l0,0v.207l-.008.057c-.148,6.338-.311,12.893-.795,19.146l-.006.055v.012c-.281,3.574-.756,9.553-4.709,9.553a5.756,5.756,0,0,1-2.186-.5c-1.133-.469-1.7-2.189-1.738-5.258a64.715,64.715,0,0,1,.568-7.787v-.014l.023-.16.014-.1c.148-1.283.254-2.24.283-2.852l.027-.785c.084-2.248.2-5.184.3-7.953v-.129c.6-16.084,1.213-32.715,3.18-48.951l-39.271-1.428c-4.146-.5-7.105-1.551-9.3-3.32-2.383-1.91-3.881-4.738-4.6-8.637-9.475-.906-22.943-3.35-33.3-9.814a32.256,32.256,0,0,1-11.447-11.521,27.17,27.17,0,0,1-2.883-7.895,31.935,31.935,0,0,1,2.529-19.824,60.928,60.928,0,0,1,5.828-9.982,167.846,167.846,0,0,1,14.539-17.256l.041-.043c8.484-9.162,17.684-17.914,26.58-26.383l.035-.029.033-.033.041-.039c7.346-7,14.945-14.221,22.17-21.715a62.267,62.267,0,0,0,2.3-12.361l0-.02,0-.043,0-.057.014-.135.012-.049a81.642,81.642,0,0,1,1.543-9.678,67.488,67.488,0,0,1,4.895-13.607,71.9,71.9,0,0,1,7.633-12.354,70.688,70.688,0,0,1,9.945-10.541,66.207,66.207,0,0,1,11.85-8.184.575.575,0,0,0-.117-.463c-.371-.488-1.484-.611-2.15-.689h0l-.088-.014c-.117-.012-.229-.025-.3-.037-.355-.061-.736-.109-1.107-.164l-.105-.012c-.1-.014-.2-.027-.3-.045l-.164-.025a37.122,37.122,0,0,1-5.857-1.133c-2.143-.67-3.436-1.584-3.967-2.795a3.655,3.655,0,0,1-.141-2.361,9.773,9.773,0,0,1,1.574-3.242,24.718,24.718,0,0,1,7.57-6.57,67.066,67.066,0,0,1,11.109-5.287c7.428-2.824,16.107-4.953,22.111-5.424,1.346-.1,2.719-.154,4.076-.154,8.121,0,16.227,1.822,23.082,3.6-2.137-3.475-2.752-6.047-1.881-7.852s3.24-2.922,7.268-3.41a43.568,43.568,0,0,1,5.248-.307,56.291,56.291,0,0,1,15.166,2.191,57.476,57.476,0,0,1,7.49,2.688,52.922,52.922,0,0,1,6.988,3.705,39.229,39.229,0,0,1,11.158,10.309,28.123,28.123,0,0,1,5.2,13.951l3.9-9.893a3.57,3.57,0,0,1,2.523-1.6,1.884,1.884,0,0,1,1.367.633,7.015,7.015,0,0,1,1.418,4.8,34.542,34.542,0,0,1-1.068,4.781l-.016.053-.047.178v.02c-.639,2.457-1.3,5.012-1.021,5.275,7.344,1.086,12.885,4.4,16.459,9.859,2.793,4.256,4.354,9.717,4.627,16.223a61.149,61.149,0,0,1-2.172,18.045c-.285,1.072-.957,2.834-1.664,4.693l-.09.236,0,.01-.021.041c-1.146,3.016-2.34,6.137-2.326,7.285.01,1,.848,2.443,1.732,3.969l.01.016,0,0a18.78,18.78,0,0,1,1.656,3.285,28.663,28.663,0,0,1,.8,13.734,33.255,33.255,0,0,1-5.285,12.889,30.746,30.746,0,0,1-3.879,4.615,27.58,27.58,0,0,1-4.687,3.678,23.947,23.947,0,0,1-11.424,3.631,50.565,50.565,0,0,1-5,12.768c-2.152,3.98-4.7,7.844-7.164,11.568l-.051.08-.033.053-.352.525-.074.113c-.8,1.209-1.557,2.352-2.289,3.5a2.1,2.1,0,0,0,1.646,1.01l.045.006h.01c.035.012.072.021.107.031,5.352,1.254,10.494,2.184,15.461,3.088l.117.023.014.008h0l.016,0c10.438,1.9,20.3,3.7,29.113,7.855a49.294,49.294,0,0,1,12.492,8.354,58.784,58.784,0,0,1,10.912,13.818c3.9,6.65,7.963,17.838,11.16,30.686,1.49,6.027,2.7,12.1,3.5,17.574a88.844,88.844,0,0,1,1.113,14.709c-.109,3.9-2.348,5.2-4.146,6.248h0c-1.123.652-2.094,1.221-2.287,2.262l-.3,42.953a5.793,5.793,0,0,1-1.635,3.08,3.331,3.331,0,0,1-2.268.852C25004.535,25157.473,25002.73,25156.184,25002.73,25155.258Zm-161.855-276.328c-14.477,5.213-26.74,20.949-31.375,33.8-2.121,5.887-2.992,11.639-3.838,17.2v.016l0,.012,0,.008a101.422,101.422,0,0,1-2.9,14.3c-8.176,8.889-17.172,17.52-25.873,25.867l-.1.1-.029.027-.006.01c-9.242,8.859-18.8,18.021-27.424,27.549-2.533,2.811-5.242,5.869-7.834,9.23a62.3,62.3,0,0,0-6.84,10.758c-4.3,8.852-4.4,16.518-.307,23.434,6.637,11.246,30.613,14.746,46.477,17.064h0l.2.033.1.012c3.053.447,5.93.871,8.258,1.3l.646-.43c7.951-14.715,9.3-30.42,3.9-45.422a.2.2,0,0,0-.129-.045c-.633,0-2.3,2.277-4.408,5.156l-.014.021-.039.057-.006.006-.266.365c-.758,1.039-1.7,2.332-2.666,3.592a52.4,52.4,0,0,1-5.49,6.322c-2.061,1.932-3.752,2.875-5.152,2.875a2.627,2.627,0,0,1-.414-.029,3.491,3.491,0,0,1-2.346-1.422,1.724,1.724,0,0,1-.2-1.5c7.066-9.412,13.488-19.447,19.7-29.156,6.592-10.311,13.418-20.977,20.979-30.846a55.552,55.552,0,0,1,8.025-8.205l.016-.012c4.4-3.877,8.563-7.543,11.352-15.605a68.556,68.556,0,0,0,2.354-8.6v-.014l.02-.092c1.123-5.232,1.586-7.393,10.027-14.326,1.582-1.3,3.369-2.5,5.264-3.777,6.188-4.164,13.2-8.889,12.059-16.8-5.145,1.172-14.885,4.018-22.285,9.936a25.991,25.991,0,0,0-2.232,2.219l-.029.025,0,.006c-2.2,2.338-4.945,5.252-7.387,5.252a2.91,2.91,0,0,1-2-.807,4.1,4.1,0,0,1-1.4-2.809c0-.98.813-2.35,2.426-4.066a48.405,48.405,0,0,1,5.621-4.947,81.935,81.935,0,0,1,11.018-7.281,68.33,68.33,0,0,1,7.838-2.723l.063-.02c3.8-1.176,7.729-2.395,8.742-3.27a3.7,3.7,0,0,0,1.217-4.105,4.67,4.67,0,0,0-4.055-3.078c-.156,0-.32-.008-.484-.008-3.918,0-9.514,2.609-13.52,4.8a85.3,85.3,0,0,0-12.174,8.055c-.678.555-1.656,1.541-2.791,2.674l0,.01-.047.043-.012.01c-2.553,2.57-5.738,5.768-7.105,5.771l0,0a1.58,1.58,0,0,1-1.273-.533c-.754-.869-.529-2.619-.445-3.283l.008-.035c.289-2.123,1.6-4.475,3.879-7a46.336,46.336,0,0,1,7.955-6.74,77.16,77.16,0,0,1,9.285-5.469,46.094,46.094,0,0,1,7.865-3.2,4.668,4.668,0,0,0-4.859-3.494A17.476,17.476,0,0,0,24840.875,24878.93Zm46.512,161.438a29.136,29.136,0,0,0,9.652,1.609c14.014,0,26.93-9.3,30.707-22.119.031-.123.066-.246.121-.408a1.26,1.26,0,0,1,.055-.184l.021-.078.016-.041c.8-2.664,1.906-6.309.137-8.223a2.64,2.64,0,0,0-1.986-.98c-1.562,0-3.2,1.521-4.785,2.99h0l-.02.02-.049.045-.016.016a19.942,19.942,0,0,1-2.5,2.076,53.972,53.972,0,0,1-14.879,6.447,62.622,62.622,0,0,1-16.43,2.182,57.026,57.026,0,0,1-12.8-1.412h-.006C24873.611,25031.313,24880.527,25037.982,24887.387,25040.367Zm-15.883-142.8c-1.359.979-1.281,3.727-1.213,6.391v.049a21.069,21.069,0,0,1-.084,3.611c-1.094,6.645-8.875,12.01-15.74,16.74l0,.006,0,0-.02.014-.02.014-.012.008a66.165,66.165,0,0,0-8.436,6.441c-2.693,2.658-3.582,7.209-4.445,11.611l0,.02v.012l-.029.131,0,.025a49.2,49.2,0,0,1-1.359,5.75,42.107,42.107,0,0,1-2.592,5.51l-.008.01-.01.027c-1.211,2.309-2.35,4.484-2.506,5.676-.713,5.4,2.424,18.387,4.8,24.176a51.331,51.331,0,0,0,47.719,31.871,49.615,49.615,0,0,0,39.756-19.648c4.543-5.955,6.563-11.07,8.7-16.484l.008-.023.014-.037.018-.055c1.129-2.855,2.293-5.811,3.9-9.029,1.377-2.779,2.314-3.338,3.381-3.338a7.3,7.3,0,0,1,1.592.268l.02.006,0,0,.373.086a11.8,11.8,0,0,0,2.824.361c.172,0,.334,0,.479-.012,3.689-.162,7.443-2.471,10.557-6.5a26.35,26.35,0,0,0,5.166-11.82,19.389,19.389,0,0,0-4.078-14.318,8.27,8.27,0,0,0-6.225-3.129,9.815,9.815,0,0,0-5.32,1.785c-2.025,1.33-3.375,4.232-4.67,7.039-1.391,3-2.709,5.834-4.646,6.025l-.051.006h-.025c-.061,0-.137.008-.2.008-3.029,0-4.482-4.947-5.439-8.215l-.006-.016v0l0-.008-.051-.176,0-.01c-.156-.537-.3-1-.424-1.389a190.514,190.514,0,0,1-6.455-23.311,117.947,117.947,0,0,1-2.564-24.023,77.453,77.453,0,0,1-14.2,8.527c-4.381,2.027-10.785,4.443-16.453,4.443a16.307,16.307,0,0,1-3.52-.359c-1.621-.361-2.643-1.062-3.049-2.084-.918-2.336,1.469-5.842,3.209-8.4l0-.006.006-.014.008-.01c.99-1.459,1.711-2.516,1.434-2.809Zm-51.029,104.186c4.354.266,8.791.908,13.076,1.535,3.248.479,6.617.967,9.934,1.287a65.868,65.868,0,0,1-15.574-38.285l-5.441,3.758-20.73,30.645c-.084.617-.076.869.01.971a.3.3,0,0,0,.238.066c.051,0,.1,0,.16,0h.031c.078,0,.156-.01.234-.01a2.339,2.339,0,0,1,.365.029,34.34,34.34,0,0,0,4.475.248c1.721,0,3.545-.08,5.307-.156h.027c1.65-.068,3.52-.156,5.3-.156C24818.844,25001.676,24819.693,25001.7,24820.475,25001.748Zm69.871-9.73a23.394,23.394,0,0,0-13.037,0c-2.826.682-12.178,5.631-11.885.211.25-4.656,10.154-7.555,14-8.018a49.681,49.681,0,0,1,10.348-.123c4.1.484,16.121,4.455,14.457,10.057a2.384,2.384,0,0,1-2.59,1.734C24898.313,24995.879,24892.865,24992.6,24890.346,24992.018Zm-27.318-22.262c-4.588-9.965,5.064-16.588,7.748-25.408a2.644,2.644,0,0,1,1.518-1.371,3.459,3.459,0,0,1,3.791,1.635c3.566,5.92-9.123,15.621-6.594,21.486,1.7,3.938,5.531,2.709,9,1.473,3.391-1.2,6.424-2.4,6.771,1.227.379,3.955-5.451,7.205-11.393,7.205C24869.514,24976,24865.1,24974.252,24863.027,24969.756Zm82.838-12.766c-3.3-1.1-.674-7.807.65-9.8,2.184-3.295,13.352-12.16,14.85-5.078.639,3-6.582,5.355-8.627,7.408s-3.432,7.592-6.164,7.592A2.181,2.181,0,0,1,24945.865,24956.99Zm-93-5.428c-6.326-2.725-4.2-15.291,1.756-16.369,4.57-.834,6.752,3.795,6.676,8.428-.072,4.266-2.061,8.527-5.846,8.527A6.484,6.484,0,0,1,24852.869,24951.563Zm45.08-.475c-6.125-1.922-5.6-15.23.547-16.57,5.736-1.254,8.1,3.539,7.824,8.332-.248,4.268-2.59,8.539-6.5,8.539A6.332,6.332,0,0,1,24897.949,24951.088Zm18.176-23.857c-4.859-.037-21.117-5.234-25.172-8.146-2.758-1.977-7.5-7.859-1.65-8.7,1.941-.279,6.926,3.834,9.717,4.869,4.43,1.648,19.3,3.5,21.113,7.27,1.244,2.592-1.463,4.707-3.975,4.707Z" transform="translate(-24694.988 -24822.236)" fill="#020202" stroke="rgba(0,0,0,0)" stroke-miterlimit="10" stroke-width="1"/>
  </g>
</svg>
