<svg xmlns="http://www.w3.org/2000/svg" xmlns:xlink="http://www.w3.org/1999/xlink" width="350" height="350" viewBox="0 0 350 350">
  <defs>
    <clipPath id="clip-Tavola_da_disegno_14">
      <rect width="350" height="350"/>
    </clipPath>
  </defs>
  <g id="Tavola_da_disegno_14" data-name="Tavola da disegno – 14" clip-path="url(#clip-Tavola_da_disegno_14)">
    <path id="Unione_13" data-name="Unione 13" d="M136.518,294.292V7H6.965V295.336c0,.732-6.965.732-6.965,0V2.472C0,1.951,1.692.9,2.456.749,5.657.136,9.466.368,13.364.6,18,.874,22.771,1.15,26.782,0L277.945.348C278.47.518,280,1.471,280,1.775V295.336c-.661,1.036-6.965.493-6.965,0V7H143.483V294.292c0,1.136-1.741,1.7-3.483,1.7S136.518,295.428,136.518,294.292ZM106.281,231.2a13.042,13.042,0,0,1-9.15-5.74,19.124,19.124,0,0,1-3.124-10.709,19.35,19.35,0,0,1,3.386-11.213,15.031,15.031,0,0,1,10.4-6.219,22.2,22.2,0,0,1,3.1-.226,15.721,15.721,0,0,1,12.3,5.371,17.118,17.118,0,0,1,3.165,5.506,19.262,19.262,0,0,1,1.1,6.311,18.614,18.614,0,0,1-1.159,6.688,16.006,16.006,0,0,1-3.624,5.721,15.426,15.426,0,0,1-5.3,3.474,19.775,19.775,0,0,1-7.319,1.306A27.689,27.689,0,0,1,106.281,231.2Zm1.489-26.938c-6.074,1.264-7.731,6.56-7.3,10.712.493,4.8,3.917,9.653,9.506,9.654a12.493,12.493,0,0,0,5.123-1.21,9.286,9.286,0,0,0,5.518-10.835A10.673,10.673,0,0,0,110.24,204,12.148,12.148,0,0,0,107.77,204.262Zm61.659,27.078a17.679,17.679,0,0,1-6.861-1.3,14.64,14.64,0,0,1-5-3.449,17.512,17.512,0,0,1-4.533-10.729,20.05,20.05,0,0,1,.48-6.193,17.975,17.975,0,0,1,2.386-5.65,14.785,14.785,0,0,1,10.39-6.721,19.88,19.88,0,0,1,3.04-.238,16.969,16.969,0,0,1,8.1,1.972,14.227,14.227,0,0,1,5.883,5.981,20.552,20.552,0,0,1,2.282,9.214,19.491,19.491,0,0,1-2.013,9.123,14.534,14.534,0,0,1-4.18,5.071,13.97,13.97,0,0,1-6.5,2.654,24.29,24.29,0,0,1-3.472.261Zm-.409-27.374a13.529,13.529,0,0,0-2.742.295c-4.831,1-6.89,5.756-6.788,10.022.106,4.4,2.425,9.185,7.368,9.965a15.561,15.561,0,0,0,2.414.2,9.56,9.56,0,0,0,7.083-2.745,10.265,10.265,0,0,0,2.666-7.5c-.174-5.089-3.665-10.24-10-10.24h0ZM68.48,187.084h-.028c-7.788-.348-15.841-.708-23.709-.708-4.485,0-8.538.114-12.391.348h-.063a4.209,4.209,0,0,1-3.368-2.142l-.4-152.2a4.11,4.11,0,0,1,2.621-3.648l81.677.218,1.741,1.741.017,153.9c-.444.937-1.911,1.667-4.357,2.171a39.914,39.914,0,0,1-5.363.646c-3.948.252-8.115.374-12.74.374C84.3,187.791,76.256,187.431,68.48,187.084Zm-32.957-7.361h19.85c.071,0,.154.106.258.239.165.212.37.475.653.475a.468.468,0,0,0,.127-.018c.488-.669-.479-3.456-1.7-6.983-2.665-7.681-6.695-19.289-1.067-23.3a9.225,9.225,0,0,1,3.626-1.123,4.8,4.8,0,0,0,2.475-.789,5.642,5.642,0,0,0,.822-2.512c.356-1.964.8-4.408,3.573-5.97a6.52,6.52,0,0,1,3.381-.9c.423,0,.832.031,1.194.059l.026,0c.384.03.745.058,1.112.058a4.514,4.514,0,0,0,1.557-.245,8,8,0,0,0,3.406-2.824c1.432-1.726,2.912-3.51,6.422-3.51a12.808,12.808,0,0,1,1.818.14c3.275.475,5.81,2.409,7.751,5.912a46.274,46.274,0,0,1,3.645,10.392,51.449,51.449,0,0,0,2.019,6.515,15.484,15.484,0,0,1,4.4-4.759,10.886,10.886,0,0,1,6.08-1.525c.32,0,.657.008,1,.023a30.142,30.142,0,0,1,.035-5.435c.148-2.743.3-5.578-.143-6.288a11.215,11.215,0,0,0-1.839-.869,25.12,25.12,0,0,1-3.573-1.726c-5.931-4.348-9.5-14.47-8.118-23.043a16.892,16.892,0,0,1,2.956-7.432,12.84,12.84,0,0,1,6.509-4.66A31.433,31.433,0,0,1,100.5,88.666a40.274,40.274,0,0,1,.685-11.478,18.518,18.518,0,0,1,.9-2.646A9.427,9.427,0,0,0,103,71.492c-.134-.564-.91-.991-1.894-1.531-2.539-1.4-6.377-3.506-3.034-10.516,1.565-3.284,5.681-5.627,8.14-7.027,1.053-.6,1.748-.995,1.748-1.193V35.554H35.523Zm68-23.585c-3.286,1.753-3.91,5.723-4.461,9.227a15.485,15.485,0,0,1-1.509,5.515,8.651,8.651,0,0,1-1.992,1.693c-2.252,1.622-5.336,3.844-5.012,7.151h12.886a58.657,58.657,0,0,0,4.513-18.465c.148-2.23.3-4.537-.6-5.5a1.55,1.55,0,0,0-1.2-.476A6.013,6.013,0,0,0,103.522,156.137Zm-46.569-.873c-1.245,1.677.024,5.875.783,8.382.1.33.193.639.27.906a67.744,67.744,0,0,0,2.558,6.894,59.3,59.3,0,0,1,2.916,8.178l20.7,0c.469-2.717,2.185-5.2,3.844-7.6,2.008-2.908,4.083-5.915,3.935-9.333a63.125,63.125,0,0,0-2.336-10.1,93.714,93.714,0,0,0-3.334-10.052c-.9-1.949-3.4-4.121-5.525-4.121a2.6,2.6,0,0,0-2.408,1.6c-1.3,2.63.751,7.716,2.731,12.634,1.8,4.46,3.652,9.071,3.073,11.928-.206,1.014-2.764,3.121-6.844,5.638-3.533,2.179-6.978,3.887-7.843,3.887a.432.432,0,0,1-.1-.01c-.607-.141-1.205-.982-1.884-2.648-.6-1.484-1.2-3.433-1.823-5.5-1.489-4.9-3.178-10.464-5.563-11.173a5.357,5.357,0,0,0-1.493-.251A1.936,1.936,0,0,0,56.953,155.264Zm11-10.359a1.405,1.405,0,0,0-.934.807c-1.859,3.852,5.029,19.25,5.1,19.4a10.987,10.987,0,0,1,1.828-.707c1.54-.5,3.287-1.071,3.4-2.437.108-1.326-.982-4.969-2.109-7.993-1.11-2.976-2.675-6.492-3.739-7.437a6.288,6.288,0,0,0-3.22-1.675A1.311,1.311,0,0,0,67.95,144.905Zm39.75-39.011c-3.914,0-6.533,2.181-7.375,6.138a19.1,19.1,0,0,0,1.3,10.633c1.517,3.718,3.825,6.491,6.332,7.609V105.9c-.083,0-.165,0-.258,0h0Zm57.208,77.827c-.877-15.3-1.3-32.073-1.3-51.281,0-17.123.332-34.544.653-51.391.309-16.238.629-33.03.65-49.492l2.749-2.823,81.681.22,1.741,1.741V184.582l-1.741,1.741-80.468.4h-.063C166.921,186.724,165.847,185.241,164.908,183.721Zm33.621-11.293c-.629,3.319-.523,5.266.344,6.311.682.823,1.832,1.159,3.969,1.159.924,0,1.964-.058,3.169-.126l.055,0,.8-.045c.688-1.457.249-3.669-1.176-5.919-1.455-2.3-3.5-3.9-4.98-3.9C199.6,169.907,198.841,170.779,198.528,172.429Zm44.812,6.02c-.078.466-.152.906-.253,1.269a7.485,7.485,0,0,0,1.368.154,1.584,1.584,0,0,0,1.215-.386c.411-.447.344-1.264.258-2.3a14.9,14.9,0,0,1-.063-2.336c-.055,0-.113-.006-.172-.006C243.945,174.845,243.609,176.843,243.341,178.449Zm-25.1,1.294h.008c1.12.041,2.279.085,3.158.085a3.624,3.624,0,0,0,1.447-.137,11.056,11.056,0,0,0,.395-2,27.2,27.2,0,0,1,.7-3.522c.211-.6.74-1.677,1.409-3.039,2.062-4.2,5.513-11.218,4.155-13.916a1.977,1.977,0,0,0-1.5-1.067,1.493,1.493,0,0,0-.271-.024c-1.977,0-4.654,3.648-6.552,6.708a84.37,84.37,0,0,0-6.007,11.913c-1.142,2.831-1.646,4.692-1.348,4.978a8.384,8.384,0,0,1,1.246-.061C215.952,179.658,217.117,179.7,218.243,179.743Zm13.408,0,.041,0c.57.034,1.16.07,1.735.07a4.45,4.45,0,0,0,3.434-1.091c.792-.91,2.148-3.943,3.226-7.213,1.286-3.9,1.87-7.174,1.6-8.972a2.056,2.056,0,0,0-.78-1.527,2.661,2.661,0,0,0-1.421-.432c-2.739,0-5.281,4.536-6.932,8.341a50.9,50.9,0,0,0-3.4,10.8,7.452,7.452,0,0,1,.881-.045C230.544,179.675,231.082,179.707,231.651,179.742Zm-48.116-4.208c-2.5.16-7.528,1.845-9.837,2.713a4.944,4.944,0,0,1-.728.189c-.722.149-1.467.3-1.625,1.287h11.492a3.769,3.769,0,0,0,.893-1.19c.333-.577,1.066-1.992.68-2.661a.793.793,0,0,0-.748-.342C183.62,175.529,183.578,175.531,183.535,175.534Zm5.921,4.185h3.477a4.9,4.9,0,0,0-1.739-4.161Zm-18.112-26.461v18.108c14.876,0,28.566-10.416,31.846-24.222.189-.8.36-2.313.54-3.919.308-2.744.658-5.854,1.215-6.5a3.119,3.119,0,0,1,2.413-.665,31.422,31.422,0,0,1,3.153.236l.05.006a32.49,32.49,0,0,0,3.281.241,7.2,7.2,0,0,0,1.585-.146c5.5-1.253,9.916-10.517,9.678-17.222-.142-3.971-1.859-6.41-4.836-6.868a7.058,7.058,0,0,0-1.071-.086,7.214,7.214,0,0,0-3.888,1.323,11.444,11.444,0,0,1-2.679,1.256,5.16,5.16,0,0,1-1.36.142c-.219,0-.444-.006-.662-.011s-.443-.011-.658-.011a3.24,3.24,0,0,0-1.735.34c-.414.28-.949,2.724-1.516,5.31a38.055,38.055,0,0,1-1.643,6.158,14.815,14.815,0,0,1-6.166,6.052A17.982,17.982,0,0,1,190.5,135.2h-.015a22.485,22.485,0,0,1-4.952-1.033l-.533-.15h0a20.351,20.351,0,0,0-3.841-.881,1.072,1.072,0,0,0-.264.027c-.716.182-1.561,1.156-2.457,2.186a10.567,10.567,0,0,1-2.265,2.184,12.432,12.432,0,0,1-3.84.95,3.72,3.72,0,0,0-.952.178,13.973,13.973,0,0,0-.125,3.259,12.1,12.1,0,0,0,.43,3.689c.517.857,2.219,1.341,4.19,1.9a20.435,20.435,0,0,1,5.112,1.949,4.126,4.126,0,0,1,2.219,4.119,2.49,2.49,0,0,1-.876,1.819,2.959,2.959,0,0,1-1.838.514,16.1,16.1,0,0,1-5.245-1.355c-.448-.177-.869-.35-1.278-.517a10.393,10.393,0,0,0-2.435-.837A.237.237,0,0,0,171.344,153.257Zm36.906-1.865a70.283,70.283,0,0,1-3.508,7.974c-.695,1.416-1.412,2.88-2.054,4.328,3.418.5,5.19,2.731,7.067,5.095.305.384.619.78.942,1.17a53.814,53.814,0,0,0,3.211-5.774,56.188,56.188,0,0,1,5.562-9.385c2.494-3.122,5.071-4.639,7.877-4.639a9.412,9.412,0,0,1,3.724.834,6.537,6.537,0,0,1,2.5,2.591c.711,1.064,1.383,2.068,2.363,2.345a3.482,3.482,0,0,0,.959.122,11.475,11.475,0,0,0,2.41-.369l.073-.016a12.287,12.287,0,0,1,2.619-.385,4.054,4.054,0,0,1,2.485.762V35.554H171.344c-.342,4.74-.173,6.913.6,7.748a1.47,1.47,0,0,0,1.155.44A10.127,10.127,0,0,0,175.4,43.3a19.988,19.988,0,0,1,5.35-.841h.009a41.548,41.548,0,0,1,15.725,3.753c5.8,2.536,10.432,5.844,13.05,9.315a31.664,31.664,0,0,1,2.607,4.57,23.224,23.224,0,0,0,3.066,5.08,11.674,11.674,0,0,0,2.928,1.931,16.959,16.959,0,0,1,2.6,1.593,22.664,22.664,0,0,1,7.942,13.578,29.291,29.291,0,0,1,.4,8.012,32.678,32.678,0,0,1-1.681,7.931,24.448,24.448,0,0,1-1.627,3.253c-1.1,1.981-2.347,4.227-2.227,5.462.071.735,1.034,1.444,2.254,2.339,1.733,1.273,3.888,2.857,4.714,5.367,1.973,6.006.268,14.227-4.243,20.459a21.1,21.1,0,0,1-6.069,5.746,14.7,14.7,0,0,1-7.71,2.247,14.444,14.444,0,0,1-2.84-.286A23.3,23.3,0,0,1,208.25,151.392Zm-36.9-24.6v5.566a.355.355,0,0,0,.264.077,4.975,4.975,0,0,0,2.329-.96,2.814,2.814,0,0,0,.444-3.064,2.633,2.633,0,0,0-2.4-1.7A2.774,2.774,0,0,0,171.347,126.794Zm16.567-27.017c-8.95.891-12.251,8.193-12.359,14.176-.12,6.638,3.559,13.875,10.823,14.864a20.28,20.28,0,0,0,2.722.192,12.728,12.728,0,0,0,9.441-3.684,14.975,14.975,0,0,0,3.764-10.967c-.27-7.281-4.821-14.651-13-14.651C188.85,99.707,188.381,99.73,187.914,99.777Zm.575-5.942a20.126,20.126,0,0,1,9.874,2.613,19.377,19.377,0,0,1,7.413,7.405c.117.211.356.817.658,1.585.739,1.879,1.855,4.717,2.383,4.716a.164.164,0,0,0,.132-.078c.507-4.472-1.164-8.764-2.779-12.913a38.263,38.263,0,0,1-2.711-9.1,43.9,43.9,0,0,1,.322-9.9c.1-.952.211-1.936.3-2.9a.408.408,0,0,0-.3-.088c-1.165,0-5.007,1.964-8.093,3.542-1.783.911-3.322,1.7-3.984,1.924a65.442,65.442,0,0,1-12.7,2.5c-2.539.328-5.164.668-7.652,1.174v20.2a10.519,10.519,0,0,0,2.53-3.015,14.33,14.33,0,0,1,1.968-2.586,17.6,17.6,0,0,1,5.947-3.834,18.429,18.429,0,0,1,6.7-1.235Zm23.894,36.791a17.386,17.386,0,0,1-2.612-1.163c-2.784-4.417,7.821-14.34,11.786-9.357,3.589,4.511-3.312,4.948-4.923,6.355-1.337,1.168-1.383,4.188-3.861,4.188A3.409,3.409,0,0,1,212.383,130.626Zm-25.915-24.578c9.929-2.287,7.392,14.4,1.9,15.2a3.874,3.874,0,0,1-.554.04C181.974,121.284,180.106,107.513,186.468,106.048ZM51.56,111.141c4.283-6.068,13.642-16.014,19.107-21.29,1.308-1.262,8.124-7.307,9.249-7.53a2.881,2.881,0,0,1,3.735,3.034c-.02,3.085-7.8,8.865-10.179,11.478-3.851,4.225-7.219,9.074-11.125,13.252-1.79,1.915-7.653,8.4-9.758,8.418h-.055C47.53,118.5,49.762,113.688,51.56,111.141Zm.27-18.418c-3.986-3.051,7.388-10.749,9.483-12.922,2.647-2.747,10.942-13.467,13.743-14.173,3.338-.842,4.512,2.815,3.286,5.436-.832,1.78-11.1,12.644-13.2,14.654-2.133,2.037-7.8,7.566-11.545,7.566A2.822,2.822,0,0,1,51.83,92.722Z" transform="translate(35 27.002)" fill="#070707" stroke="rgba(0,0,0,0)" stroke-miterlimit="10" stroke-width="1"/>
  </g>
</svg>
