<svg xmlns="http://www.w3.org/2000/svg" width="96.359" height="96.385" viewBox="0 0 96.359 96.385">
  <path id="fero-cavalo" d="M56.066,93.659c-2.209-1.535-8.833-6.41-8.978-9.019-.111-1.907,2.884-6.073,4.289-7.34,1.266-1.15,4.509-2.224,6.4-3.552C67.51,66.91,82.863,46.276,73.823,34.606c-2.748-3.545-5.089-3.3-8.978-2.107a56.215,56.215,0,0,0-8.428,3.374c-.357.234-.557.317-.53.813.1,1.687,2.686,5.425,1.446,7.112-1.122,1.522-10.886,4.792-12.93,6.638A1.663,1.663,0,0,1,42.372,48c.392-.792,9.977-5.535,11.615-5.9.262-.282-2.293-5.8-1.777-7.484.392-1.281,8.717-4.469,10.438-5.061a31.659,31.659,0,0,1,7.195-1.839c-.517-1.886-2.788-8.055-2.031-9.583.545-1.109,7.781-4.3,9.047-5.694,2.706-.964,5.185,1.171,7.16,2.761C104.269,31.474,96.8,59.172,81.637,76.033l-3.132,3.325-.021-.013c.021.013-3.381,3.277-5.171,4.785-.715.606-3.841,2.575-4.069,2.953-.172.283.572,1.288.607,2.039.117,2.334-4.621,6.8-6.871,7.16a7.92,7.92,0,0,1-1.232.1C59.368,96.385,58.128,95.1,56.066,93.659ZM51.179,84.9l9.811,7.9c1.164.653,3.139-.971,3.9-1.784l.006-.006c.234-.255,1.226-1.488,1.06-1.715L54.7,80.632a1.325,1.325,0,0,0-.623-.148C52.269,80.483,49.888,83.648,51.179,84.9ZM71.042,20.134a26.775,26.775,0,0,0,1.769,6.244c.62.964,2.554,2.135,3.58,3.429,8.964,11.346,1.012,29.145-7.319,38.645a43.319,43.319,0,0,1-11.416,9.419c-.117.517.076.606.358.929a77.437,77.437,0,0,0,7.491,5.8c1.075.441,1.722-.3,2.589-.9,18.9-12.957,36.008-46.06,14.995-64.657a33.966,33.966,0,0,0-4.048-2.988.893.893,0,0,0-.271-.037C77.094,16.021,72.34,19.213,71.042,20.134Zm-4.2,55.713c-.014-1.968,3.573-3.773,5.06-4.909l1.914,1.288c.788,2.048-3.2,5.275-5.474,5.275C67.473,77.5,66.854,77.032,66.842,75.847ZM3.915,71.337C1.422,70.407.6,69.161.245,66.531c-.481-3.5-.668-6.906,3.539-7.511v-.007c-.523-13.253.551-26.231,7.23-37.936C21.265,3.12,43.986-5.342,63.167,3.581c1.474.688,4.372,1.639,4.083,3.657-.338,2.32-9.591,5.8-9.584,8.447,0,2.128,2.83,6.672.345,7.794-1.4.634-4.442-1.177-6.066-1.66C32.508,16.023,23.186,33.869,21.9,50.406c-.5,6.485.847,14.527-1.928,20.566a4.176,4.176,0,0,1-3.449,2.809,5.117,5.117,0,0,1-.694.041C12.878,73.822,6.191,72.19,3.915,71.337Zm-.1-8.8c-.779.544-.413,4.276.606,4.971A88.492,88.492,0,0,0,15.1,70.139c2.664.083,2.375-3.181,2.747-5.178a40.946,40.946,0,0,1-6.323-1.294,38.946,38.946,0,0,0-6.848-1.295A1.6,1.6,0,0,0,3.819,62.537ZM15.11,21.11c-7.181,11.2-8.669,25.275-7.588,38.315l10.686,2.218c-.6-13.543.992-30.549,11.6-40.2,6.9-6.272,16.373-8.517,24.89-4.048.186-1.439-.847-3.077-.179-4.427.324-.661,8.358-5.473,7.924-5.893h.007c-2.4-.592-4.606-1.79-7.009-2.4a35.531,35.531,0,0,0-8.728-1.088A37.9,37.9,0,0,0,15.11,21.11ZM78.732,62.1c-.723-1.37,2.073-6.348,3.14-6.672,2.839-.856,3.007,1.478,2.093,3.812-.781,2-2.354,3.993-3.724,3.994A1.75,1.75,0,0,1,78.732,62.1ZM11.4,53.152c-1.5-1.941.455-10.183,3.332-7.016.833.916.324,6.692-.289,7.305H14.44a1.861,1.861,0,0,1-1.32.5A2.182,2.182,0,0,1,11.4,53.152Zm73.154-8.673a36.264,36.264,0,0,1,.833-6.713,2.251,2.251,0,0,1,3.586,1.212,26.828,26.828,0,0,1-.516,5.728,1.893,1.893,0,0,1-1.871,1.361A1.988,1.988,0,0,1,84.558,44.479ZM17,27.79c4.964-1.487,1.488,6.933-.24,7.511a3.424,3.424,0,0,1-1.072.2C12.48,35.5,15.322,28.294,17,27.79Zm6.479-11.018.007-.007c1.136-1.417,6.692-4.922,7.208-1.308.207,1.426-4.324,4.406-5.714,4.516q-.112.009-.218.008C22.946,19.982,22.381,18.145,23.481,16.772Z"/>
</svg>
